<?xml version="1.0" standalone="no"?>
<!DOCTYPE svg PUBLIC "-//W3C//DTD SVG 20010904//EN"
 "http://www.w3.org/TR/2001/REC-SVG-20010904/DTD/svg10.dtd">
<svg version="1.0" xmlns="http://www.w3.org/2000/svg"
 width="1024.000000pt" height="1024.000000pt" viewBox="0 0 1024.000000 1024.000000"
 preserveAspectRatio="xMidYMid meet">

<g transform="translate(0.000000,1024.000000) scale(0.100000,-0.100000)"
fill="#000000" stroke="none">
<path d="M4773 9340 c-880 -69 -1654 -372 -2323 -909 -625 -501 -1099 -1173
-1345 -1904 -309 -919 -298 -1986 30 -2867 335 -901 969 -1676 1766 -2159 557
-338 1152 -533 1819 -596 199 -19 729 -16 900 5 674 83 1272 297 1805 647
1246 819 1976 2213 1932 3688 -24 779 -225 1461 -627 2123 -212 350 -553 741
-881 1013 -637 527 -1403 852 -2225 945 -163 18 -683 27 -851 14z m697 -315
c320 -29 664 -99 950 -196 212 -71 395 -157 387 -182 -8 -27 -106 -67 -212
-87 -220 -42 -297 -62 -364 -96 -107 -53 -164 -133 -196 -270 -56 -242 -69
-283 -125 -394 -70 -141 -76 -164 -54 -220 19 -46 79 -92 166 -125 78 -29 188
-18 282 29 97 48 156 113 231 257 67 130 87 145 144 112 48 -27 96 -108 117
-199 22 -91 49 -142 90 -166 16 -10 73 -29 124 -42 73 -19 100 -31 118 -52 31
-36 25 -80 -18 -134 -64 -81 -123 -121 -326 -221 -214 -105 -278 -150 -309
-218 -18 -41 -18 -42 9 -171 23 -110 27 -152 26 -268 -3 -195 -3 -190 29 -223
25 -25 37 -29 82 -29 104 0 168 53 220 180 37 92 53 121 81 147 57 53 197 69
299 34 30 -10 142 -57 249 -104 235 -102 293 -121 369 -115 85 6 144 40 256
148 121 116 140 130 183 130 82 0 114 -57 120 -216 10 -245 -50 -386 -191
-454 -168 -81 -420 -63 -787 55 -79 25 -171 53 -205 60 -124 30 -246 12 -374
-55 -90 -47 -265 -184 -341 -267 -167 -182 -237 -392 -228 -680 4 -132 5 -133
46 -215 47 -96 108 -162 202 -223 137 -87 189 -99 430 -100 178 -1 200 -3 252
-24 33 -12 81 -43 111 -71 104 -95 147 -221 147 -431 0 -163 -23 -300 -94
-548 -73 -254 -86 -325 -93 -511 -9 -243 16 -369 86 -435 29 -27 39 -30 95
-29 111 1 253 86 432 256 200 191 386 438 505 673 75 149 104 244 130 432 32
227 57 298 174 493 123 204 205 415 235 602 14 84 9 241 -9 299 -6 20 -34 74
-63 120 -92 152 -109 187 -115 241 -6 61 14 99 78 150 70 57 166 44 188 -24
33 -106 50 -406 39 -693 -29 -773 -304 -1542 -784 -2191 -161 -218 -418 -488
-637 -669 -865 -715 -1977 -1020 -3102 -851 -602 91 -1195 328 -1684 674 -314
222 -663 568 -909 900 -147 199 -326 519 -440 787 -346 815 -394 1763 -136
2694 5 18 18 -9 54 -117 50 -152 107 -259 178 -334 24 -26 97 -84 163 -129
165 -113 187 -146 196 -302 3 -56 12 -114 19 -128 17 -34 83 -93 132 -118 118
-60 126 -145 32 -365 -102 -238 -106 -415 -14 -600 39 -78 78 -132 188 -264
109 -130 154 -199 176 -269 25 -80 45 -248 65 -528 38 -533 79 -649 310 -881
160 -161 218 -191 278 -144 46 36 50 71 33 267 -33 375 -47 627 -36 684 13 68
48 143 146 310 104 178 169 319 188 407 28 124 39 330 32 592 -7 286 -16 363
-55 445 -56 121 -261 347 -388 429 -90 58 -194 100 -302 121 -83 17 -190 17
-383 -1 -65 -6 -68 -5 -97 23 -21 21 -38 58 -60 129 -38 124 -76 188 -183 306
-47 52 -96 114 -111 138 -106 181 -58 520 95 672 57 58 163 111 262 132 39 9
137 22 217 30 162 17 232 38 302 91 56 42 99 124 122 232 80 366 83 372 316
595 189 181 247 249 279 323 45 105 36 190 -35 347 -68 146 -62 202 28 285
159 147 751 312 1257 352 179 14 525 12 710 -4z"/>
<path d="M3913 7390 c-72 -37 -109 -89 -246 -350 -111 -211 -137 -321 -98
-405 25 -53 69 -99 227 -238 197 -174 331 -311 458 -469 l37 -47 -95 -111
c-174 -204 -310 -391 -385 -532 -184 -341 -190 -761 -20 -1356 21 -75 39 -153
39 -172 0 -47 -25 -94 -87 -166 -88 -103 -104 -160 -57 -207 31 -31 106 -43
192 -31 31 4 179 8 327 8 l270 1 56 28 c135 66 231 247 246 468 13 190 -39
303 -216 468 -204 191 -251 284 -259 511 -6 207 25 345 126 545 47 94 137 235
150 234 4 0 22 -21 41 -47 19 -26 262 -351 541 -722 511 -682 645 -865 893
-1221 74 -108 152 -210 171 -227 139 -122 292 0 403 321 50 145 56 263 19 361
-14 37 -43 96 -63 129 -48 80 -322 455 -538 737 -94 124 -178 234 -184 245
-12 19 1 42 128 234 201 303 292 499 343 734 32 151 32 392 -1 497 -49 158
-132 276 -293 418 -156 137 -410 310 -525 358 -68 28 -177 33 -221 10 -84 -44
-159 -206 -197 -423 -26 -151 -18 -225 33 -302 42 -63 109 -104 268 -166 190
-75 257 -125 315 -238 62 -119 63 -363 3 -577 -19 -70 -86 -240 -93 -240 -3 1
-46 56 -95 123 -50 67 -162 221 -251 342 -89 121 -237 324 -330 450 -361 494
-651 870 -732 947 -96 92 -212 122 -300 78z"/>
</g>
</svg>
