%TF.GenerationSoftware,KiCad,Pcbnew,9.0.3*%
%TF.CreationDate,2025-10-27T10:48:04-03:00*%
%TF.ProjectId,Jorge,4a6f7267-652e-46b6-9963-61645f706362,rev?*%
%TF.SameCoordinates,Original*%
%TF.FileFunction,Plated,1,2,PTH,Mixed*%
%TF.FilePolarity,Positive*%
%FSLAX46Y46*%
G04 Gerber Fmt 4.6, Leading zero omitted, Abs format (unit mm)*
G04 Created by KiCad (PCBNEW 9.0.3) date 2025-10-27 10:48:04*
%MOMM*%
%LPD*%
G01*
G04 APERTURE LIST*
%TA.AperFunction,ViaDrill*%
%ADD10C,0.300000*%
%TD*%
%TA.AperFunction,ComponentDrill*%
%ADD11C,1.000000*%
%TD*%
G04 aperture for slot hole*
%TA.AperFunction,ComponentDrill*%
%ADD12C,1.000000*%
%TD*%
%TA.AperFunction,ComponentDrill*%
%ADD13C,1.300000*%
%TD*%
G04 APERTURE END LIST*
D10*
X151168800Y-73136800D03*
X155147300Y-105567400D03*
X156893800Y-68309600D03*
X168343800Y-101608200D03*
X176065700Y-101213800D03*
X176931300Y-100819400D03*
X181542500Y-136281800D03*
X194106300Y-121505800D03*
X196968800Y-65357000D03*
X198083400Y-118668800D03*
D11*
%TO.C,U1*%
X153046500Y-103420200D03*
X153086500Y-77420200D03*
%TO.C,MP1584EN1*%
X154880905Y-52610000D03*
X154882448Y-71055347D03*
%TO.C,U1*%
X155586500Y-103420200D03*
X155626500Y-77420200D03*
%TO.C,MP1584EN1*%
X157420905Y-52610000D03*
X157422448Y-71055347D03*
%TO.C,U1*%
X158126500Y-103420200D03*
X158166500Y-77420200D03*
%TO.C,GY-GPS6MV1*%
X159879999Y-109499999D03*
%TO.C,U1*%
X160666500Y-103420200D03*
X160706500Y-77420200D03*
D12*
%TO.C,DC_Input1*%
X160000000Y-41360000D02*
X162000000Y-41360000D01*
X160000000Y-47360000D02*
X162000000Y-47360000D01*
D11*
%TO.C,GY-GPS6MV1*%
X162419999Y-109499999D03*
%TO.C,U1*%
X163206500Y-103420200D03*
X163246500Y-77420200D03*
%TO.C,GY-GPS6MV1*%
X164959999Y-109499999D03*
%TO.C,MP1584EN1*%
X165549732Y-71057955D03*
X165550000Y-52610000D03*
%TO.C,U1*%
X165746500Y-103420200D03*
X165786500Y-77420200D03*
%TO.C,GY-GPS6MV1*%
X167499999Y-109499999D03*
%TO.C,MP1584EN1*%
X168089732Y-71057955D03*
X168090000Y-52610000D03*
%TO.C,U1*%
X168286500Y-103420200D03*
X168326500Y-77420200D03*
X170826500Y-103420200D03*
X170866500Y-77420200D03*
X173366500Y-103420200D03*
X173406500Y-77420200D03*
X175906500Y-103420200D03*
X175946500Y-77420200D03*
X178446500Y-103420200D03*
X178486500Y-77420200D03*
%TO.C,MPU-1*%
X179738171Y-70966568D03*
%TO.C,U1*%
X180986500Y-103420200D03*
X181026500Y-77420200D03*
%TO.C,BMP1*%
X181339969Y-52114562D03*
%TO.C,MG996R*%
X181960000Y-139475000D03*
%TO.C,MPU-1*%
X182278171Y-70966568D03*
%TO.C,U1*%
X183526500Y-103420200D03*
X183566500Y-77420200D03*
%TO.C,TB1*%
X183841900Y-109778800D03*
X183841900Y-112318800D03*
X183841900Y-114858800D03*
X183841900Y-117398800D03*
X183841900Y-119938800D03*
X183841900Y-122478800D03*
X183841900Y-125018800D03*
X183841900Y-127558800D03*
%TO.C,BMP1*%
X183879969Y-52114562D03*
%TO.C,MG996R*%
X184500000Y-139475000D03*
%TO.C,MPU-1*%
X184818171Y-70966568D03*
%TO.C,U1*%
X186066500Y-103420200D03*
X186106500Y-77420200D03*
%TO.C,BMP1*%
X186419969Y-52114562D03*
%TO.C,MG996R*%
X187040000Y-139475000D03*
%TO.C,MPU-1*%
X187358171Y-70966568D03*
%TO.C,U1*%
X188606500Y-103420200D03*
X188646500Y-77420200D03*
%TO.C,BMP1*%
X188959969Y-52114562D03*
%TO.C,MPU-1*%
X189898171Y-70966568D03*
%TO.C,U1*%
X191146500Y-103420200D03*
X191186500Y-77420200D03*
%TO.C,BMP1*%
X191499969Y-52114562D03*
%TO.C,MPU-1*%
X192438171Y-70966568D03*
%TO.C,U1*%
X193686500Y-103420200D03*
X193726500Y-77420200D03*
%TO.C,BMP1*%
X194039969Y-52114562D03*
%TO.C,MPU-1*%
X194978171Y-70966568D03*
%TO.C,U1*%
X196226500Y-103420200D03*
X196266500Y-77420200D03*
%TO.C,MPU-1*%
X197518171Y-70966568D03*
%TO.C,U1*%
X198766500Y-103420200D03*
X198806500Y-77420200D03*
%TO.C,TB1*%
X198827900Y-109778800D03*
X198827900Y-112318800D03*
X198827900Y-114858800D03*
X198827900Y-117398800D03*
X198827900Y-119938800D03*
X198827900Y-122478800D03*
X198827900Y-125018800D03*
X198827900Y-127558800D03*
D13*
%TO.C,MotorOutput1*%
X194455000Y-138172500D03*
X199535000Y-138172500D03*
M02*
