%TF.GenerationSoftware,KiCad,Pcbnew,9.0.3*%
%TF.CreationDate,2025-10-27T10:48:06-03:00*%
%TF.ProjectId,Jorge,4a6f7267-652e-46b6-9963-61645f706362,rev?*%
%TF.SameCoordinates,Original*%
%TF.FileFunction,Legend,Top*%
%TF.FilePolarity,Positive*%
%FSLAX46Y46*%
G04 Gerber Fmt 4.6, Leading zero omitted, Abs format (unit mm)*
G04 Created by KiCad (PCBNEW 9.0.3) date 2025-10-27 10:48:06*
%MOMM*%
%LPD*%
G01*
G04 APERTURE LIST*
G04 Aperture macros list*
%AMRoundRect*
0 Rectangle with rounded corners*
0 $1 Rounding radius*
0 $2 $3 $4 $5 $6 $7 $8 $9 X,Y pos of 4 corners*
0 Add a 4 corners polygon primitive as box body*
4,1,4,$2,$3,$4,$5,$6,$7,$8,$9,$2,$3,0*
0 Add four circle primitives for the rounded corners*
1,1,$1+$1,$2,$3*
1,1,$1+$1,$4,$5*
1,1,$1+$1,$6,$7*
1,1,$1+$1,$8,$9*
0 Add four rect primitives between the rounded corners*
20,1,$1+$1,$2,$3,$4,$5,0*
20,1,$1+$1,$4,$5,$6,$7,0*
20,1,$1+$1,$6,$7,$8,$9,0*
20,1,$1+$1,$8,$9,$2,$3,0*%
G04 Aperture macros list end*
%ADD10C,0.100000*%
%ADD11C,0.150000*%
%ADD12C,0.300000*%
%ADD13C,0.400000*%
%ADD14C,0.000000*%
%ADD15C,0.275000*%
%ADD16C,0.120000*%
%ADD17RoundRect,0.250000X-1.050000X-1.050000X1.050000X-1.050000X1.050000X1.050000X-1.050000X1.050000X0*%
%ADD18C,2.600000*%
%ADD19R,1.700000X1.700000*%
%ADD20C,1.700000*%
%ADD21R,2.000000X2.000000*%
%ADD22C,2.000000*%
%ADD23RoundRect,0.875000X-0.875000X0.875000X-0.875000X-0.875000X0.875000X-0.875000X0.875000X0.875000X0*%
%ADD24R,3.500000X3.500000*%
%ADD25RoundRect,0.750000X-1.000000X0.750000X-1.000000X-0.750000X1.000000X-0.750000X1.000000X0.750000X0*%
G04 APERTURE END LIST*
D10*
D11*
X177002200Y-166007200D02*
X285002200Y-166007200D01*
X285002200Y-198007200D01*
X177002200Y-198007200D01*
X177002200Y-166007200D01*
D10*
D11*
X10000000Y-10000000D02*
X287002200Y-10000000D01*
X287002200Y-200007200D01*
X10000000Y-200007200D01*
X10000000Y-10000000D01*
D10*
D11*
X12000000Y-12000000D02*
X285002200Y-12000000D01*
X285002200Y-198007200D01*
X12000000Y-198007200D01*
X12000000Y-12000000D01*
D10*
D11*
X60000000Y-12000000D02*
X60000000Y-10000000D01*
D10*
D11*
X110000000Y-12000000D02*
X110000000Y-10000000D01*
D10*
D11*
X160000000Y-12000000D02*
X160000000Y-10000000D01*
D10*
D11*
X210000000Y-12000000D02*
X210000000Y-10000000D01*
D10*
D11*
X260000000Y-12000000D02*
X260000000Y-10000000D01*
D10*
D11*
X36089160Y-11593604D02*
X35346303Y-11593604D01*
X35717731Y-11593604D02*
X35717731Y-10293604D01*
X35717731Y-10293604D02*
X35593922Y-10479319D01*
X35593922Y-10479319D02*
X35470112Y-10603128D01*
X35470112Y-10603128D02*
X35346303Y-10665033D01*
D10*
D11*
X85346303Y-10417414D02*
X85408207Y-10355509D01*
X85408207Y-10355509D02*
X85532017Y-10293604D01*
X85532017Y-10293604D02*
X85841541Y-10293604D01*
X85841541Y-10293604D02*
X85965350Y-10355509D01*
X85965350Y-10355509D02*
X86027255Y-10417414D01*
X86027255Y-10417414D02*
X86089160Y-10541223D01*
X86089160Y-10541223D02*
X86089160Y-10665033D01*
X86089160Y-10665033D02*
X86027255Y-10850747D01*
X86027255Y-10850747D02*
X85284398Y-11593604D01*
X85284398Y-11593604D02*
X86089160Y-11593604D01*
D10*
D11*
X135284398Y-10293604D02*
X136089160Y-10293604D01*
X136089160Y-10293604D02*
X135655826Y-10788842D01*
X135655826Y-10788842D02*
X135841541Y-10788842D01*
X135841541Y-10788842D02*
X135965350Y-10850747D01*
X135965350Y-10850747D02*
X136027255Y-10912652D01*
X136027255Y-10912652D02*
X136089160Y-11036461D01*
X136089160Y-11036461D02*
X136089160Y-11345985D01*
X136089160Y-11345985D02*
X136027255Y-11469795D01*
X136027255Y-11469795D02*
X135965350Y-11531700D01*
X135965350Y-11531700D02*
X135841541Y-11593604D01*
X135841541Y-11593604D02*
X135470112Y-11593604D01*
X135470112Y-11593604D02*
X135346303Y-11531700D01*
X135346303Y-11531700D02*
X135284398Y-11469795D01*
D10*
D11*
X185965350Y-10726938D02*
X185965350Y-11593604D01*
X185655826Y-10231700D02*
X185346303Y-11160271D01*
X185346303Y-11160271D02*
X186151064Y-11160271D01*
D10*
D11*
X236027255Y-10293604D02*
X235408207Y-10293604D01*
X235408207Y-10293604D02*
X235346303Y-10912652D01*
X235346303Y-10912652D02*
X235408207Y-10850747D01*
X235408207Y-10850747D02*
X235532017Y-10788842D01*
X235532017Y-10788842D02*
X235841541Y-10788842D01*
X235841541Y-10788842D02*
X235965350Y-10850747D01*
X235965350Y-10850747D02*
X236027255Y-10912652D01*
X236027255Y-10912652D02*
X236089160Y-11036461D01*
X236089160Y-11036461D02*
X236089160Y-11345985D01*
X236089160Y-11345985D02*
X236027255Y-11469795D01*
X236027255Y-11469795D02*
X235965350Y-11531700D01*
X235965350Y-11531700D02*
X235841541Y-11593604D01*
X235841541Y-11593604D02*
X235532017Y-11593604D01*
X235532017Y-11593604D02*
X235408207Y-11531700D01*
X235408207Y-11531700D02*
X235346303Y-11469795D01*
D10*
D11*
X285965350Y-10293604D02*
X285717731Y-10293604D01*
X285717731Y-10293604D02*
X285593922Y-10355509D01*
X285593922Y-10355509D02*
X285532017Y-10417414D01*
X285532017Y-10417414D02*
X285408207Y-10603128D01*
X285408207Y-10603128D02*
X285346303Y-10850747D01*
X285346303Y-10850747D02*
X285346303Y-11345985D01*
X285346303Y-11345985D02*
X285408207Y-11469795D01*
X285408207Y-11469795D02*
X285470112Y-11531700D01*
X285470112Y-11531700D02*
X285593922Y-11593604D01*
X285593922Y-11593604D02*
X285841541Y-11593604D01*
X285841541Y-11593604D02*
X285965350Y-11531700D01*
X285965350Y-11531700D02*
X286027255Y-11469795D01*
X286027255Y-11469795D02*
X286089160Y-11345985D01*
X286089160Y-11345985D02*
X286089160Y-11036461D01*
X286089160Y-11036461D02*
X286027255Y-10912652D01*
X286027255Y-10912652D02*
X285965350Y-10850747D01*
X285965350Y-10850747D02*
X285841541Y-10788842D01*
X285841541Y-10788842D02*
X285593922Y-10788842D01*
X285593922Y-10788842D02*
X285470112Y-10850747D01*
X285470112Y-10850747D02*
X285408207Y-10912652D01*
X285408207Y-10912652D02*
X285346303Y-11036461D01*
D10*
D11*
X60000000Y-198007200D02*
X60000000Y-200007200D01*
D10*
D11*
X110000000Y-198007200D02*
X110000000Y-200007200D01*
D10*
D11*
X160000000Y-198007200D02*
X160000000Y-200007200D01*
D10*
D11*
X210000000Y-198007200D02*
X210000000Y-200007200D01*
D10*
D11*
X260000000Y-198007200D02*
X260000000Y-200007200D01*
D10*
D11*
X36089160Y-199600804D02*
X35346303Y-199600804D01*
X35717731Y-199600804D02*
X35717731Y-198300804D01*
X35717731Y-198300804D02*
X35593922Y-198486519D01*
X35593922Y-198486519D02*
X35470112Y-198610328D01*
X35470112Y-198610328D02*
X35346303Y-198672233D01*
D10*
D11*
X85346303Y-198424614D02*
X85408207Y-198362709D01*
X85408207Y-198362709D02*
X85532017Y-198300804D01*
X85532017Y-198300804D02*
X85841541Y-198300804D01*
X85841541Y-198300804D02*
X85965350Y-198362709D01*
X85965350Y-198362709D02*
X86027255Y-198424614D01*
X86027255Y-198424614D02*
X86089160Y-198548423D01*
X86089160Y-198548423D02*
X86089160Y-198672233D01*
X86089160Y-198672233D02*
X86027255Y-198857947D01*
X86027255Y-198857947D02*
X85284398Y-199600804D01*
X85284398Y-199600804D02*
X86089160Y-199600804D01*
D10*
D11*
X135284398Y-198300804D02*
X136089160Y-198300804D01*
X136089160Y-198300804D02*
X135655826Y-198796042D01*
X135655826Y-198796042D02*
X135841541Y-198796042D01*
X135841541Y-198796042D02*
X135965350Y-198857947D01*
X135965350Y-198857947D02*
X136027255Y-198919852D01*
X136027255Y-198919852D02*
X136089160Y-199043661D01*
X136089160Y-199043661D02*
X136089160Y-199353185D01*
X136089160Y-199353185D02*
X136027255Y-199476995D01*
X136027255Y-199476995D02*
X135965350Y-199538900D01*
X135965350Y-199538900D02*
X135841541Y-199600804D01*
X135841541Y-199600804D02*
X135470112Y-199600804D01*
X135470112Y-199600804D02*
X135346303Y-199538900D01*
X135346303Y-199538900D02*
X135284398Y-199476995D01*
D10*
D11*
X185965350Y-198734138D02*
X185965350Y-199600804D01*
X185655826Y-198238900D02*
X185346303Y-199167471D01*
X185346303Y-199167471D02*
X186151064Y-199167471D01*
D10*
D11*
X236027255Y-198300804D02*
X235408207Y-198300804D01*
X235408207Y-198300804D02*
X235346303Y-198919852D01*
X235346303Y-198919852D02*
X235408207Y-198857947D01*
X235408207Y-198857947D02*
X235532017Y-198796042D01*
X235532017Y-198796042D02*
X235841541Y-198796042D01*
X235841541Y-198796042D02*
X235965350Y-198857947D01*
X235965350Y-198857947D02*
X236027255Y-198919852D01*
X236027255Y-198919852D02*
X236089160Y-199043661D01*
X236089160Y-199043661D02*
X236089160Y-199353185D01*
X236089160Y-199353185D02*
X236027255Y-199476995D01*
X236027255Y-199476995D02*
X235965350Y-199538900D01*
X235965350Y-199538900D02*
X235841541Y-199600804D01*
X235841541Y-199600804D02*
X235532017Y-199600804D01*
X235532017Y-199600804D02*
X235408207Y-199538900D01*
X235408207Y-199538900D02*
X235346303Y-199476995D01*
D10*
D11*
X285965350Y-198300804D02*
X285717731Y-198300804D01*
X285717731Y-198300804D02*
X285593922Y-198362709D01*
X285593922Y-198362709D02*
X285532017Y-198424614D01*
X285532017Y-198424614D02*
X285408207Y-198610328D01*
X285408207Y-198610328D02*
X285346303Y-198857947D01*
X285346303Y-198857947D02*
X285346303Y-199353185D01*
X285346303Y-199353185D02*
X285408207Y-199476995D01*
X285408207Y-199476995D02*
X285470112Y-199538900D01*
X285470112Y-199538900D02*
X285593922Y-199600804D01*
X285593922Y-199600804D02*
X285841541Y-199600804D01*
X285841541Y-199600804D02*
X285965350Y-199538900D01*
X285965350Y-199538900D02*
X286027255Y-199476995D01*
X286027255Y-199476995D02*
X286089160Y-199353185D01*
X286089160Y-199353185D02*
X286089160Y-199043661D01*
X286089160Y-199043661D02*
X286027255Y-198919852D01*
X286027255Y-198919852D02*
X285965350Y-198857947D01*
X285965350Y-198857947D02*
X285841541Y-198796042D01*
X285841541Y-198796042D02*
X285593922Y-198796042D01*
X285593922Y-198796042D02*
X285470112Y-198857947D01*
X285470112Y-198857947D02*
X285408207Y-198919852D01*
X285408207Y-198919852D02*
X285346303Y-199043661D01*
D10*
D11*
X10000000Y-60000000D02*
X12000000Y-60000000D01*
D10*
D11*
X10000000Y-110000000D02*
X12000000Y-110000000D01*
D10*
D11*
X10000000Y-160000000D02*
X12000000Y-160000000D01*
D10*
D11*
X10690476Y-35222176D02*
X11309523Y-35222176D01*
X10566666Y-35593604D02*
X10999999Y-34293604D01*
X10999999Y-34293604D02*
X11433333Y-35593604D01*
D10*
D11*
X11092857Y-84912652D02*
X11278571Y-84974557D01*
X11278571Y-84974557D02*
X11340476Y-85036461D01*
X11340476Y-85036461D02*
X11402380Y-85160271D01*
X11402380Y-85160271D02*
X11402380Y-85345985D01*
X11402380Y-85345985D02*
X11340476Y-85469795D01*
X11340476Y-85469795D02*
X11278571Y-85531700D01*
X11278571Y-85531700D02*
X11154761Y-85593604D01*
X11154761Y-85593604D02*
X10659523Y-85593604D01*
X10659523Y-85593604D02*
X10659523Y-84293604D01*
X10659523Y-84293604D02*
X11092857Y-84293604D01*
X11092857Y-84293604D02*
X11216666Y-84355509D01*
X11216666Y-84355509D02*
X11278571Y-84417414D01*
X11278571Y-84417414D02*
X11340476Y-84541223D01*
X11340476Y-84541223D02*
X11340476Y-84665033D01*
X11340476Y-84665033D02*
X11278571Y-84788842D01*
X11278571Y-84788842D02*
X11216666Y-84850747D01*
X11216666Y-84850747D02*
X11092857Y-84912652D01*
X11092857Y-84912652D02*
X10659523Y-84912652D01*
D10*
D11*
X11402380Y-135469795D02*
X11340476Y-135531700D01*
X11340476Y-135531700D02*
X11154761Y-135593604D01*
X11154761Y-135593604D02*
X11030952Y-135593604D01*
X11030952Y-135593604D02*
X10845238Y-135531700D01*
X10845238Y-135531700D02*
X10721428Y-135407890D01*
X10721428Y-135407890D02*
X10659523Y-135284080D01*
X10659523Y-135284080D02*
X10597619Y-135036461D01*
X10597619Y-135036461D02*
X10597619Y-134850747D01*
X10597619Y-134850747D02*
X10659523Y-134603128D01*
X10659523Y-134603128D02*
X10721428Y-134479319D01*
X10721428Y-134479319D02*
X10845238Y-134355509D01*
X10845238Y-134355509D02*
X11030952Y-134293604D01*
X11030952Y-134293604D02*
X11154761Y-134293604D01*
X11154761Y-134293604D02*
X11340476Y-134355509D01*
X11340476Y-134355509D02*
X11402380Y-134417414D01*
D10*
D11*
X10659523Y-185593604D02*
X10659523Y-184293604D01*
X10659523Y-184293604D02*
X10969047Y-184293604D01*
X10969047Y-184293604D02*
X11154761Y-184355509D01*
X11154761Y-184355509D02*
X11278571Y-184479319D01*
X11278571Y-184479319D02*
X11340476Y-184603128D01*
X11340476Y-184603128D02*
X11402380Y-184850747D01*
X11402380Y-184850747D02*
X11402380Y-185036461D01*
X11402380Y-185036461D02*
X11340476Y-185284080D01*
X11340476Y-185284080D02*
X11278571Y-185407890D01*
X11278571Y-185407890D02*
X11154761Y-185531700D01*
X11154761Y-185531700D02*
X10969047Y-185593604D01*
X10969047Y-185593604D02*
X10659523Y-185593604D01*
D10*
D11*
X287002200Y-60000000D02*
X285002200Y-60000000D01*
D10*
D11*
X287002200Y-110000000D02*
X285002200Y-110000000D01*
D10*
D11*
X287002200Y-160000000D02*
X285002200Y-160000000D01*
D10*
D11*
X285692676Y-35222176D02*
X286311723Y-35222176D01*
X285568866Y-35593604D02*
X286002199Y-34293604D01*
X286002199Y-34293604D02*
X286435533Y-35593604D01*
D10*
D11*
X286095057Y-84912652D02*
X286280771Y-84974557D01*
X286280771Y-84974557D02*
X286342676Y-85036461D01*
X286342676Y-85036461D02*
X286404580Y-85160271D01*
X286404580Y-85160271D02*
X286404580Y-85345985D01*
X286404580Y-85345985D02*
X286342676Y-85469795D01*
X286342676Y-85469795D02*
X286280771Y-85531700D01*
X286280771Y-85531700D02*
X286156961Y-85593604D01*
X286156961Y-85593604D02*
X285661723Y-85593604D01*
X285661723Y-85593604D02*
X285661723Y-84293604D01*
X285661723Y-84293604D02*
X286095057Y-84293604D01*
X286095057Y-84293604D02*
X286218866Y-84355509D01*
X286218866Y-84355509D02*
X286280771Y-84417414D01*
X286280771Y-84417414D02*
X286342676Y-84541223D01*
X286342676Y-84541223D02*
X286342676Y-84665033D01*
X286342676Y-84665033D02*
X286280771Y-84788842D01*
X286280771Y-84788842D02*
X286218866Y-84850747D01*
X286218866Y-84850747D02*
X286095057Y-84912652D01*
X286095057Y-84912652D02*
X285661723Y-84912652D01*
D10*
D11*
X286404580Y-135469795D02*
X286342676Y-135531700D01*
X286342676Y-135531700D02*
X286156961Y-135593604D01*
X286156961Y-135593604D02*
X286033152Y-135593604D01*
X286033152Y-135593604D02*
X285847438Y-135531700D01*
X285847438Y-135531700D02*
X285723628Y-135407890D01*
X285723628Y-135407890D02*
X285661723Y-135284080D01*
X285661723Y-135284080D02*
X285599819Y-135036461D01*
X285599819Y-135036461D02*
X285599819Y-134850747D01*
X285599819Y-134850747D02*
X285661723Y-134603128D01*
X285661723Y-134603128D02*
X285723628Y-134479319D01*
X285723628Y-134479319D02*
X285847438Y-134355509D01*
X285847438Y-134355509D02*
X286033152Y-134293604D01*
X286033152Y-134293604D02*
X286156961Y-134293604D01*
X286156961Y-134293604D02*
X286342676Y-134355509D01*
X286342676Y-134355509D02*
X286404580Y-134417414D01*
D10*
D11*
X285661723Y-185593604D02*
X285661723Y-184293604D01*
X285661723Y-184293604D02*
X285971247Y-184293604D01*
X285971247Y-184293604D02*
X286156961Y-184355509D01*
X286156961Y-184355509D02*
X286280771Y-184479319D01*
X286280771Y-184479319D02*
X286342676Y-184603128D01*
X286342676Y-184603128D02*
X286404580Y-184850747D01*
X286404580Y-184850747D02*
X286404580Y-185036461D01*
X286404580Y-185036461D02*
X286342676Y-185284080D01*
X286342676Y-185284080D02*
X286280771Y-185407890D01*
X286280771Y-185407890D02*
X286156961Y-185531700D01*
X286156961Y-185531700D02*
X285971247Y-185593604D01*
X285971247Y-185593604D02*
X285661723Y-185593604D01*
D10*
D11*
X200458026Y-193793328D02*
X200458026Y-192293328D01*
X200458026Y-192293328D02*
X200815169Y-192293328D01*
X200815169Y-192293328D02*
X201029455Y-192364757D01*
X201029455Y-192364757D02*
X201172312Y-192507614D01*
X201172312Y-192507614D02*
X201243741Y-192650471D01*
X201243741Y-192650471D02*
X201315169Y-192936185D01*
X201315169Y-192936185D02*
X201315169Y-193150471D01*
X201315169Y-193150471D02*
X201243741Y-193436185D01*
X201243741Y-193436185D02*
X201172312Y-193579042D01*
X201172312Y-193579042D02*
X201029455Y-193721900D01*
X201029455Y-193721900D02*
X200815169Y-193793328D01*
X200815169Y-193793328D02*
X200458026Y-193793328D01*
X202600884Y-193793328D02*
X202600884Y-193007614D01*
X202600884Y-193007614D02*
X202529455Y-192864757D01*
X202529455Y-192864757D02*
X202386598Y-192793328D01*
X202386598Y-192793328D02*
X202100884Y-192793328D01*
X202100884Y-192793328D02*
X201958026Y-192864757D01*
X202600884Y-193721900D02*
X202458026Y-193793328D01*
X202458026Y-193793328D02*
X202100884Y-193793328D01*
X202100884Y-193793328D02*
X201958026Y-193721900D01*
X201958026Y-193721900D02*
X201886598Y-193579042D01*
X201886598Y-193579042D02*
X201886598Y-193436185D01*
X201886598Y-193436185D02*
X201958026Y-193293328D01*
X201958026Y-193293328D02*
X202100884Y-193221900D01*
X202100884Y-193221900D02*
X202458026Y-193221900D01*
X202458026Y-193221900D02*
X202600884Y-193150471D01*
X203100884Y-192793328D02*
X203672312Y-192793328D01*
X203315169Y-192293328D02*
X203315169Y-193579042D01*
X203315169Y-193579042D02*
X203386598Y-193721900D01*
X203386598Y-193721900D02*
X203529455Y-193793328D01*
X203529455Y-193793328D02*
X203672312Y-193793328D01*
X204743741Y-193721900D02*
X204600884Y-193793328D01*
X204600884Y-193793328D02*
X204315170Y-193793328D01*
X204315170Y-193793328D02*
X204172312Y-193721900D01*
X204172312Y-193721900D02*
X204100884Y-193579042D01*
X204100884Y-193579042D02*
X204100884Y-193007614D01*
X204100884Y-193007614D02*
X204172312Y-192864757D01*
X204172312Y-192864757D02*
X204315170Y-192793328D01*
X204315170Y-192793328D02*
X204600884Y-192793328D01*
X204600884Y-192793328D02*
X204743741Y-192864757D01*
X204743741Y-192864757D02*
X204815170Y-193007614D01*
X204815170Y-193007614D02*
X204815170Y-193150471D01*
X204815170Y-193150471D02*
X204100884Y-193293328D01*
X205458026Y-193650471D02*
X205529455Y-193721900D01*
X205529455Y-193721900D02*
X205458026Y-193793328D01*
X205458026Y-193793328D02*
X205386598Y-193721900D01*
X205386598Y-193721900D02*
X205458026Y-193650471D01*
X205458026Y-193650471D02*
X205458026Y-193793328D01*
X205458026Y-192864757D02*
X205529455Y-192936185D01*
X205529455Y-192936185D02*
X205458026Y-193007614D01*
X205458026Y-193007614D02*
X205386598Y-192936185D01*
X205386598Y-192936185D02*
X205458026Y-192864757D01*
X205458026Y-192864757D02*
X205458026Y-193007614D01*
D10*
D11*
X177002200Y-194507200D02*
X285002200Y-194507200D01*
D10*
D11*
X178458026Y-196593328D02*
X178458026Y-195093328D01*
X179315169Y-196593328D02*
X178672312Y-195736185D01*
X179315169Y-195093328D02*
X178458026Y-195950471D01*
X179958026Y-196593328D02*
X179958026Y-195593328D01*
X179958026Y-195093328D02*
X179886598Y-195164757D01*
X179886598Y-195164757D02*
X179958026Y-195236185D01*
X179958026Y-195236185D02*
X180029455Y-195164757D01*
X180029455Y-195164757D02*
X179958026Y-195093328D01*
X179958026Y-195093328D02*
X179958026Y-195236185D01*
X181529455Y-196450471D02*
X181458027Y-196521900D01*
X181458027Y-196521900D02*
X181243741Y-196593328D01*
X181243741Y-196593328D02*
X181100884Y-196593328D01*
X181100884Y-196593328D02*
X180886598Y-196521900D01*
X180886598Y-196521900D02*
X180743741Y-196379042D01*
X180743741Y-196379042D02*
X180672312Y-196236185D01*
X180672312Y-196236185D02*
X180600884Y-195950471D01*
X180600884Y-195950471D02*
X180600884Y-195736185D01*
X180600884Y-195736185D02*
X180672312Y-195450471D01*
X180672312Y-195450471D02*
X180743741Y-195307614D01*
X180743741Y-195307614D02*
X180886598Y-195164757D01*
X180886598Y-195164757D02*
X181100884Y-195093328D01*
X181100884Y-195093328D02*
X181243741Y-195093328D01*
X181243741Y-195093328D02*
X181458027Y-195164757D01*
X181458027Y-195164757D02*
X181529455Y-195236185D01*
X182815170Y-196593328D02*
X182815170Y-195807614D01*
X182815170Y-195807614D02*
X182743741Y-195664757D01*
X182743741Y-195664757D02*
X182600884Y-195593328D01*
X182600884Y-195593328D02*
X182315170Y-195593328D01*
X182315170Y-195593328D02*
X182172312Y-195664757D01*
X182815170Y-196521900D02*
X182672312Y-196593328D01*
X182672312Y-196593328D02*
X182315170Y-196593328D01*
X182315170Y-196593328D02*
X182172312Y-196521900D01*
X182172312Y-196521900D02*
X182100884Y-196379042D01*
X182100884Y-196379042D02*
X182100884Y-196236185D01*
X182100884Y-196236185D02*
X182172312Y-196093328D01*
X182172312Y-196093328D02*
X182315170Y-196021900D01*
X182315170Y-196021900D02*
X182672312Y-196021900D01*
X182672312Y-196021900D02*
X182815170Y-195950471D01*
X184172313Y-196593328D02*
X184172313Y-195093328D01*
X184172313Y-196521900D02*
X184029455Y-196593328D01*
X184029455Y-196593328D02*
X183743741Y-196593328D01*
X183743741Y-196593328D02*
X183600884Y-196521900D01*
X183600884Y-196521900D02*
X183529455Y-196450471D01*
X183529455Y-196450471D02*
X183458027Y-196307614D01*
X183458027Y-196307614D02*
X183458027Y-195879042D01*
X183458027Y-195879042D02*
X183529455Y-195736185D01*
X183529455Y-195736185D02*
X183600884Y-195664757D01*
X183600884Y-195664757D02*
X183743741Y-195593328D01*
X183743741Y-195593328D02*
X184029455Y-195593328D01*
X184029455Y-195593328D02*
X184172313Y-195664757D01*
X186029455Y-195807614D02*
X186529455Y-195807614D01*
X186743741Y-196593328D02*
X186029455Y-196593328D01*
X186029455Y-196593328D02*
X186029455Y-195093328D01*
X186029455Y-195093328D02*
X186743741Y-195093328D01*
X187386598Y-196450471D02*
X187458027Y-196521900D01*
X187458027Y-196521900D02*
X187386598Y-196593328D01*
X187386598Y-196593328D02*
X187315170Y-196521900D01*
X187315170Y-196521900D02*
X187386598Y-196450471D01*
X187386598Y-196450471D02*
X187386598Y-196593328D01*
X188100884Y-196593328D02*
X188100884Y-195093328D01*
X188100884Y-195093328D02*
X188458027Y-195093328D01*
X188458027Y-195093328D02*
X188672313Y-195164757D01*
X188672313Y-195164757D02*
X188815170Y-195307614D01*
X188815170Y-195307614D02*
X188886599Y-195450471D01*
X188886599Y-195450471D02*
X188958027Y-195736185D01*
X188958027Y-195736185D02*
X188958027Y-195950471D01*
X188958027Y-195950471D02*
X188886599Y-196236185D01*
X188886599Y-196236185D02*
X188815170Y-196379042D01*
X188815170Y-196379042D02*
X188672313Y-196521900D01*
X188672313Y-196521900D02*
X188458027Y-196593328D01*
X188458027Y-196593328D02*
X188100884Y-196593328D01*
X189600884Y-196450471D02*
X189672313Y-196521900D01*
X189672313Y-196521900D02*
X189600884Y-196593328D01*
X189600884Y-196593328D02*
X189529456Y-196521900D01*
X189529456Y-196521900D02*
X189600884Y-196450471D01*
X189600884Y-196450471D02*
X189600884Y-196593328D01*
X190243742Y-196164757D02*
X190958028Y-196164757D01*
X190100885Y-196593328D02*
X190600885Y-195093328D01*
X190600885Y-195093328D02*
X191100885Y-196593328D01*
X191600884Y-196450471D02*
X191672313Y-196521900D01*
X191672313Y-196521900D02*
X191600884Y-196593328D01*
X191600884Y-196593328D02*
X191529456Y-196521900D01*
X191529456Y-196521900D02*
X191600884Y-196450471D01*
X191600884Y-196450471D02*
X191600884Y-196593328D01*
X193529456Y-196593328D02*
X193815170Y-196593328D01*
X193815170Y-196593328D02*
X193958027Y-196521900D01*
X193958027Y-196521900D02*
X194029456Y-196450471D01*
X194029456Y-196450471D02*
X194172313Y-196236185D01*
X194172313Y-196236185D02*
X194243742Y-195950471D01*
X194243742Y-195950471D02*
X194243742Y-195379042D01*
X194243742Y-195379042D02*
X194172313Y-195236185D01*
X194172313Y-195236185D02*
X194100885Y-195164757D01*
X194100885Y-195164757D02*
X193958027Y-195093328D01*
X193958027Y-195093328D02*
X193672313Y-195093328D01*
X193672313Y-195093328D02*
X193529456Y-195164757D01*
X193529456Y-195164757D02*
X193458027Y-195236185D01*
X193458027Y-195236185D02*
X193386599Y-195379042D01*
X193386599Y-195379042D02*
X193386599Y-195736185D01*
X193386599Y-195736185D02*
X193458027Y-195879042D01*
X193458027Y-195879042D02*
X193529456Y-195950471D01*
X193529456Y-195950471D02*
X193672313Y-196021900D01*
X193672313Y-196021900D02*
X193958027Y-196021900D01*
X193958027Y-196021900D02*
X194100885Y-195950471D01*
X194100885Y-195950471D02*
X194172313Y-195879042D01*
X194172313Y-195879042D02*
X194243742Y-195736185D01*
X194886598Y-196450471D02*
X194958027Y-196521900D01*
X194958027Y-196521900D02*
X194886598Y-196593328D01*
X194886598Y-196593328D02*
X194815170Y-196521900D01*
X194815170Y-196521900D02*
X194886598Y-196450471D01*
X194886598Y-196450471D02*
X194886598Y-196593328D01*
X195886599Y-195093328D02*
X196029456Y-195093328D01*
X196029456Y-195093328D02*
X196172313Y-195164757D01*
X196172313Y-195164757D02*
X196243742Y-195236185D01*
X196243742Y-195236185D02*
X196315170Y-195379042D01*
X196315170Y-195379042D02*
X196386599Y-195664757D01*
X196386599Y-195664757D02*
X196386599Y-196021900D01*
X196386599Y-196021900D02*
X196315170Y-196307614D01*
X196315170Y-196307614D02*
X196243742Y-196450471D01*
X196243742Y-196450471D02*
X196172313Y-196521900D01*
X196172313Y-196521900D02*
X196029456Y-196593328D01*
X196029456Y-196593328D02*
X195886599Y-196593328D01*
X195886599Y-196593328D02*
X195743742Y-196521900D01*
X195743742Y-196521900D02*
X195672313Y-196450471D01*
X195672313Y-196450471D02*
X195600884Y-196307614D01*
X195600884Y-196307614D02*
X195529456Y-196021900D01*
X195529456Y-196021900D02*
X195529456Y-195664757D01*
X195529456Y-195664757D02*
X195600884Y-195379042D01*
X195600884Y-195379042D02*
X195672313Y-195236185D01*
X195672313Y-195236185D02*
X195743742Y-195164757D01*
X195743742Y-195164757D02*
X195886599Y-195093328D01*
X197029455Y-196450471D02*
X197100884Y-196521900D01*
X197100884Y-196521900D02*
X197029455Y-196593328D01*
X197029455Y-196593328D02*
X196958027Y-196521900D01*
X196958027Y-196521900D02*
X197029455Y-196450471D01*
X197029455Y-196450471D02*
X197029455Y-196593328D01*
X197600884Y-195093328D02*
X198529456Y-195093328D01*
X198529456Y-195093328D02*
X198029456Y-195664757D01*
X198029456Y-195664757D02*
X198243741Y-195664757D01*
X198243741Y-195664757D02*
X198386599Y-195736185D01*
X198386599Y-195736185D02*
X198458027Y-195807614D01*
X198458027Y-195807614D02*
X198529456Y-195950471D01*
X198529456Y-195950471D02*
X198529456Y-196307614D01*
X198529456Y-196307614D02*
X198458027Y-196450471D01*
X198458027Y-196450471D02*
X198386599Y-196521900D01*
X198386599Y-196521900D02*
X198243741Y-196593328D01*
X198243741Y-196593328D02*
X197815170Y-196593328D01*
X197815170Y-196593328D02*
X197672313Y-196521900D01*
X197672313Y-196521900D02*
X197600884Y-196450471D01*
D10*
D11*
X177002200Y-191507200D02*
X285002200Y-191507200D01*
D10*
D12*
X264413853Y-193785528D02*
X263913853Y-193071242D01*
X263556710Y-193785528D02*
X263556710Y-192285528D01*
X263556710Y-192285528D02*
X264128139Y-192285528D01*
X264128139Y-192285528D02*
X264270996Y-192356957D01*
X264270996Y-192356957D02*
X264342425Y-192428385D01*
X264342425Y-192428385D02*
X264413853Y-192571242D01*
X264413853Y-192571242D02*
X264413853Y-192785528D01*
X264413853Y-192785528D02*
X264342425Y-192928385D01*
X264342425Y-192928385D02*
X264270996Y-192999814D01*
X264270996Y-192999814D02*
X264128139Y-193071242D01*
X264128139Y-193071242D02*
X263556710Y-193071242D01*
X265628139Y-193714100D02*
X265485282Y-193785528D01*
X265485282Y-193785528D02*
X265199568Y-193785528D01*
X265199568Y-193785528D02*
X265056710Y-193714100D01*
X265056710Y-193714100D02*
X264985282Y-193571242D01*
X264985282Y-193571242D02*
X264985282Y-192999814D01*
X264985282Y-192999814D02*
X265056710Y-192856957D01*
X265056710Y-192856957D02*
X265199568Y-192785528D01*
X265199568Y-192785528D02*
X265485282Y-192785528D01*
X265485282Y-192785528D02*
X265628139Y-192856957D01*
X265628139Y-192856957D02*
X265699568Y-192999814D01*
X265699568Y-192999814D02*
X265699568Y-193142671D01*
X265699568Y-193142671D02*
X264985282Y-193285528D01*
X266199567Y-192785528D02*
X266556710Y-193785528D01*
X266556710Y-193785528D02*
X266913853Y-192785528D01*
X267485281Y-193642671D02*
X267556710Y-193714100D01*
X267556710Y-193714100D02*
X267485281Y-193785528D01*
X267485281Y-193785528D02*
X267413853Y-193714100D01*
X267413853Y-193714100D02*
X267485281Y-193642671D01*
X267485281Y-193642671D02*
X267485281Y-193785528D01*
X267485281Y-192856957D02*
X267556710Y-192928385D01*
X267556710Y-192928385D02*
X267485281Y-192999814D01*
X267485281Y-192999814D02*
X267413853Y-192928385D01*
X267413853Y-192928385D02*
X267485281Y-192856957D01*
X267485281Y-192856957D02*
X267485281Y-192999814D01*
D10*
D11*
X178386598Y-193721900D02*
X178600884Y-193793328D01*
X178600884Y-193793328D02*
X178958026Y-193793328D01*
X178958026Y-193793328D02*
X179100884Y-193721900D01*
X179100884Y-193721900D02*
X179172312Y-193650471D01*
X179172312Y-193650471D02*
X179243741Y-193507614D01*
X179243741Y-193507614D02*
X179243741Y-193364757D01*
X179243741Y-193364757D02*
X179172312Y-193221900D01*
X179172312Y-193221900D02*
X179100884Y-193150471D01*
X179100884Y-193150471D02*
X178958026Y-193079042D01*
X178958026Y-193079042D02*
X178672312Y-193007614D01*
X178672312Y-193007614D02*
X178529455Y-192936185D01*
X178529455Y-192936185D02*
X178458026Y-192864757D01*
X178458026Y-192864757D02*
X178386598Y-192721900D01*
X178386598Y-192721900D02*
X178386598Y-192579042D01*
X178386598Y-192579042D02*
X178458026Y-192436185D01*
X178458026Y-192436185D02*
X178529455Y-192364757D01*
X178529455Y-192364757D02*
X178672312Y-192293328D01*
X178672312Y-192293328D02*
X179029455Y-192293328D01*
X179029455Y-192293328D02*
X179243741Y-192364757D01*
X179886597Y-193793328D02*
X179886597Y-192793328D01*
X179886597Y-192293328D02*
X179815169Y-192364757D01*
X179815169Y-192364757D02*
X179886597Y-192436185D01*
X179886597Y-192436185D02*
X179958026Y-192364757D01*
X179958026Y-192364757D02*
X179886597Y-192293328D01*
X179886597Y-192293328D02*
X179886597Y-192436185D01*
X180458026Y-192793328D02*
X181243741Y-192793328D01*
X181243741Y-192793328D02*
X180458026Y-193793328D01*
X180458026Y-193793328D02*
X181243741Y-193793328D01*
X182386598Y-193721900D02*
X182243741Y-193793328D01*
X182243741Y-193793328D02*
X181958027Y-193793328D01*
X181958027Y-193793328D02*
X181815169Y-193721900D01*
X181815169Y-193721900D02*
X181743741Y-193579042D01*
X181743741Y-193579042D02*
X181743741Y-193007614D01*
X181743741Y-193007614D02*
X181815169Y-192864757D01*
X181815169Y-192864757D02*
X181958027Y-192793328D01*
X181958027Y-192793328D02*
X182243741Y-192793328D01*
X182243741Y-192793328D02*
X182386598Y-192864757D01*
X182386598Y-192864757D02*
X182458027Y-193007614D01*
X182458027Y-193007614D02*
X182458027Y-193150471D01*
X182458027Y-193150471D02*
X181743741Y-193293328D01*
X183100883Y-193650471D02*
X183172312Y-193721900D01*
X183172312Y-193721900D02*
X183100883Y-193793328D01*
X183100883Y-193793328D02*
X183029455Y-193721900D01*
X183029455Y-193721900D02*
X183100883Y-193650471D01*
X183100883Y-193650471D02*
X183100883Y-193793328D01*
X183100883Y-192864757D02*
X183172312Y-192936185D01*
X183172312Y-192936185D02*
X183100883Y-193007614D01*
X183100883Y-193007614D02*
X183029455Y-192936185D01*
X183029455Y-192936185D02*
X183100883Y-192864757D01*
X183100883Y-192864757D02*
X183100883Y-193007614D01*
X184886598Y-193364757D02*
X185600884Y-193364757D01*
X184743741Y-193793328D02*
X185243741Y-192293328D01*
X185243741Y-192293328D02*
X185743741Y-193793328D01*
X186886598Y-192793328D02*
X186886598Y-193793328D01*
X186529455Y-192221900D02*
X186172312Y-193293328D01*
X186172312Y-193293328D02*
X187100883Y-193293328D01*
D10*
D11*
X263458026Y-196593328D02*
X263458026Y-195093328D01*
X264815170Y-196593328D02*
X264815170Y-195093328D01*
X264815170Y-196521900D02*
X264672312Y-196593328D01*
X264672312Y-196593328D02*
X264386598Y-196593328D01*
X264386598Y-196593328D02*
X264243741Y-196521900D01*
X264243741Y-196521900D02*
X264172312Y-196450471D01*
X264172312Y-196450471D02*
X264100884Y-196307614D01*
X264100884Y-196307614D02*
X264100884Y-195879042D01*
X264100884Y-195879042D02*
X264172312Y-195736185D01*
X264172312Y-195736185D02*
X264243741Y-195664757D01*
X264243741Y-195664757D02*
X264386598Y-195593328D01*
X264386598Y-195593328D02*
X264672312Y-195593328D01*
X264672312Y-195593328D02*
X264815170Y-195664757D01*
X265529455Y-196450471D02*
X265600884Y-196521900D01*
X265600884Y-196521900D02*
X265529455Y-196593328D01*
X265529455Y-196593328D02*
X265458027Y-196521900D01*
X265458027Y-196521900D02*
X265529455Y-196450471D01*
X265529455Y-196450471D02*
X265529455Y-196593328D01*
X265529455Y-195664757D02*
X265600884Y-195736185D01*
X265600884Y-195736185D02*
X265529455Y-195807614D01*
X265529455Y-195807614D02*
X265458027Y-195736185D01*
X265458027Y-195736185D02*
X265529455Y-195664757D01*
X265529455Y-195664757D02*
X265529455Y-195807614D01*
X268100884Y-195093328D02*
X267386598Y-195093328D01*
X267386598Y-195093328D02*
X267315170Y-195807614D01*
X267315170Y-195807614D02*
X267386598Y-195736185D01*
X267386598Y-195736185D02*
X267529456Y-195664757D01*
X267529456Y-195664757D02*
X267886598Y-195664757D01*
X267886598Y-195664757D02*
X268029456Y-195736185D01*
X268029456Y-195736185D02*
X268100884Y-195807614D01*
X268100884Y-195807614D02*
X268172313Y-195950471D01*
X268172313Y-195950471D02*
X268172313Y-196307614D01*
X268172313Y-196307614D02*
X268100884Y-196450471D01*
X268100884Y-196450471D02*
X268029456Y-196521900D01*
X268029456Y-196521900D02*
X267886598Y-196593328D01*
X267886598Y-196593328D02*
X267529456Y-196593328D01*
X267529456Y-196593328D02*
X267386598Y-196521900D01*
X267386598Y-196521900D02*
X267315170Y-196450471D01*
X269886598Y-195021900D02*
X268600884Y-196950471D01*
X270458027Y-196593328D02*
X270743741Y-196593328D01*
X270743741Y-196593328D02*
X270886598Y-196521900D01*
X270886598Y-196521900D02*
X270958027Y-196450471D01*
X270958027Y-196450471D02*
X271100884Y-196236185D01*
X271100884Y-196236185D02*
X271172313Y-195950471D01*
X271172313Y-195950471D02*
X271172313Y-195379042D01*
X271172313Y-195379042D02*
X271100884Y-195236185D01*
X271100884Y-195236185D02*
X271029456Y-195164757D01*
X271029456Y-195164757D02*
X270886598Y-195093328D01*
X270886598Y-195093328D02*
X270600884Y-195093328D01*
X270600884Y-195093328D02*
X270458027Y-195164757D01*
X270458027Y-195164757D02*
X270386598Y-195236185D01*
X270386598Y-195236185D02*
X270315170Y-195379042D01*
X270315170Y-195379042D02*
X270315170Y-195736185D01*
X270315170Y-195736185D02*
X270386598Y-195879042D01*
X270386598Y-195879042D02*
X270458027Y-195950471D01*
X270458027Y-195950471D02*
X270600884Y-196021900D01*
X270600884Y-196021900D02*
X270886598Y-196021900D01*
X270886598Y-196021900D02*
X271029456Y-195950471D01*
X271029456Y-195950471D02*
X271100884Y-195879042D01*
X271100884Y-195879042D02*
X271172313Y-195736185D01*
D10*
D11*
X177002200Y-187507200D02*
X285002200Y-187507200D01*
D10*
D13*
X178693928Y-188211638D02*
X179836785Y-188211638D01*
X179015357Y-190211638D02*
X179265357Y-188211638D01*
X180253452Y-190211638D02*
X180420119Y-188878304D01*
X180503452Y-188211638D02*
X180396309Y-188306876D01*
X180396309Y-188306876D02*
X180479643Y-188402114D01*
X180479643Y-188402114D02*
X180586786Y-188306876D01*
X180586786Y-188306876D02*
X180503452Y-188211638D01*
X180503452Y-188211638D02*
X180479643Y-188402114D01*
X181086786Y-188878304D02*
X181848690Y-188878304D01*
X181455833Y-188211638D02*
X181241548Y-189925923D01*
X181241548Y-189925923D02*
X181312976Y-190116400D01*
X181312976Y-190116400D02*
X181491548Y-190211638D01*
X181491548Y-190211638D02*
X181682024Y-190211638D01*
X182634405Y-190211638D02*
X182455833Y-190116400D01*
X182455833Y-190116400D02*
X182384405Y-189925923D01*
X182384405Y-189925923D02*
X182598690Y-188211638D01*
X184170119Y-190116400D02*
X183967738Y-190211638D01*
X183967738Y-190211638D02*
X183586785Y-190211638D01*
X183586785Y-190211638D02*
X183408214Y-190116400D01*
X183408214Y-190116400D02*
X183336785Y-189925923D01*
X183336785Y-189925923D02*
X183432024Y-189164019D01*
X183432024Y-189164019D02*
X183551071Y-188973542D01*
X183551071Y-188973542D02*
X183753452Y-188878304D01*
X183753452Y-188878304D02*
X184134404Y-188878304D01*
X184134404Y-188878304D02*
X184312976Y-188973542D01*
X184312976Y-188973542D02*
X184384404Y-189164019D01*
X184384404Y-189164019D02*
X184360595Y-189354495D01*
X184360595Y-189354495D02*
X183384404Y-189544971D01*
X185134405Y-190021161D02*
X185217738Y-190116400D01*
X185217738Y-190116400D02*
X185110595Y-190211638D01*
X185110595Y-190211638D02*
X185027262Y-190116400D01*
X185027262Y-190116400D02*
X185134405Y-190021161D01*
X185134405Y-190021161D02*
X185110595Y-190211638D01*
X185265357Y-188973542D02*
X185348690Y-189068780D01*
X185348690Y-189068780D02*
X185241548Y-189164019D01*
X185241548Y-189164019D02*
X185158214Y-189068780D01*
X185158214Y-189068780D02*
X185265357Y-188973542D01*
X185265357Y-188973542D02*
X185241548Y-189164019D01*
D10*
D11*
X178958026Y-185607614D02*
X178458026Y-185607614D01*
X178458026Y-186393328D02*
X178458026Y-184893328D01*
X178458026Y-184893328D02*
X179172312Y-184893328D01*
X179743740Y-186393328D02*
X179743740Y-185393328D01*
X179743740Y-184893328D02*
X179672312Y-184964757D01*
X179672312Y-184964757D02*
X179743740Y-185036185D01*
X179743740Y-185036185D02*
X179815169Y-184964757D01*
X179815169Y-184964757D02*
X179743740Y-184893328D01*
X179743740Y-184893328D02*
X179743740Y-185036185D01*
X180672312Y-186393328D02*
X180529455Y-186321900D01*
X180529455Y-186321900D02*
X180458026Y-186179042D01*
X180458026Y-186179042D02*
X180458026Y-184893328D01*
X181815169Y-186321900D02*
X181672312Y-186393328D01*
X181672312Y-186393328D02*
X181386598Y-186393328D01*
X181386598Y-186393328D02*
X181243740Y-186321900D01*
X181243740Y-186321900D02*
X181172312Y-186179042D01*
X181172312Y-186179042D02*
X181172312Y-185607614D01*
X181172312Y-185607614D02*
X181243740Y-185464757D01*
X181243740Y-185464757D02*
X181386598Y-185393328D01*
X181386598Y-185393328D02*
X181672312Y-185393328D01*
X181672312Y-185393328D02*
X181815169Y-185464757D01*
X181815169Y-185464757D02*
X181886598Y-185607614D01*
X181886598Y-185607614D02*
X181886598Y-185750471D01*
X181886598Y-185750471D02*
X181172312Y-185893328D01*
X182529454Y-186250471D02*
X182600883Y-186321900D01*
X182600883Y-186321900D02*
X182529454Y-186393328D01*
X182529454Y-186393328D02*
X182458026Y-186321900D01*
X182458026Y-186321900D02*
X182529454Y-186250471D01*
X182529454Y-186250471D02*
X182529454Y-186393328D01*
X182529454Y-185464757D02*
X182600883Y-185536185D01*
X182600883Y-185536185D02*
X182529454Y-185607614D01*
X182529454Y-185607614D02*
X182458026Y-185536185D01*
X182458026Y-185536185D02*
X182529454Y-185464757D01*
X182529454Y-185464757D02*
X182529454Y-185607614D01*
X184815169Y-184893328D02*
X184815169Y-185964757D01*
X184815169Y-185964757D02*
X184743740Y-186179042D01*
X184743740Y-186179042D02*
X184600883Y-186321900D01*
X184600883Y-186321900D02*
X184386597Y-186393328D01*
X184386597Y-186393328D02*
X184243740Y-186393328D01*
X185743740Y-186393328D02*
X185600883Y-186321900D01*
X185600883Y-186321900D02*
X185529454Y-186250471D01*
X185529454Y-186250471D02*
X185458026Y-186107614D01*
X185458026Y-186107614D02*
X185458026Y-185679042D01*
X185458026Y-185679042D02*
X185529454Y-185536185D01*
X185529454Y-185536185D02*
X185600883Y-185464757D01*
X185600883Y-185464757D02*
X185743740Y-185393328D01*
X185743740Y-185393328D02*
X185958026Y-185393328D01*
X185958026Y-185393328D02*
X186100883Y-185464757D01*
X186100883Y-185464757D02*
X186172312Y-185536185D01*
X186172312Y-185536185D02*
X186243740Y-185679042D01*
X186243740Y-185679042D02*
X186243740Y-186107614D01*
X186243740Y-186107614D02*
X186172312Y-186250471D01*
X186172312Y-186250471D02*
X186100883Y-186321900D01*
X186100883Y-186321900D02*
X185958026Y-186393328D01*
X185958026Y-186393328D02*
X185743740Y-186393328D01*
X186886597Y-186393328D02*
X186886597Y-185393328D01*
X186886597Y-185679042D02*
X186958026Y-185536185D01*
X186958026Y-185536185D02*
X187029455Y-185464757D01*
X187029455Y-185464757D02*
X187172312Y-185393328D01*
X187172312Y-185393328D02*
X187315169Y-185393328D01*
X188458026Y-185393328D02*
X188458026Y-186607614D01*
X188458026Y-186607614D02*
X188386597Y-186750471D01*
X188386597Y-186750471D02*
X188315168Y-186821900D01*
X188315168Y-186821900D02*
X188172311Y-186893328D01*
X188172311Y-186893328D02*
X187958026Y-186893328D01*
X187958026Y-186893328D02*
X187815168Y-186821900D01*
X188458026Y-186321900D02*
X188315168Y-186393328D01*
X188315168Y-186393328D02*
X188029454Y-186393328D01*
X188029454Y-186393328D02*
X187886597Y-186321900D01*
X187886597Y-186321900D02*
X187815168Y-186250471D01*
X187815168Y-186250471D02*
X187743740Y-186107614D01*
X187743740Y-186107614D02*
X187743740Y-185679042D01*
X187743740Y-185679042D02*
X187815168Y-185536185D01*
X187815168Y-185536185D02*
X187886597Y-185464757D01*
X187886597Y-185464757D02*
X188029454Y-185393328D01*
X188029454Y-185393328D02*
X188315168Y-185393328D01*
X188315168Y-185393328D02*
X188458026Y-185464757D01*
X189743740Y-186321900D02*
X189600883Y-186393328D01*
X189600883Y-186393328D02*
X189315169Y-186393328D01*
X189315169Y-186393328D02*
X189172311Y-186321900D01*
X189172311Y-186321900D02*
X189100883Y-186179042D01*
X189100883Y-186179042D02*
X189100883Y-185607614D01*
X189100883Y-185607614D02*
X189172311Y-185464757D01*
X189172311Y-185464757D02*
X189315169Y-185393328D01*
X189315169Y-185393328D02*
X189600883Y-185393328D01*
X189600883Y-185393328D02*
X189743740Y-185464757D01*
X189743740Y-185464757D02*
X189815169Y-185607614D01*
X189815169Y-185607614D02*
X189815169Y-185750471D01*
X189815169Y-185750471D02*
X189100883Y-185893328D01*
X190458025Y-186250471D02*
X190529454Y-186321900D01*
X190529454Y-186321900D02*
X190458025Y-186393328D01*
X190458025Y-186393328D02*
X190386597Y-186321900D01*
X190386597Y-186321900D02*
X190458025Y-186250471D01*
X190458025Y-186250471D02*
X190458025Y-186393328D01*
X191172311Y-186393328D02*
X191172311Y-184893328D01*
X191315169Y-185821900D02*
X191743740Y-186393328D01*
X191743740Y-185393328D02*
X191172311Y-185964757D01*
X192386597Y-186393328D02*
X192386597Y-185393328D01*
X192386597Y-184893328D02*
X192315169Y-184964757D01*
X192315169Y-184964757D02*
X192386597Y-185036185D01*
X192386597Y-185036185D02*
X192458026Y-184964757D01*
X192458026Y-184964757D02*
X192386597Y-184893328D01*
X192386597Y-184893328D02*
X192386597Y-185036185D01*
X193743741Y-186321900D02*
X193600883Y-186393328D01*
X193600883Y-186393328D02*
X193315169Y-186393328D01*
X193315169Y-186393328D02*
X193172312Y-186321900D01*
X193172312Y-186321900D02*
X193100883Y-186250471D01*
X193100883Y-186250471D02*
X193029455Y-186107614D01*
X193029455Y-186107614D02*
X193029455Y-185679042D01*
X193029455Y-185679042D02*
X193100883Y-185536185D01*
X193100883Y-185536185D02*
X193172312Y-185464757D01*
X193172312Y-185464757D02*
X193315169Y-185393328D01*
X193315169Y-185393328D02*
X193600883Y-185393328D01*
X193600883Y-185393328D02*
X193743741Y-185464757D01*
X195029455Y-186393328D02*
X195029455Y-185607614D01*
X195029455Y-185607614D02*
X194958026Y-185464757D01*
X194958026Y-185464757D02*
X194815169Y-185393328D01*
X194815169Y-185393328D02*
X194529455Y-185393328D01*
X194529455Y-185393328D02*
X194386597Y-185464757D01*
X195029455Y-186321900D02*
X194886597Y-186393328D01*
X194886597Y-186393328D02*
X194529455Y-186393328D01*
X194529455Y-186393328D02*
X194386597Y-186321900D01*
X194386597Y-186321900D02*
X194315169Y-186179042D01*
X194315169Y-186179042D02*
X194315169Y-186036185D01*
X194315169Y-186036185D02*
X194386597Y-185893328D01*
X194386597Y-185893328D02*
X194529455Y-185821900D01*
X194529455Y-185821900D02*
X194886597Y-185821900D01*
X194886597Y-185821900D02*
X195029455Y-185750471D01*
X196386598Y-186393328D02*
X196386598Y-184893328D01*
X196386598Y-186321900D02*
X196243740Y-186393328D01*
X196243740Y-186393328D02*
X195958026Y-186393328D01*
X195958026Y-186393328D02*
X195815169Y-186321900D01*
X195815169Y-186321900D02*
X195743740Y-186250471D01*
X195743740Y-186250471D02*
X195672312Y-186107614D01*
X195672312Y-186107614D02*
X195672312Y-185679042D01*
X195672312Y-185679042D02*
X195743740Y-185536185D01*
X195743740Y-185536185D02*
X195815169Y-185464757D01*
X195815169Y-185464757D02*
X195958026Y-185393328D01*
X195958026Y-185393328D02*
X196243740Y-185393328D01*
X196243740Y-185393328D02*
X196386598Y-185464757D01*
X196743741Y-186536185D02*
X197886598Y-186536185D01*
X198243740Y-185393328D02*
X198243740Y-186893328D01*
X198243740Y-185464757D02*
X198386598Y-185393328D01*
X198386598Y-185393328D02*
X198672312Y-185393328D01*
X198672312Y-185393328D02*
X198815169Y-185464757D01*
X198815169Y-185464757D02*
X198886598Y-185536185D01*
X198886598Y-185536185D02*
X198958026Y-185679042D01*
X198958026Y-185679042D02*
X198958026Y-186107614D01*
X198958026Y-186107614D02*
X198886598Y-186250471D01*
X198886598Y-186250471D02*
X198815169Y-186321900D01*
X198815169Y-186321900D02*
X198672312Y-186393328D01*
X198672312Y-186393328D02*
X198386598Y-186393328D01*
X198386598Y-186393328D02*
X198243740Y-186321900D01*
X200243741Y-186321900D02*
X200100883Y-186393328D01*
X200100883Y-186393328D02*
X199815169Y-186393328D01*
X199815169Y-186393328D02*
X199672312Y-186321900D01*
X199672312Y-186321900D02*
X199600883Y-186250471D01*
X199600883Y-186250471D02*
X199529455Y-186107614D01*
X199529455Y-186107614D02*
X199529455Y-185679042D01*
X199529455Y-185679042D02*
X199600883Y-185536185D01*
X199600883Y-185536185D02*
X199672312Y-185464757D01*
X199672312Y-185464757D02*
X199815169Y-185393328D01*
X199815169Y-185393328D02*
X200100883Y-185393328D01*
X200100883Y-185393328D02*
X200243741Y-185464757D01*
X200886597Y-186393328D02*
X200886597Y-184893328D01*
X200886597Y-185464757D02*
X201029455Y-185393328D01*
X201029455Y-185393328D02*
X201315169Y-185393328D01*
X201315169Y-185393328D02*
X201458026Y-185464757D01*
X201458026Y-185464757D02*
X201529455Y-185536185D01*
X201529455Y-185536185D02*
X201600883Y-185679042D01*
X201600883Y-185679042D02*
X201600883Y-186107614D01*
X201600883Y-186107614D02*
X201529455Y-186250471D01*
X201529455Y-186250471D02*
X201458026Y-186321900D01*
X201458026Y-186321900D02*
X201315169Y-186393328D01*
X201315169Y-186393328D02*
X201029455Y-186393328D01*
X201029455Y-186393328D02*
X200886597Y-186321900D01*
D10*
D11*
X177002200Y-181507200D02*
X285002200Y-181507200D01*
D10*
D11*
X178386598Y-183621900D02*
X178600884Y-183693328D01*
X178600884Y-183693328D02*
X178958026Y-183693328D01*
X178958026Y-183693328D02*
X179100884Y-183621900D01*
X179100884Y-183621900D02*
X179172312Y-183550471D01*
X179172312Y-183550471D02*
X179243741Y-183407614D01*
X179243741Y-183407614D02*
X179243741Y-183264757D01*
X179243741Y-183264757D02*
X179172312Y-183121900D01*
X179172312Y-183121900D02*
X179100884Y-183050471D01*
X179100884Y-183050471D02*
X178958026Y-182979042D01*
X178958026Y-182979042D02*
X178672312Y-182907614D01*
X178672312Y-182907614D02*
X178529455Y-182836185D01*
X178529455Y-182836185D02*
X178458026Y-182764757D01*
X178458026Y-182764757D02*
X178386598Y-182621900D01*
X178386598Y-182621900D02*
X178386598Y-182479042D01*
X178386598Y-182479042D02*
X178458026Y-182336185D01*
X178458026Y-182336185D02*
X178529455Y-182264757D01*
X178529455Y-182264757D02*
X178672312Y-182193328D01*
X178672312Y-182193328D02*
X179029455Y-182193328D01*
X179029455Y-182193328D02*
X179243741Y-182264757D01*
X179886597Y-183693328D02*
X179886597Y-182193328D01*
X180529455Y-183693328D02*
X180529455Y-182907614D01*
X180529455Y-182907614D02*
X180458026Y-182764757D01*
X180458026Y-182764757D02*
X180315169Y-182693328D01*
X180315169Y-182693328D02*
X180100883Y-182693328D01*
X180100883Y-182693328D02*
X179958026Y-182764757D01*
X179958026Y-182764757D02*
X179886597Y-182836185D01*
X181815169Y-183621900D02*
X181672312Y-183693328D01*
X181672312Y-183693328D02*
X181386598Y-183693328D01*
X181386598Y-183693328D02*
X181243740Y-183621900D01*
X181243740Y-183621900D02*
X181172312Y-183479042D01*
X181172312Y-183479042D02*
X181172312Y-182907614D01*
X181172312Y-182907614D02*
X181243740Y-182764757D01*
X181243740Y-182764757D02*
X181386598Y-182693328D01*
X181386598Y-182693328D02*
X181672312Y-182693328D01*
X181672312Y-182693328D02*
X181815169Y-182764757D01*
X181815169Y-182764757D02*
X181886598Y-182907614D01*
X181886598Y-182907614D02*
X181886598Y-183050471D01*
X181886598Y-183050471D02*
X181172312Y-183193328D01*
X183100883Y-183621900D02*
X182958026Y-183693328D01*
X182958026Y-183693328D02*
X182672312Y-183693328D01*
X182672312Y-183693328D02*
X182529454Y-183621900D01*
X182529454Y-183621900D02*
X182458026Y-183479042D01*
X182458026Y-183479042D02*
X182458026Y-182907614D01*
X182458026Y-182907614D02*
X182529454Y-182764757D01*
X182529454Y-182764757D02*
X182672312Y-182693328D01*
X182672312Y-182693328D02*
X182958026Y-182693328D01*
X182958026Y-182693328D02*
X183100883Y-182764757D01*
X183100883Y-182764757D02*
X183172312Y-182907614D01*
X183172312Y-182907614D02*
X183172312Y-183050471D01*
X183172312Y-183050471D02*
X182458026Y-183193328D01*
X183600883Y-182693328D02*
X184172311Y-182693328D01*
X183815168Y-182193328D02*
X183815168Y-183479042D01*
X183815168Y-183479042D02*
X183886597Y-183621900D01*
X183886597Y-183621900D02*
X184029454Y-183693328D01*
X184029454Y-183693328D02*
X184172311Y-183693328D01*
X184672311Y-183550471D02*
X184743740Y-183621900D01*
X184743740Y-183621900D02*
X184672311Y-183693328D01*
X184672311Y-183693328D02*
X184600883Y-183621900D01*
X184600883Y-183621900D02*
X184672311Y-183550471D01*
X184672311Y-183550471D02*
X184672311Y-183693328D01*
X184672311Y-182764757D02*
X184743740Y-182836185D01*
X184743740Y-182836185D02*
X184672311Y-182907614D01*
X184672311Y-182907614D02*
X184600883Y-182836185D01*
X184600883Y-182836185D02*
X184672311Y-182764757D01*
X184672311Y-182764757D02*
X184672311Y-182907614D01*
D10*
D11*
X197002200Y-191507200D02*
X197002200Y-194507200D01*
D10*
D11*
X261002200Y-191507200D02*
X261002200Y-198007200D01*
D14*
G36*
X174877779Y-34883671D02*
G01*
X174888774Y-34884377D01*
X174899858Y-34885499D01*
X174910921Y-34887033D01*
X174921854Y-34888973D01*
X174932547Y-34891315D01*
X174942891Y-34894052D01*
X174952776Y-34897179D01*
X174962093Y-34900692D01*
X174978415Y-34908048D01*
X174996790Y-34917305D01*
X175016975Y-34928295D01*
X175038723Y-34940854D01*
X175085930Y-34970009D01*
X175136453Y-35003439D01*
X175188332Y-35039812D01*
X175239608Y-35077798D01*
X175288320Y-35116065D01*
X175332509Y-35153282D01*
X175353171Y-35171879D01*
X175372588Y-35190147D01*
X175390807Y-35208149D01*
X175407872Y-35225954D01*
X175423829Y-35243626D01*
X175438723Y-35261231D01*
X175452601Y-35278837D01*
X175465507Y-35296509D01*
X175477487Y-35314313D01*
X175488586Y-35332316D01*
X175498851Y-35350583D01*
X175508325Y-35369181D01*
X175517056Y-35388176D01*
X175525088Y-35407634D01*
X175532467Y-35427621D01*
X175539238Y-35448204D01*
X175543330Y-35463180D01*
X175546879Y-35480171D01*
X175549883Y-35498945D01*
X175552345Y-35519266D01*
X175554266Y-35540903D01*
X175555646Y-35563620D01*
X175556788Y-35611363D01*
X175555781Y-35660628D01*
X175554473Y-35685247D01*
X175552632Y-35709546D01*
X175550257Y-35733291D01*
X175547350Y-35756248D01*
X175543911Y-35778184D01*
X175539943Y-35798865D01*
X175532853Y-35829656D01*
X175525030Y-35859953D01*
X175516400Y-35889907D01*
X175506892Y-35919669D01*
X175496433Y-35949390D01*
X175484951Y-35979220D01*
X175472373Y-36009310D01*
X175458628Y-36039812D01*
X175443642Y-36070876D01*
X175427343Y-36102653D01*
X175409660Y-36135295D01*
X175390520Y-36168951D01*
X175347577Y-36239911D01*
X175297938Y-36316743D01*
X175267983Y-36362181D01*
X175255604Y-36381134D01*
X175244833Y-36397804D01*
X175235580Y-36412362D01*
X175227753Y-36424978D01*
X175224344Y-36430611D01*
X175221258Y-36435822D01*
X175218482Y-36440633D01*
X175216005Y-36445065D01*
X175213815Y-36449140D01*
X175211901Y-36452878D01*
X175210251Y-36456302D01*
X175208854Y-36459431D01*
X175207699Y-36462289D01*
X175206773Y-36464895D01*
X175206065Y-36467272D01*
X175205565Y-36469440D01*
X175205260Y-36471421D01*
X175205138Y-36473237D01*
X175205189Y-36474908D01*
X175205401Y-36476456D01*
X175205762Y-36477902D01*
X175206261Y-36479268D01*
X175206886Y-36480574D01*
X175207627Y-36481843D01*
X175211700Y-36487910D01*
X175220370Y-36499823D01*
X175249254Y-36538375D01*
X175337448Y-36654704D01*
X175456290Y-36811954D01*
X175571693Y-36968146D01*
X175664870Y-37097616D01*
X175697254Y-37144309D01*
X175717037Y-37174698D01*
X175722593Y-37184223D01*
X175728547Y-37195071D01*
X175734698Y-37206845D01*
X175740850Y-37219148D01*
X175746803Y-37231584D01*
X175752359Y-37243754D01*
X175757320Y-37255264D01*
X175761488Y-37265715D01*
X175766027Y-37278846D01*
X175769854Y-37292315D01*
X175772967Y-37306129D01*
X175775367Y-37320296D01*
X175777051Y-37334822D01*
X175778020Y-37349716D01*
X175778271Y-37364983D01*
X175777803Y-37380632D01*
X175776617Y-37396669D01*
X175774710Y-37413103D01*
X175772081Y-37429939D01*
X175768730Y-37447186D01*
X175764656Y-37464850D01*
X175759857Y-37482939D01*
X175754333Y-37501460D01*
X175748082Y-37520420D01*
X175740654Y-37541240D01*
X175733060Y-37561232D01*
X175725307Y-37580390D01*
X175717401Y-37598708D01*
X175709351Y-37616179D01*
X175701164Y-37632799D01*
X175692846Y-37648562D01*
X175684405Y-37663461D01*
X175675849Y-37677490D01*
X175667184Y-37690645D01*
X175658418Y-37702919D01*
X175649558Y-37714306D01*
X175640611Y-37724801D01*
X175631584Y-37734397D01*
X175622485Y-37743090D01*
X175613321Y-37750872D01*
X175604099Y-37757739D01*
X175594826Y-37763685D01*
X175585510Y-37768703D01*
X175576158Y-37772787D01*
X175566777Y-37775933D01*
X175557374Y-37778134D01*
X175547956Y-37779385D01*
X175538532Y-37779679D01*
X175529107Y-37779011D01*
X175519690Y-37777375D01*
X175510287Y-37774765D01*
X175500906Y-37771175D01*
X175491554Y-37766600D01*
X175482238Y-37761034D01*
X175472965Y-37754470D01*
X175463743Y-37746904D01*
X175456851Y-37739703D01*
X175446578Y-37727534D01*
X175433444Y-37711048D01*
X175417970Y-37690900D01*
X175400677Y-37667742D01*
X175382086Y-37642228D01*
X175362717Y-37615010D01*
X175343093Y-37586743D01*
X175221528Y-37413837D01*
X175097648Y-37242255D01*
X174938975Y-37027546D01*
X174713032Y-36725259D01*
X174453387Y-36379272D01*
X174331326Y-36215848D01*
X174328823Y-36212453D01*
X174326350Y-36209156D01*
X174323920Y-36205976D01*
X174321548Y-36202928D01*
X174319245Y-36200028D01*
X174317026Y-36197294D01*
X174314905Y-36194742D01*
X174312893Y-36192388D01*
X174311006Y-36190249D01*
X174309257Y-36188342D01*
X174307658Y-36186683D01*
X174306224Y-36185288D01*
X174304967Y-36184175D01*
X174303902Y-36183359D01*
X174303445Y-36183068D01*
X174303041Y-36182858D01*
X174302692Y-36182730D01*
X174302399Y-36182687D01*
X174301382Y-36182910D01*
X174300063Y-36183696D01*
X174296578Y-36186858D01*
X174292067Y-36191978D01*
X174286656Y-36198860D01*
X174273625Y-36217128D01*
X174258478Y-36240101D01*
X174242206Y-36266217D01*
X174225802Y-36293911D01*
X174210257Y-36321622D01*
X174196565Y-36347787D01*
X174183777Y-36373755D01*
X174172112Y-36398834D01*
X174161536Y-36423158D01*
X174152016Y-36446863D01*
X174143517Y-36470084D01*
X174136004Y-36492956D01*
X174129445Y-36515616D01*
X174123805Y-36538199D01*
X174119049Y-36560839D01*
X174115144Y-36583673D01*
X174112055Y-36606835D01*
X174109749Y-36630461D01*
X174108191Y-36654687D01*
X174107347Y-36679647D01*
X174107183Y-36705478D01*
X174107665Y-36732315D01*
X174109066Y-36761277D01*
X174111234Y-36788263D01*
X174114291Y-36813513D01*
X174118359Y-36837266D01*
X174123559Y-36859762D01*
X174130014Y-36881242D01*
X174137846Y-36901944D01*
X174147176Y-36922109D01*
X174158127Y-36941976D01*
X174170821Y-36961786D01*
X174185378Y-36981777D01*
X174201923Y-37002190D01*
X174220576Y-37023264D01*
X174241459Y-37045240D01*
X174264694Y-37068356D01*
X174290404Y-37092854D01*
X174312796Y-37114274D01*
X174333184Y-37134968D01*
X174351628Y-37155068D01*
X174368191Y-37174709D01*
X174382936Y-37194023D01*
X174395923Y-37213144D01*
X174407215Y-37232205D01*
X174416875Y-37251339D01*
X174424963Y-37270680D01*
X174431543Y-37290361D01*
X174436675Y-37310515D01*
X174440423Y-37331276D01*
X174442847Y-37352778D01*
X174444011Y-37375152D01*
X174443976Y-37398533D01*
X174442804Y-37423054D01*
X174440157Y-37451947D01*
X174436214Y-37480100D01*
X174431019Y-37507438D01*
X174424614Y-37533881D01*
X174417043Y-37559353D01*
X174412834Y-37571700D01*
X174408350Y-37583776D01*
X174403596Y-37595569D01*
X174398578Y-37607072D01*
X174393301Y-37618273D01*
X174387771Y-37629164D01*
X174381992Y-37639734D01*
X174375971Y-37649975D01*
X174369712Y-37659875D01*
X174363222Y-37669426D01*
X174356506Y-37678618D01*
X174349568Y-37687441D01*
X174342415Y-37695886D01*
X174335052Y-37703942D01*
X174327485Y-37711600D01*
X174319718Y-37718851D01*
X174311757Y-37725684D01*
X174303608Y-37732091D01*
X174295276Y-37738061D01*
X174286767Y-37743584D01*
X174278085Y-37748652D01*
X174269237Y-37753253D01*
X174229726Y-37773009D01*
X174039226Y-37773715D01*
X173962199Y-37774200D01*
X173892912Y-37775479D01*
X173863588Y-37776333D01*
X173839102Y-37777287D01*
X173820420Y-37778307D01*
X173808510Y-37779359D01*
X173797229Y-37780749D01*
X173786165Y-37781747D01*
X173775350Y-37782359D01*
X173764820Y-37782589D01*
X173754608Y-37782444D01*
X173744749Y-37781927D01*
X173735276Y-37781044D01*
X173726224Y-37779800D01*
X173717627Y-37778201D01*
X173709518Y-37776252D01*
X173701933Y-37773957D01*
X173694904Y-37771323D01*
X173688467Y-37768353D01*
X173685480Y-37766744D01*
X173682655Y-37765054D01*
X173679994Y-37763282D01*
X173677502Y-37761430D01*
X173675184Y-37759498D01*
X173673043Y-37757487D01*
X173667348Y-37751180D01*
X173664894Y-37747953D01*
X173662703Y-37744671D01*
X173660778Y-37741329D01*
X173659120Y-37737922D01*
X173657728Y-37734446D01*
X173656606Y-37730896D01*
X173655753Y-37727268D01*
X173655171Y-37723556D01*
X173654861Y-37719757D01*
X173654824Y-37715865D01*
X173655061Y-37711876D01*
X173655575Y-37707785D01*
X173656365Y-37703587D01*
X173657432Y-37699279D01*
X173658779Y-37694854D01*
X173660406Y-37690310D01*
X173664506Y-37680841D01*
X173669740Y-37670834D01*
X173676119Y-37660253D01*
X173683650Y-37649059D01*
X173692345Y-37637217D01*
X173702212Y-37624689D01*
X173713259Y-37611437D01*
X173721158Y-37602114D01*
X173728456Y-37593179D01*
X173735168Y-37584606D01*
X173741305Y-37576369D01*
X173746880Y-37568441D01*
X173751905Y-37560798D01*
X173756393Y-37553413D01*
X173760355Y-37546261D01*
X173763805Y-37539316D01*
X173766755Y-37532551D01*
X173769217Y-37525942D01*
X173771203Y-37519461D01*
X173772727Y-37513084D01*
X173773799Y-37506785D01*
X173774434Y-37500537D01*
X173774643Y-37494315D01*
X173774068Y-37487422D01*
X173772427Y-37477139D01*
X173769843Y-37463979D01*
X173766441Y-37448454D01*
X173762344Y-37431077D01*
X173757676Y-37412360D01*
X173752562Y-37392817D01*
X173747126Y-37372959D01*
X173726092Y-37295676D01*
X173707971Y-37221188D01*
X173692764Y-37149395D01*
X173680473Y-37080198D01*
X173671102Y-37013498D01*
X173664651Y-36949196D01*
X173661122Y-36887192D01*
X173660519Y-36827388D01*
X173662843Y-36769684D01*
X173668096Y-36713981D01*
X173676280Y-36660180D01*
X173687397Y-36608181D01*
X173701449Y-36557885D01*
X173718438Y-36509194D01*
X173738367Y-36462007D01*
X173761237Y-36416226D01*
X173783067Y-36377438D01*
X173808741Y-36335848D01*
X173838070Y-36291694D01*
X173870863Y-36245217D01*
X173906930Y-36196656D01*
X173946082Y-36146252D01*
X173988127Y-36094243D01*
X174032876Y-36040870D01*
X174099904Y-35962553D01*
X174073798Y-35929393D01*
X174039888Y-35888203D01*
X174005051Y-35847923D01*
X173968825Y-35808073D01*
X173930747Y-35768173D01*
X173890354Y-35727744D01*
X173847183Y-35686306D01*
X173800770Y-35643381D01*
X173750654Y-35598487D01*
X173712489Y-35564648D01*
X173695989Y-35549777D01*
X173681080Y-35536133D01*
X173667662Y-35523615D01*
X173655640Y-35512117D01*
X173644913Y-35501537D01*
X173635384Y-35491772D01*
X173626954Y-35482717D01*
X173619527Y-35474271D01*
X173613002Y-35466328D01*
X173607283Y-35458787D01*
X173602270Y-35451543D01*
X173597867Y-35444494D01*
X173593973Y-35437536D01*
X173590493Y-35430565D01*
X173585874Y-35419224D01*
X173582351Y-35407377D01*
X173579945Y-35394944D01*
X173578675Y-35381848D01*
X173578562Y-35368013D01*
X173579628Y-35353360D01*
X173581893Y-35337812D01*
X173585378Y-35321292D01*
X173590102Y-35303721D01*
X173596088Y-35285023D01*
X173603355Y-35265120D01*
X173611924Y-35243934D01*
X173621816Y-35221388D01*
X173633052Y-35197405D01*
X173645652Y-35171906D01*
X173659637Y-35144815D01*
X173676958Y-35111981D01*
X173692764Y-35082403D01*
X173707196Y-35055881D01*
X173720392Y-35032212D01*
X173732493Y-35011198D01*
X173743638Y-34992638D01*
X173753967Y-34976331D01*
X173763619Y-34962076D01*
X173768234Y-34955655D01*
X173772733Y-34949673D01*
X173777132Y-34944104D01*
X173781449Y-34938922D01*
X173785702Y-34934103D01*
X173789907Y-34929622D01*
X173794083Y-34925453D01*
X173798246Y-34921573D01*
X173802414Y-34917954D01*
X173806606Y-34914573D01*
X173810837Y-34911405D01*
X173815125Y-34908423D01*
X173819489Y-34905604D01*
X173823945Y-34902923D01*
X173833204Y-34897870D01*
X173839082Y-34895113D01*
X173845069Y-34892659D01*
X173851159Y-34890509D01*
X173857347Y-34888659D01*
X173863626Y-34887110D01*
X173869989Y-34885859D01*
X173876431Y-34884904D01*
X173882946Y-34884244D01*
X173896167Y-34883804D01*
X173909602Y-34884525D01*
X173923204Y-34886396D01*
X173936921Y-34889403D01*
X173950704Y-34893536D01*
X173964504Y-34898780D01*
X173978270Y-34905123D01*
X173991954Y-34912555D01*
X174005506Y-34921060D01*
X174018875Y-34930629D01*
X174032014Y-34941247D01*
X174044871Y-34952904D01*
X174073024Y-34982916D01*
X174113861Y-35031209D01*
X174166240Y-35096287D01*
X174229021Y-35176653D01*
X174381222Y-35377262D01*
X174561337Y-35621065D01*
X174794170Y-35938565D01*
X174971265Y-36179865D01*
X174983984Y-36197137D01*
X174996026Y-36213268D01*
X175007108Y-36227911D01*
X175016950Y-36240719D01*
X175025270Y-36251343D01*
X175031789Y-36259438D01*
X175036223Y-36264655D01*
X175037571Y-36266077D01*
X175038293Y-36266648D01*
X175039697Y-36265289D01*
X175041981Y-36261398D01*
X175048744Y-36247135D01*
X175057690Y-36226093D01*
X175067926Y-36200502D01*
X175078559Y-36172597D01*
X175088696Y-36144609D01*
X175097444Y-36118771D01*
X175103909Y-36097315D01*
X175111343Y-36068783D01*
X175117767Y-36039915D01*
X175123183Y-36010872D01*
X175127590Y-35981813D01*
X175130988Y-35952899D01*
X175133378Y-35924290D01*
X175134758Y-35896145D01*
X175135130Y-35868627D01*
X175134494Y-35841893D01*
X175132848Y-35816105D01*
X175130194Y-35791423D01*
X175126532Y-35768008D01*
X175121860Y-35746018D01*
X175116180Y-35725615D01*
X175109491Y-35706959D01*
X175101793Y-35690209D01*
X175094026Y-35675766D01*
X175085992Y-35662274D01*
X175077574Y-35649641D01*
X175068654Y-35637778D01*
X175059113Y-35626592D01*
X175048835Y-35615994D01*
X175037701Y-35605891D01*
X175025593Y-35596194D01*
X175012394Y-35586811D01*
X174997985Y-35577651D01*
X174982250Y-35568624D01*
X174965070Y-35559637D01*
X174946327Y-35550602D01*
X174925903Y-35541425D01*
X174903681Y-35532017D01*
X174879543Y-35522287D01*
X174859258Y-35514251D01*
X174840425Y-35506518D01*
X174822974Y-35499043D01*
X174806838Y-35491783D01*
X174791945Y-35484691D01*
X174778228Y-35477725D01*
X174765617Y-35470840D01*
X174754042Y-35463990D01*
X174743435Y-35457133D01*
X174733726Y-35450222D01*
X174724845Y-35443215D01*
X174716725Y-35436066D01*
X174709294Y-35428731D01*
X174702485Y-35421165D01*
X174696228Y-35413325D01*
X174690454Y-35405165D01*
X174684061Y-35394989D01*
X174678370Y-35384781D01*
X174673371Y-35374456D01*
X174669056Y-35363934D01*
X174665414Y-35353130D01*
X174662437Y-35341962D01*
X174660115Y-35330348D01*
X174658439Y-35318205D01*
X174657400Y-35305450D01*
X174656988Y-35292000D01*
X174657194Y-35277773D01*
X174658009Y-35262687D01*
X174659424Y-35246657D01*
X174661428Y-35229603D01*
X174664014Y-35211440D01*
X174667171Y-35192087D01*
X174672499Y-35163845D01*
X174678410Y-35136578D01*
X174684875Y-35110351D01*
X174691865Y-35085228D01*
X174699351Y-35061276D01*
X174707305Y-35038558D01*
X174715696Y-35017141D01*
X174724497Y-34997089D01*
X174733678Y-34978467D01*
X174743211Y-34961341D01*
X174753066Y-34945776D01*
X174758105Y-34938599D01*
X174763214Y-34931836D01*
X174768390Y-34925496D01*
X174773627Y-34919587D01*
X174778924Y-34914117D01*
X174784276Y-34909094D01*
X174789680Y-34904527D01*
X174795132Y-34900422D01*
X174800628Y-34896790D01*
X174806165Y-34893637D01*
X174812505Y-34890825D01*
X174819810Y-34888470D01*
X174827972Y-34886569D01*
X174836879Y-34885115D01*
X174846423Y-34884103D01*
X174856494Y-34883529D01*
X174866982Y-34883386D01*
X174877779Y-34883671D01*
G37*
D10*
X151500000Y-76000000D02*
X200500000Y-76000000D01*
X200500000Y-79000000D01*
X151500000Y-79000000D01*
X151500000Y-76000000D01*
D14*
G36*
X174741519Y-33518774D02*
G01*
X174831145Y-33520790D01*
X174914744Y-33523724D01*
X174986453Y-33527468D01*
X175040410Y-33531915D01*
X175148678Y-33546131D01*
X175255945Y-33564152D01*
X175362134Y-33585949D01*
X175467172Y-33611488D01*
X175570981Y-33640740D01*
X175673487Y-33673674D01*
X175774615Y-33710257D01*
X175874288Y-33750461D01*
X175972432Y-33794252D01*
X176068971Y-33841601D01*
X176163829Y-33892477D01*
X176256931Y-33946848D01*
X176348202Y-34004683D01*
X176437565Y-34065951D01*
X176524947Y-34130622D01*
X176610271Y-34198664D01*
X176653746Y-34235604D01*
X176697288Y-34274346D01*
X176740753Y-34314726D01*
X176783992Y-34356577D01*
X176826859Y-34399734D01*
X176869207Y-34444033D01*
X176910889Y-34489307D01*
X176951759Y-34535391D01*
X176991671Y-34582120D01*
X177030476Y-34629329D01*
X177068028Y-34676852D01*
X177104181Y-34724524D01*
X177138788Y-34772179D01*
X177171703Y-34819653D01*
X177202777Y-34866779D01*
X177231865Y-34913393D01*
X177283389Y-35001148D01*
X177331613Y-35089314D01*
X177376563Y-35177970D01*
X177418264Y-35267195D01*
X177456740Y-35357070D01*
X177492017Y-35447673D01*
X177524118Y-35539084D01*
X177553069Y-35631383D01*
X177578895Y-35724650D01*
X177601620Y-35818963D01*
X177621270Y-35914403D01*
X177637868Y-36011049D01*
X177651441Y-36108981D01*
X177662011Y-36208278D01*
X177669606Y-36309020D01*
X177674249Y-36411287D01*
X177675565Y-36508674D01*
X177673714Y-36605662D01*
X177668731Y-36702188D01*
X177660647Y-36798188D01*
X177635314Y-36988353D01*
X177597982Y-37175646D01*
X177548918Y-37359558D01*
X177488387Y-37539578D01*
X177416657Y-37715195D01*
X177333994Y-37885898D01*
X177240666Y-38051178D01*
X177136938Y-38210523D01*
X177023077Y-38363423D01*
X176899350Y-38509367D01*
X176766024Y-38647845D01*
X176623365Y-38778346D01*
X176471640Y-38900360D01*
X176392461Y-38958025D01*
X176311115Y-39013376D01*
X176240064Y-39058555D01*
X176167927Y-39101489D01*
X176094693Y-39142185D01*
X176020349Y-39180648D01*
X175944885Y-39216882D01*
X175868289Y-39250893D01*
X175790551Y-39282686D01*
X175711657Y-39312267D01*
X175631598Y-39339640D01*
X175550362Y-39364810D01*
X175467937Y-39387783D01*
X175384313Y-39408564D01*
X175299477Y-39427158D01*
X175213418Y-39443570D01*
X175126125Y-39457806D01*
X175037587Y-39469870D01*
X174981421Y-39474826D01*
X174907214Y-39478558D01*
X174820670Y-39481033D01*
X174727496Y-39482218D01*
X174633395Y-39482080D01*
X174544073Y-39480586D01*
X174465236Y-39477703D01*
X174402587Y-39473398D01*
X174314938Y-39463970D01*
X174228445Y-39452349D01*
X174143071Y-39438521D01*
X174058783Y-39422477D01*
X173975545Y-39404204D01*
X173893322Y-39383692D01*
X173812079Y-39360929D01*
X173731780Y-39335903D01*
X173652391Y-39308604D01*
X173573876Y-39279019D01*
X173496201Y-39247138D01*
X173419329Y-39212949D01*
X173343227Y-39176441D01*
X173267858Y-39137602D01*
X173193188Y-39096421D01*
X173119182Y-39052887D01*
X173015116Y-38986605D01*
X172913887Y-38915665D01*
X172815634Y-38840240D01*
X172720499Y-38760500D01*
X172628621Y-38676619D01*
X172540141Y-38588766D01*
X172455200Y-38497115D01*
X172373939Y-38401836D01*
X172296497Y-38303100D01*
X172223016Y-38201080D01*
X172153636Y-38095947D01*
X172088497Y-37987873D01*
X172027741Y-37877029D01*
X171971507Y-37763586D01*
X171919937Y-37647717D01*
X171873171Y-37529593D01*
X171832400Y-37411563D01*
X171796875Y-37290803D01*
X171766599Y-37167658D01*
X171741573Y-37042473D01*
X171721803Y-36915592D01*
X171707289Y-36787362D01*
X171698037Y-36658127D01*
X171694048Y-36528233D01*
X171694052Y-36527801D01*
X171913681Y-36527801D01*
X171917268Y-36648706D01*
X171925849Y-36768653D01*
X171939416Y-36887485D01*
X171957960Y-37005047D01*
X171981473Y-37121186D01*
X172009948Y-37235746D01*
X172043375Y-37348571D01*
X172081746Y-37459507D01*
X172125054Y-37568398D01*
X172157232Y-37640788D01*
X172192909Y-37715187D01*
X172231280Y-37790164D01*
X172271545Y-37864290D01*
X172312901Y-37936134D01*
X172354547Y-38004266D01*
X172395680Y-38067255D01*
X172435498Y-38123670D01*
X172468870Y-38167683D01*
X172503802Y-38211785D01*
X172540152Y-38255833D01*
X172577778Y-38299684D01*
X172616536Y-38343197D01*
X172656285Y-38386228D01*
X172696881Y-38428635D01*
X172738182Y-38470274D01*
X172780045Y-38511005D01*
X172822327Y-38550683D01*
X172864887Y-38589166D01*
X172907581Y-38626312D01*
X172950267Y-38661979D01*
X172992802Y-38696022D01*
X173035043Y-38728300D01*
X173076848Y-38758670D01*
X173142382Y-38803536D01*
X173209538Y-38846560D01*
X173278217Y-38887706D01*
X173348322Y-38926934D01*
X173419753Y-38964207D01*
X173492414Y-38999487D01*
X173566205Y-39032734D01*
X173641028Y-39063911D01*
X173716786Y-39092980D01*
X173793380Y-39119902D01*
X173870712Y-39144640D01*
X173948684Y-39167154D01*
X174027197Y-39187407D01*
X174106153Y-39205360D01*
X174185455Y-39220975D01*
X174265004Y-39234215D01*
X174413684Y-39252664D01*
X174561908Y-39263341D01*
X174709433Y-39266312D01*
X174856017Y-39261643D01*
X175001419Y-39249401D01*
X175145397Y-39229651D01*
X175287708Y-39202459D01*
X175428112Y-39167893D01*
X175566366Y-39126017D01*
X175702229Y-39076898D01*
X175835458Y-39020602D01*
X175965812Y-38957196D01*
X176093049Y-38886745D01*
X176216926Y-38809316D01*
X176337203Y-38724974D01*
X176453638Y-38633787D01*
X176512653Y-38583148D01*
X176573075Y-38527788D01*
X176633794Y-38468873D01*
X176693703Y-38407569D01*
X176751693Y-38345040D01*
X176806658Y-38282454D01*
X176857488Y-38220975D01*
X176881006Y-38191016D01*
X176903076Y-38161770D01*
X176964874Y-38074941D01*
X177023240Y-37986247D01*
X177078131Y-37895808D01*
X177129504Y-37803745D01*
X177177319Y-37710177D01*
X177221531Y-37615224D01*
X177262099Y-37519006D01*
X177298981Y-37421642D01*
X177332134Y-37323254D01*
X177361515Y-37223960D01*
X177387083Y-37123881D01*
X177408794Y-37023136D01*
X177426607Y-36921845D01*
X177440479Y-36820129D01*
X177450368Y-36718106D01*
X177456232Y-36615898D01*
X177458233Y-36539818D01*
X177458481Y-36464589D01*
X177457075Y-36391924D01*
X177454115Y-36323534D01*
X177449700Y-36261129D01*
X177443929Y-36206422D01*
X177440565Y-36182490D01*
X177436901Y-36161125D01*
X177432946Y-36142539D01*
X177428715Y-36126948D01*
X177427109Y-36122564D01*
X177425210Y-36118410D01*
X177423031Y-36114486D01*
X177420585Y-36110796D01*
X177417884Y-36107341D01*
X177414942Y-36104123D01*
X177411772Y-36101144D01*
X177408386Y-36098406D01*
X177404798Y-36095911D01*
X177401020Y-36093661D01*
X177397065Y-36091657D01*
X177392947Y-36089902D01*
X177388677Y-36088398D01*
X177384270Y-36087146D01*
X177379737Y-36086149D01*
X177375093Y-36085408D01*
X177370349Y-36084926D01*
X177365519Y-36084704D01*
X177360615Y-36084744D01*
X177355652Y-36085049D01*
X177350640Y-36085619D01*
X177345594Y-36086458D01*
X177340526Y-36087567D01*
X177335450Y-36088947D01*
X177330377Y-36090602D01*
X177325322Y-36092532D01*
X177320296Y-36094740D01*
X177315314Y-36097228D01*
X177310387Y-36099997D01*
X177305529Y-36103050D01*
X177300753Y-36106389D01*
X177296071Y-36110015D01*
X177287965Y-36116660D01*
X177280568Y-36123128D01*
X177273861Y-36129455D01*
X177267826Y-36135679D01*
X177262445Y-36141837D01*
X177257698Y-36147966D01*
X177253567Y-36154103D01*
X177250033Y-36160286D01*
X177247078Y-36166551D01*
X177245812Y-36169726D01*
X177244683Y-36172936D01*
X177243690Y-36176185D01*
X177242830Y-36179478D01*
X177241500Y-36186215D01*
X177240674Y-36193183D01*
X177240334Y-36200420D01*
X177240461Y-36207962D01*
X177241037Y-36215848D01*
X177241933Y-36222858D01*
X177243077Y-36229695D01*
X177244535Y-36236498D01*
X177246373Y-36243409D01*
X177248658Y-36250568D01*
X177251455Y-36258115D01*
X177254832Y-36266192D01*
X177258853Y-36274938D01*
X177269094Y-36295003D01*
X177282709Y-36319432D01*
X177300227Y-36349352D01*
X177322176Y-36385887D01*
X177329787Y-36398264D01*
X177337158Y-36410824D01*
X177344116Y-36423218D01*
X177350487Y-36435099D01*
X177356097Y-36446121D01*
X177360772Y-36455935D01*
X177364340Y-36464195D01*
X177365654Y-36467634D01*
X177366626Y-36470554D01*
X177368899Y-36479015D01*
X177370951Y-36488936D01*
X177372775Y-36500139D01*
X177374365Y-36512446D01*
X177376821Y-36539659D01*
X177378268Y-36569155D01*
X177378656Y-36599510D01*
X177377937Y-36629304D01*
X177377146Y-36643545D01*
X177376060Y-36657113D01*
X177374672Y-36669828D01*
X177372976Y-36681515D01*
X177368579Y-36706446D01*
X177363334Y-36731743D01*
X177357251Y-36757372D01*
X177350343Y-36783302D01*
X177342620Y-36809501D01*
X177334095Y-36835936D01*
X177324777Y-36862576D01*
X177314680Y-36889389D01*
X177303813Y-36916342D01*
X177292189Y-36943404D01*
X177279818Y-36970542D01*
X177266713Y-36997725D01*
X177252884Y-37024920D01*
X177238343Y-37052095D01*
X177223101Y-37079219D01*
X177207170Y-37106259D01*
X177179120Y-37154138D01*
X177167122Y-37175725D01*
X177156337Y-37196129D01*
X177146665Y-37215641D01*
X177138003Y-37234549D01*
X177130247Y-37253143D01*
X177123298Y-37271712D01*
X177117050Y-37290545D01*
X177111404Y-37309933D01*
X177106255Y-37330164D01*
X177101503Y-37351528D01*
X177097044Y-37374314D01*
X177092776Y-37398811D01*
X177084404Y-37454098D01*
X177077366Y-37500967D01*
X177073662Y-37522474D01*
X177069775Y-37542899D01*
X177065660Y-37562394D01*
X177061274Y-37581110D01*
X177056571Y-37599201D01*
X177051508Y-37616817D01*
X177046039Y-37634110D01*
X177040121Y-37651233D01*
X177033709Y-37668338D01*
X177026758Y-37685575D01*
X177019224Y-37703098D01*
X177011063Y-37721059D01*
X176992682Y-37758898D01*
X176976394Y-37790074D01*
X176959054Y-37821378D01*
X176940714Y-37852740D01*
X176921432Y-37884090D01*
X176901260Y-37915357D01*
X176880255Y-37946471D01*
X176858470Y-37977362D01*
X176835960Y-38007959D01*
X176812781Y-38038192D01*
X176788987Y-38067992D01*
X176764633Y-38097287D01*
X176739773Y-38126007D01*
X176714463Y-38154083D01*
X176688757Y-38181443D01*
X176662710Y-38208018D01*
X176636376Y-38233737D01*
X176613001Y-38255524D01*
X176590231Y-38275906D01*
X176568061Y-38294885D01*
X176546484Y-38312461D01*
X176525494Y-38328636D01*
X176505085Y-38343411D01*
X176485251Y-38356786D01*
X176465985Y-38368763D01*
X176447281Y-38379342D01*
X176429133Y-38388525D01*
X176411535Y-38396313D01*
X176394481Y-38402707D01*
X176377964Y-38407707D01*
X176361979Y-38411315D01*
X176346518Y-38413532D01*
X176331576Y-38414359D01*
X176324537Y-38414455D01*
X176318191Y-38414464D01*
X176312472Y-38414366D01*
X176307312Y-38414139D01*
X176302643Y-38413763D01*
X176300473Y-38413513D01*
X176298400Y-38413218D01*
X176296416Y-38412876D01*
X176294514Y-38412483D01*
X176292684Y-38412038D01*
X176290918Y-38411537D01*
X176289209Y-38410979D01*
X176287546Y-38410360D01*
X176285923Y-38409678D01*
X176284330Y-38408930D01*
X176282760Y-38408114D01*
X176281203Y-38407227D01*
X176279651Y-38406267D01*
X176278097Y-38405231D01*
X176274946Y-38402921D01*
X176271682Y-38400276D01*
X176268239Y-38397275D01*
X176264548Y-38393898D01*
X176255658Y-38384661D01*
X176247501Y-38374373D01*
X176240065Y-38362974D01*
X176233339Y-38350407D01*
X176227311Y-38336612D01*
X176221971Y-38321531D01*
X176217307Y-38305103D01*
X176213308Y-38287271D01*
X176209961Y-38267976D01*
X176207257Y-38247158D01*
X176205182Y-38224759D01*
X176203727Y-38200719D01*
X176202880Y-38174981D01*
X176202629Y-38147484D01*
X176202963Y-38118171D01*
X176203871Y-38086981D01*
X176205996Y-38041162D01*
X176208964Y-38000485D01*
X176213222Y-37962487D01*
X176219217Y-37924704D01*
X176227394Y-37884672D01*
X176238200Y-37839927D01*
X176252083Y-37788005D01*
X176269488Y-37726443D01*
X176286720Y-37664308D01*
X176300984Y-37608383D01*
X176312486Y-37557535D01*
X176317266Y-37533661D01*
X176321434Y-37510631D01*
X176325014Y-37488304D01*
X176328033Y-37466538D01*
X176330517Y-37445191D01*
X176332491Y-37424123D01*
X176333981Y-37403191D01*
X176335014Y-37382254D01*
X176335809Y-37339798D01*
X176335451Y-37312702D01*
X176334362Y-37286941D01*
X176332526Y-37262459D01*
X176329922Y-37239201D01*
X176326533Y-37217114D01*
X176322340Y-37196142D01*
X176317325Y-37176230D01*
X176311468Y-37157324D01*
X176304751Y-37139369D01*
X176297155Y-37122309D01*
X176288663Y-37106091D01*
X176279255Y-37090660D01*
X176268912Y-37075960D01*
X176257617Y-37061937D01*
X176245350Y-37048537D01*
X176232093Y-37035704D01*
X176227981Y-37031978D01*
X176223605Y-37028226D01*
X176219000Y-37024470D01*
X176214200Y-37020733D01*
X176209239Y-37017036D01*
X176204150Y-37013404D01*
X176198969Y-37009859D01*
X176193728Y-37006423D01*
X176188463Y-37003120D01*
X176183207Y-36999971D01*
X176177994Y-36997000D01*
X176172859Y-36994230D01*
X176167836Y-36991683D01*
X176162958Y-36989382D01*
X176158260Y-36987350D01*
X176153776Y-36985609D01*
X176140754Y-36980657D01*
X176128178Y-36976812D01*
X176121577Y-36975258D01*
X176114510Y-36973926D01*
X176106787Y-36972797D01*
X176098214Y-36971851D01*
X176077750Y-36970437D01*
X176051581Y-36969536D01*
X176018169Y-36968998D01*
X175975976Y-36968676D01*
X175945609Y-36968442D01*
X175918085Y-36967959D01*
X175893119Y-36967163D01*
X175870430Y-36965986D01*
X175849732Y-36964363D01*
X175830745Y-36962227D01*
X175813183Y-36959512D01*
X175796765Y-36956152D01*
X175781207Y-36952082D01*
X175766225Y-36947234D01*
X175751537Y-36941542D01*
X175736859Y-36934941D01*
X175721908Y-36927365D01*
X175706402Y-36918747D01*
X175690056Y-36909021D01*
X175672587Y-36898120D01*
X175660421Y-36890005D01*
X175648782Y-36881781D01*
X175637648Y-36873423D01*
X175627002Y-36864904D01*
X175616822Y-36856200D01*
X175607091Y-36847283D01*
X175597787Y-36838129D01*
X175588891Y-36828711D01*
X175580384Y-36819004D01*
X175572245Y-36808982D01*
X175564457Y-36798618D01*
X175556997Y-36787888D01*
X175549848Y-36776765D01*
X175542990Y-36765224D01*
X175536402Y-36753237D01*
X175530065Y-36740781D01*
X175520481Y-36721472D01*
X175516570Y-36713279D01*
X175513187Y-36705768D01*
X175510288Y-36698720D01*
X175507828Y-36691916D01*
X175505763Y-36685137D01*
X175504048Y-36678163D01*
X175502639Y-36670776D01*
X175501492Y-36662757D01*
X175500561Y-36653886D01*
X175499803Y-36643944D01*
X175498628Y-36619971D01*
X175497609Y-36589087D01*
X175497075Y-36551623D01*
X175497866Y-36515397D01*
X175500000Y-36480358D01*
X175503496Y-36446454D01*
X175508374Y-36413633D01*
X175514650Y-36381844D01*
X175522345Y-36351034D01*
X175531476Y-36321152D01*
X175542063Y-36292147D01*
X175554123Y-36263966D01*
X175567675Y-36236559D01*
X175582739Y-36209873D01*
X175599332Y-36183857D01*
X175617474Y-36158458D01*
X175637182Y-36133626D01*
X175658476Y-36109309D01*
X175669317Y-36097907D01*
X175681605Y-36085761D01*
X175695150Y-36073020D01*
X175709761Y-36059832D01*
X175741423Y-36032712D01*
X175775069Y-36005593D01*
X175809179Y-35979663D01*
X175842230Y-35956116D01*
X175857883Y-35945607D01*
X175872701Y-35936139D01*
X175886494Y-35927863D01*
X175899071Y-35920926D01*
X175915956Y-35912467D01*
X175932750Y-35904818D01*
X175949462Y-35897977D01*
X175966099Y-35891943D01*
X175982670Y-35886715D01*
X175999183Y-35882293D01*
X176015646Y-35878674D01*
X176032068Y-35875858D01*
X176048457Y-35873845D01*
X176064821Y-35872632D01*
X176081169Y-35872220D01*
X176097508Y-35872606D01*
X176113848Y-35873791D01*
X176130195Y-35875772D01*
X176146560Y-35878549D01*
X176162948Y-35882120D01*
X176173765Y-35884634D01*
X176187830Y-35888338D01*
X176223362Y-35898525D01*
X176264846Y-35911092D01*
X176307587Y-35924454D01*
X176355193Y-35939237D01*
X176400929Y-35952369D01*
X176444827Y-35963848D01*
X176486920Y-35973677D01*
X176527239Y-35981857D01*
X176565817Y-35988388D01*
X176602685Y-35993271D01*
X176637875Y-35996508D01*
X176671421Y-35998100D01*
X176703353Y-35998048D01*
X176733704Y-35996352D01*
X176762505Y-35993014D01*
X176789789Y-35988034D01*
X176815589Y-35981415D01*
X176839935Y-35973156D01*
X176862859Y-35963259D01*
X176880845Y-35953655D01*
X176897502Y-35942811D01*
X176912842Y-35930695D01*
X176926877Y-35917277D01*
X176939619Y-35902523D01*
X176951077Y-35886402D01*
X176961264Y-35868881D01*
X176970192Y-35849929D01*
X176977871Y-35829514D01*
X176984313Y-35807603D01*
X176989529Y-35784164D01*
X176993530Y-35759166D01*
X176996329Y-35732576D01*
X176997936Y-35704363D01*
X176998363Y-35674494D01*
X176997621Y-35642937D01*
X176996608Y-35622738D01*
X176995140Y-35604180D01*
X176994228Y-35595501D01*
X176993193Y-35587215D01*
X176992032Y-35579316D01*
X176990741Y-35571797D01*
X176989319Y-35564654D01*
X176987761Y-35557880D01*
X176986064Y-35551470D01*
X176984226Y-35545417D01*
X176982243Y-35539717D01*
X176980113Y-35534362D01*
X176977831Y-35529348D01*
X176975396Y-35524668D01*
X176972803Y-35520317D01*
X176970050Y-35516289D01*
X176967134Y-35512578D01*
X176964052Y-35509178D01*
X176960800Y-35506083D01*
X176957375Y-35503288D01*
X176953775Y-35500787D01*
X176949996Y-35498574D01*
X176946035Y-35496643D01*
X176941889Y-35494988D01*
X176937554Y-35493604D01*
X176933029Y-35492484D01*
X176928310Y-35491624D01*
X176923393Y-35491016D01*
X176918275Y-35490656D01*
X176912954Y-35490537D01*
X176907442Y-35490668D01*
X176902197Y-35491121D01*
X176897088Y-35491988D01*
X176891986Y-35493359D01*
X176886759Y-35495326D01*
X176881278Y-35497978D01*
X176875413Y-35501408D01*
X176869033Y-35505706D01*
X176862008Y-35510964D01*
X176854208Y-35517271D01*
X176845503Y-35524719D01*
X176835762Y-35533399D01*
X176812652Y-35554820D01*
X176783837Y-35582259D01*
X176769445Y-35595943D01*
X176755848Y-35608450D01*
X176742964Y-35619829D01*
X176730711Y-35630127D01*
X176719008Y-35639391D01*
X176707774Y-35647669D01*
X176696926Y-35655009D01*
X176686382Y-35661458D01*
X176676062Y-35667063D01*
X176665884Y-35671873D01*
X176655766Y-35675934D01*
X176645626Y-35679295D01*
X176635382Y-35682003D01*
X176624954Y-35684105D01*
X176614259Y-35685648D01*
X176603215Y-35686681D01*
X176593276Y-35687258D01*
X176583433Y-35687362D01*
X176573485Y-35686933D01*
X176563230Y-35685910D01*
X176552466Y-35684234D01*
X176540992Y-35681844D01*
X176528607Y-35678682D01*
X176515109Y-35674687D01*
X176483966Y-35663957D01*
X176445953Y-35649177D01*
X176399457Y-35629865D01*
X176342865Y-35605543D01*
X176286542Y-35581080D01*
X176234651Y-35559064D01*
X176192946Y-35541943D01*
X176177711Y-35535983D01*
X176167182Y-35532165D01*
X176153395Y-35527954D01*
X176139104Y-35524572D01*
X176124436Y-35522004D01*
X176109514Y-35520236D01*
X176094464Y-35519254D01*
X176079410Y-35519043D01*
X176064479Y-35519588D01*
X176049795Y-35520876D01*
X176035483Y-35522891D01*
X176021668Y-35525619D01*
X176008475Y-35529046D01*
X175996029Y-35533157D01*
X175984456Y-35537938D01*
X175973880Y-35543374D01*
X175969005Y-35546333D01*
X175964427Y-35549450D01*
X175960160Y-35552725D01*
X175956221Y-35556154D01*
X175952610Y-35559628D01*
X175949164Y-35563215D01*
X175945848Y-35566975D01*
X175942628Y-35570970D01*
X175939470Y-35575263D01*
X175936340Y-35579916D01*
X175933203Y-35584991D01*
X175930027Y-35590549D01*
X175926776Y-35596653D01*
X175923416Y-35603365D01*
X175916236Y-35618860D01*
X175908211Y-35637529D01*
X175899071Y-35659870D01*
X175892088Y-35676063D01*
X175884877Y-35691054D01*
X175877410Y-35704864D01*
X175869658Y-35717516D01*
X175861592Y-35729032D01*
X175857431Y-35734369D01*
X175853182Y-35739431D01*
X175848840Y-35744220D01*
X175844400Y-35748738D01*
X175839861Y-35752988D01*
X175835218Y-35756972D01*
X175830467Y-35760695D01*
X175825605Y-35764157D01*
X175820629Y-35767362D01*
X175815534Y-35770313D01*
X175810317Y-35773013D01*
X175804975Y-35775463D01*
X175799503Y-35777667D01*
X175793899Y-35779627D01*
X175788158Y-35781347D01*
X175782277Y-35782829D01*
X175776253Y-35784075D01*
X175770081Y-35785089D01*
X175763758Y-35785872D01*
X175757281Y-35786429D01*
X175743848Y-35786870D01*
X175738160Y-35786834D01*
X175732970Y-35786715D01*
X175728231Y-35786494D01*
X175723895Y-35786154D01*
X175719914Y-35785677D01*
X175716241Y-35785047D01*
X175714505Y-35784669D01*
X175712829Y-35784245D01*
X175711205Y-35783774D01*
X175709629Y-35783254D01*
X175708094Y-35782682D01*
X175706595Y-35782057D01*
X175705125Y-35781375D01*
X175703679Y-35780635D01*
X175702250Y-35779834D01*
X175700833Y-35778971D01*
X175699421Y-35778043D01*
X175698009Y-35777047D01*
X175695161Y-35774847D01*
X175692241Y-35772352D01*
X175689201Y-35769546D01*
X175685993Y-35766409D01*
X175678545Y-35758607D01*
X175675539Y-35755033D01*
X175672973Y-35751350D01*
X175670816Y-35747311D01*
X175669039Y-35742671D01*
X175667611Y-35737183D01*
X175666502Y-35730602D01*
X175665683Y-35722682D01*
X175665123Y-35713176D01*
X175664661Y-35688423D01*
X175664877Y-35654378D01*
X175665532Y-35609070D01*
X175665612Y-35580630D01*
X175665245Y-35555911D01*
X175664316Y-35533738D01*
X175662710Y-35512938D01*
X175660309Y-35492337D01*
X175656999Y-35470759D01*
X175652664Y-35447032D01*
X175647187Y-35419981D01*
X175640924Y-35389852D01*
X175638439Y-35377528D01*
X175636373Y-35366800D01*
X175634715Y-35357494D01*
X175633458Y-35349437D01*
X175632976Y-35345822D01*
X175632591Y-35342454D01*
X175632302Y-35339312D01*
X175632106Y-35336373D01*
X175632004Y-35333616D01*
X175631993Y-35331019D01*
X175632073Y-35328561D01*
X175632243Y-35326220D01*
X175632500Y-35323973D01*
X175632846Y-35321800D01*
X175633277Y-35319679D01*
X175633793Y-35317588D01*
X175634393Y-35315504D01*
X175635075Y-35313408D01*
X175636683Y-35309088D01*
X175638606Y-35304453D01*
X175640837Y-35299331D01*
X175645231Y-35290511D01*
X175650292Y-35281986D01*
X175656140Y-35273669D01*
X175662897Y-35265476D01*
X175670683Y-35257319D01*
X175679620Y-35249114D01*
X175689827Y-35240775D01*
X175701427Y-35232215D01*
X175714540Y-35223350D01*
X175729287Y-35214093D01*
X175745788Y-35204358D01*
X175764166Y-35194060D01*
X175807033Y-35171431D01*
X175858854Y-35145520D01*
X175884544Y-35132770D01*
X175908007Y-35120907D01*
X175929397Y-35109828D01*
X175948867Y-35099427D01*
X175966573Y-35089602D01*
X175982667Y-35080247D01*
X175997303Y-35071257D01*
X176010637Y-35062529D01*
X176022821Y-35053958D01*
X176034010Y-35045440D01*
X176044357Y-35036870D01*
X176054017Y-35028144D01*
X176063144Y-35019158D01*
X176071892Y-35009807D01*
X176080414Y-34999987D01*
X176088865Y-34989593D01*
X176094248Y-34982531D01*
X176099018Y-34975633D01*
X176103177Y-34968896D01*
X176105027Y-34965587D01*
X176106724Y-34962318D01*
X176108268Y-34959089D01*
X176109660Y-34955898D01*
X176110898Y-34952746D01*
X176111983Y-34949632D01*
X176112915Y-34946557D01*
X176113694Y-34943520D01*
X176114321Y-34940520D01*
X176114794Y-34937558D01*
X176115115Y-34934633D01*
X176115282Y-34931745D01*
X176115296Y-34928894D01*
X176115158Y-34926079D01*
X176114866Y-34923300D01*
X176114422Y-34920557D01*
X176113825Y-34917850D01*
X176113074Y-34915178D01*
X176112171Y-34912542D01*
X176111115Y-34909940D01*
X176109906Y-34907373D01*
X176108543Y-34904840D01*
X176107028Y-34902342D01*
X176105360Y-34899877D01*
X176103539Y-34897446D01*
X176101565Y-34895048D01*
X176099103Y-34892342D01*
X176096454Y-34889767D01*
X176093579Y-34887309D01*
X176090441Y-34884950D01*
X176087002Y-34882673D01*
X176083222Y-34880463D01*
X176079064Y-34878302D01*
X176074489Y-34876174D01*
X176069460Y-34874063D01*
X176063938Y-34871952D01*
X176057884Y-34869824D01*
X176051261Y-34867664D01*
X176036154Y-34863177D01*
X176018310Y-34858359D01*
X176004682Y-34854742D01*
X175991046Y-34850852D01*
X175977791Y-34846813D01*
X175965305Y-34842749D01*
X175953976Y-34838784D01*
X175944193Y-34835043D01*
X175940003Y-34833295D01*
X175936345Y-34831649D01*
X175933268Y-34830121D01*
X175930821Y-34828726D01*
X175925511Y-34825325D01*
X175920423Y-34821465D01*
X175915549Y-34817131D01*
X175910878Y-34812311D01*
X175906401Y-34806990D01*
X175902109Y-34801155D01*
X175897993Y-34794794D01*
X175894044Y-34787892D01*
X175890251Y-34780436D01*
X175886606Y-34772412D01*
X175883100Y-34763808D01*
X175879723Y-34754609D01*
X175876466Y-34744803D01*
X175873319Y-34734376D01*
X175870274Y-34723314D01*
X175867321Y-34711603D01*
X175864324Y-34699655D01*
X175860909Y-34687918D01*
X175857103Y-34676437D01*
X175852934Y-34665257D01*
X175848430Y-34654425D01*
X175843620Y-34643986D01*
X175838530Y-34633985D01*
X175833189Y-34624467D01*
X175827625Y-34615479D01*
X175821866Y-34607066D01*
X175815939Y-34599272D01*
X175809873Y-34592144D01*
X175803695Y-34585727D01*
X175800573Y-34582800D01*
X175797433Y-34580067D01*
X175794280Y-34577535D01*
X175791116Y-34575209D01*
X175787945Y-34573095D01*
X175784771Y-34571198D01*
X175777522Y-34567241D01*
X175770797Y-34564147D01*
X175764511Y-34561985D01*
X175761506Y-34561275D01*
X175758577Y-34560824D01*
X175755714Y-34560641D01*
X175752907Y-34560734D01*
X175750144Y-34561113D01*
X175747415Y-34561785D01*
X175744708Y-34562759D01*
X175742014Y-34564044D01*
X175739320Y-34565649D01*
X175736617Y-34567582D01*
X175733892Y-34569852D01*
X175731137Y-34572468D01*
X175725488Y-34578770D01*
X175719582Y-34586559D01*
X175713333Y-34595903D01*
X175706655Y-34606872D01*
X175699459Y-34619535D01*
X175691660Y-34633962D01*
X175683171Y-34650220D01*
X175673372Y-34668628D01*
X175663782Y-34685793D01*
X175654344Y-34701780D01*
X175645004Y-34716653D01*
X175635706Y-34730475D01*
X175626393Y-34743312D01*
X175617009Y-34755227D01*
X175607500Y-34766284D01*
X175597808Y-34776547D01*
X175587879Y-34786081D01*
X175577657Y-34794949D01*
X175567085Y-34803216D01*
X175556108Y-34810945D01*
X175544670Y-34818200D01*
X175532715Y-34825047D01*
X175520187Y-34831548D01*
X175507628Y-34837467D01*
X175494853Y-34842787D01*
X175481914Y-34847504D01*
X175468858Y-34851612D01*
X175455736Y-34855109D01*
X175442598Y-34857990D01*
X175429493Y-34860250D01*
X175416471Y-34861887D01*
X175403580Y-34862895D01*
X175390872Y-34863270D01*
X175378395Y-34863009D01*
X175366200Y-34862107D01*
X175354335Y-34860561D01*
X175342850Y-34858365D01*
X175331796Y-34855516D01*
X175321221Y-34852009D01*
X175309937Y-34847538D01*
X175299114Y-34842866D01*
X175288767Y-34838005D01*
X175278909Y-34832970D01*
X175269556Y-34827774D01*
X175260722Y-34822430D01*
X175252421Y-34816951D01*
X175244668Y-34811352D01*
X175237477Y-34805645D01*
X175230863Y-34799844D01*
X175224840Y-34793962D01*
X175219422Y-34788013D01*
X175216945Y-34785018D01*
X175214625Y-34782010D01*
X175212463Y-34778993D01*
X175210462Y-34775968D01*
X175208624Y-34772935D01*
X175206949Y-34769898D01*
X175205440Y-34766857D01*
X175204099Y-34763815D01*
X175201426Y-34756653D01*
X175199253Y-34749881D01*
X175197618Y-34743343D01*
X175196558Y-34736882D01*
X175196109Y-34730343D01*
X175196310Y-34723569D01*
X175197197Y-34716404D01*
X175198807Y-34708693D01*
X175201178Y-34700279D01*
X175204346Y-34691006D01*
X175208350Y-34680718D01*
X175213226Y-34669259D01*
X175219012Y-34656473D01*
X175225745Y-34642204D01*
X175242198Y-34608593D01*
X175255712Y-34581165D01*
X175267091Y-34556128D01*
X175277049Y-34531239D01*
X175286296Y-34504258D01*
X175295542Y-34472945D01*
X175305500Y-34435059D01*
X175316880Y-34388358D01*
X175330393Y-34330603D01*
X175334837Y-34312946D01*
X175339721Y-34296199D01*
X175345069Y-34280334D01*
X175350909Y-34265318D01*
X175357265Y-34251120D01*
X175364164Y-34237710D01*
X175371632Y-34225056D01*
X175379694Y-34213128D01*
X175388375Y-34201895D01*
X175397703Y-34191325D01*
X175407703Y-34181388D01*
X175418400Y-34172052D01*
X175429821Y-34163287D01*
X175441991Y-34155061D01*
X175454936Y-34147343D01*
X175468682Y-34140103D01*
X175486923Y-34131521D01*
X175506925Y-34123567D01*
X175529788Y-34115944D01*
X175556612Y-34108354D01*
X175588495Y-34100499D01*
X175626539Y-34092082D01*
X175671842Y-34082805D01*
X175725504Y-34072370D01*
X175739447Y-34069565D01*
X175753172Y-34066463D01*
X175766596Y-34063098D01*
X175779633Y-34059505D01*
X175792199Y-34055718D01*
X175804209Y-34051770D01*
X175815579Y-34047696D01*
X175826222Y-34043531D01*
X175836056Y-34039307D01*
X175844994Y-34035060D01*
X175852952Y-34030823D01*
X175859846Y-34026630D01*
X175862868Y-34024562D01*
X175865591Y-34022516D01*
X175868006Y-34020500D01*
X175870102Y-34018515D01*
X175871868Y-34016567D01*
X175873293Y-34014661D01*
X175874368Y-34012799D01*
X175875082Y-34010987D01*
X175875220Y-34009209D01*
X175874589Y-34007188D01*
X175871105Y-34002460D01*
X175864797Y-33996879D01*
X175855833Y-33990526D01*
X175844381Y-33983478D01*
X175830607Y-33975814D01*
X175796765Y-33958952D01*
X175755647Y-33940569D01*
X175708593Y-33921293D01*
X175656941Y-33901753D01*
X175602032Y-33882576D01*
X175524556Y-33857823D01*
X175443921Y-33834973D01*
X175360806Y-33814140D01*
X175275889Y-33795440D01*
X175189847Y-33778989D01*
X175103358Y-33764902D01*
X175017101Y-33753297D01*
X174931754Y-33744287D01*
X174877933Y-33740519D01*
X174816175Y-33737694D01*
X174749191Y-33735828D01*
X174679694Y-33734938D01*
X174610395Y-33735040D01*
X174544007Y-33736151D01*
X174483241Y-33738287D01*
X174430810Y-33741465D01*
X174363248Y-33747765D01*
X174294801Y-33755985D01*
X174226005Y-33765976D01*
X174157396Y-33777591D01*
X174089510Y-33790682D01*
X174022884Y-33805101D01*
X173958054Y-33820700D01*
X173895557Y-33837332D01*
X173835930Y-33854848D01*
X173779707Y-33873102D01*
X173727427Y-33891944D01*
X173679624Y-33911228D01*
X173636837Y-33930805D01*
X173599600Y-33950528D01*
X173568451Y-33970249D01*
X173543926Y-33989820D01*
X173532713Y-34000597D01*
X173522878Y-34011049D01*
X173514412Y-34021296D01*
X173507303Y-34031459D01*
X173504255Y-34036547D01*
X173501543Y-34041659D01*
X173499165Y-34046811D01*
X173497120Y-34052018D01*
X173495406Y-34057294D01*
X173494024Y-34062656D01*
X173492970Y-34068117D01*
X173492244Y-34073693D01*
X173491845Y-34079400D01*
X173491771Y-34085252D01*
X173492021Y-34091264D01*
X173492594Y-34097452D01*
X173494703Y-34110415D01*
X173498087Y-34124262D01*
X173502736Y-34139113D01*
X173508640Y-34155090D01*
X173515788Y-34172313D01*
X173524171Y-34190904D01*
X173533052Y-34211094D01*
X173540916Y-34230189D01*
X173547772Y-34248283D01*
X173553628Y-34265472D01*
X173558491Y-34281851D01*
X173562370Y-34297514D01*
X173565273Y-34312558D01*
X173567209Y-34327076D01*
X173568186Y-34341164D01*
X173568213Y-34354918D01*
X173567296Y-34368431D01*
X173565446Y-34381801D01*
X173562669Y-34395120D01*
X173558974Y-34408485D01*
X173554370Y-34421990D01*
X173548865Y-34435731D01*
X173544399Y-34445492D01*
X173539394Y-34455276D01*
X173533742Y-34465207D01*
X173527335Y-34475408D01*
X173520063Y-34486001D01*
X173511819Y-34497111D01*
X173502494Y-34508858D01*
X173491980Y-34521368D01*
X173480167Y-34534763D01*
X173466948Y-34549165D01*
X173435855Y-34581484D01*
X173397833Y-34619309D01*
X173352015Y-34663626D01*
X173297551Y-34716246D01*
X173275231Y-34738665D01*
X173255762Y-34759284D01*
X173238827Y-34778700D01*
X173224110Y-34797509D01*
X173211292Y-34816308D01*
X173200056Y-34835693D01*
X173190085Y-34856261D01*
X173181063Y-34878607D01*
X173172670Y-34903328D01*
X173164591Y-34931020D01*
X173156507Y-34962281D01*
X173148103Y-34997705D01*
X173129059Y-35083431D01*
X173125853Y-35097501D01*
X173122322Y-35111127D01*
X173118476Y-35124294D01*
X173114320Y-35136987D01*
X173109863Y-35149193D01*
X173105111Y-35160896D01*
X173100071Y-35172083D01*
X173094752Y-35182738D01*
X173089160Y-35192848D01*
X173083302Y-35202397D01*
X173077185Y-35211372D01*
X173070818Y-35219758D01*
X173064207Y-35227540D01*
X173057359Y-35234704D01*
X173050281Y-35241236D01*
X173042982Y-35247120D01*
X173033705Y-35253872D01*
X173024334Y-35260123D01*
X173014773Y-35265904D01*
X173004926Y-35271241D01*
X172994699Y-35276166D01*
X172983996Y-35280706D01*
X172972723Y-35284890D01*
X172960785Y-35288748D01*
X172948085Y-35292308D01*
X172934530Y-35295600D01*
X172920024Y-35298651D01*
X172904472Y-35301492D01*
X172887779Y-35304151D01*
X172869851Y-35306657D01*
X172829904Y-35311326D01*
X172808248Y-35313595D01*
X172786038Y-35316121D01*
X172763911Y-35318829D01*
X172742503Y-35321645D01*
X172722451Y-35324493D01*
X172704392Y-35327300D01*
X172688962Y-35329991D01*
X172676798Y-35332492D01*
X172663653Y-35335530D01*
X172650450Y-35339070D01*
X172637247Y-35343083D01*
X172624102Y-35347541D01*
X172611073Y-35352416D01*
X172598217Y-35357682D01*
X172585593Y-35363309D01*
X172573258Y-35369270D01*
X172561271Y-35375536D01*
X172549688Y-35382081D01*
X172538569Y-35388876D01*
X172527970Y-35395893D01*
X172517951Y-35403105D01*
X172508567Y-35410483D01*
X172499879Y-35417999D01*
X172491943Y-35425626D01*
X172482041Y-35436059D01*
X172472579Y-35447221D01*
X172463564Y-35459067D01*
X172455002Y-35471552D01*
X172439262Y-35498262D01*
X172425411Y-35526994D01*
X172413499Y-35557393D01*
X172403576Y-35589101D01*
X172395694Y-35621762D01*
X172389902Y-35655020D01*
X172386252Y-35688517D01*
X172384793Y-35721897D01*
X172385578Y-35754804D01*
X172388656Y-35786881D01*
X172394078Y-35817772D01*
X172401895Y-35847119D01*
X172406717Y-35861103D01*
X172412157Y-35874567D01*
X172418221Y-35887468D01*
X172424915Y-35899759D01*
X172429959Y-35907300D01*
X172436954Y-35916957D01*
X172445602Y-35928334D01*
X172455607Y-35941034D01*
X172466670Y-35954660D01*
X172478493Y-35968815D01*
X172490780Y-35983103D01*
X172503232Y-35997126D01*
X172516828Y-36012309D01*
X172529355Y-36026718D01*
X172540884Y-36040469D01*
X172551485Y-36053681D01*
X172561231Y-36066470D01*
X172570192Y-36078957D01*
X172578440Y-36091257D01*
X172586046Y-36103488D01*
X172593082Y-36115770D01*
X172599619Y-36128219D01*
X172605727Y-36140953D01*
X172611479Y-36154090D01*
X172616946Y-36167748D01*
X172622199Y-36182045D01*
X172627309Y-36197098D01*
X172632348Y-36213026D01*
X172635219Y-36222140D01*
X172638016Y-36230712D01*
X172640749Y-36238758D01*
X172643428Y-36246297D01*
X172646061Y-36253349D01*
X172648657Y-36259932D01*
X172651227Y-36266064D01*
X172653780Y-36271763D01*
X172656324Y-36277050D01*
X172658869Y-36281942D01*
X172661424Y-36286457D01*
X172663999Y-36290615D01*
X172666603Y-36294434D01*
X172669245Y-36297932D01*
X172671935Y-36301129D01*
X172674682Y-36304043D01*
X172681616Y-36310585D01*
X172684666Y-36313239D01*
X172687558Y-36315508D01*
X172690384Y-36317413D01*
X172693236Y-36318975D01*
X172696202Y-36320214D01*
X172699376Y-36321152D01*
X172702847Y-36321809D01*
X172706707Y-36322205D01*
X172711047Y-36322361D01*
X172715957Y-36322299D01*
X172721528Y-36322038D01*
X172727852Y-36321599D01*
X172743121Y-36320270D01*
X172791426Y-36316102D01*
X172834556Y-36313115D01*
X172873023Y-36311303D01*
X172890668Y-36310835D01*
X172907339Y-36310657D01*
X172923100Y-36310768D01*
X172938017Y-36311168D01*
X172952151Y-36311855D01*
X172965569Y-36312829D01*
X172978334Y-36314087D01*
X172990509Y-36315630D01*
X173002159Y-36317457D01*
X173013348Y-36319565D01*
X173027601Y-36322516D01*
X173041777Y-36325809D01*
X173055867Y-36329439D01*
X173069859Y-36333400D01*
X173083744Y-36337689D01*
X173097511Y-36342298D01*
X173111149Y-36347224D01*
X173124650Y-36352461D01*
X173138001Y-36358004D01*
X173151194Y-36363848D01*
X173164216Y-36369987D01*
X173177059Y-36376417D01*
X173189712Y-36383132D01*
X173202165Y-36390127D01*
X173214406Y-36397397D01*
X173226426Y-36404937D01*
X173243833Y-36416932D01*
X173262295Y-36431052D01*
X173281578Y-36447038D01*
X173301447Y-36464634D01*
X173321667Y-36483581D01*
X173342004Y-36503622D01*
X173362223Y-36524501D01*
X173382089Y-36545960D01*
X173401369Y-36567741D01*
X173419827Y-36589587D01*
X173437229Y-36611241D01*
X173453339Y-36632446D01*
X173467925Y-36652943D01*
X173480750Y-36672476D01*
X173491581Y-36690788D01*
X173500182Y-36707620D01*
X173509547Y-36729446D01*
X173513558Y-36740787D01*
X173517159Y-36752710D01*
X173520380Y-36765434D01*
X173523250Y-36779182D01*
X173528051Y-36810631D01*
X173531794Y-36848828D01*
X173534710Y-36895541D01*
X173537030Y-36952539D01*
X173538987Y-37021593D01*
X173540245Y-37089025D01*
X173540321Y-37152539D01*
X173539223Y-37211919D01*
X173536959Y-37266949D01*
X173533537Y-37317416D01*
X173528966Y-37363103D01*
X173523254Y-37403797D01*
X173519973Y-37422204D01*
X173516409Y-37439281D01*
X173513517Y-37451358D01*
X173509871Y-37464296D01*
X173500347Y-37492683D01*
X173487896Y-37524312D01*
X173472577Y-37559050D01*
X173454446Y-37596764D01*
X173433562Y-37637322D01*
X173409982Y-37680593D01*
X173383765Y-37726443D01*
X173359863Y-37767703D01*
X173339789Y-37803580D01*
X173331082Y-37819719D01*
X173323204Y-37834777D01*
X173316115Y-37848840D01*
X173309770Y-37861997D01*
X173304128Y-37874336D01*
X173299147Y-37885944D01*
X173294783Y-37896908D01*
X173290995Y-37907318D01*
X173287741Y-37917261D01*
X173284978Y-37926825D01*
X173282663Y-37936097D01*
X173280754Y-37945165D01*
X173278662Y-37966596D01*
X173278174Y-38000330D01*
X173279241Y-38045773D01*
X173281812Y-38102327D01*
X173291271Y-38246393D01*
X173306154Y-38427765D01*
X173308226Y-38452390D01*
X173309928Y-38474521D01*
X173311240Y-38494325D01*
X173312140Y-38511968D01*
X173312606Y-38527619D01*
X173312669Y-38534750D01*
X173312616Y-38541445D01*
X173312443Y-38547725D01*
X173312148Y-38553613D01*
X173311728Y-38559127D01*
X173311181Y-38564290D01*
X173310504Y-38569122D01*
X173309693Y-38573644D01*
X173308747Y-38577878D01*
X173307663Y-38581843D01*
X173306437Y-38585562D01*
X173305068Y-38589054D01*
X173303553Y-38592342D01*
X173301888Y-38595445D01*
X173300071Y-38598384D01*
X173298099Y-38601182D01*
X173295970Y-38603858D01*
X173293681Y-38606433D01*
X173291230Y-38608929D01*
X173288612Y-38611366D01*
X173285827Y-38613766D01*
X173282871Y-38616148D01*
X173274932Y-38621720D01*
X173270941Y-38624011D01*
X173266918Y-38625963D01*
X173262850Y-38627568D01*
X173258723Y-38628820D01*
X173254524Y-38629712D01*
X173250239Y-38630237D01*
X173245854Y-38630388D01*
X173241357Y-38630158D01*
X173236734Y-38629539D01*
X173231971Y-38628526D01*
X173227056Y-38627110D01*
X173221974Y-38625286D01*
X173211257Y-38620382D01*
X173199713Y-38613758D01*
X173187235Y-38605358D01*
X173173715Y-38595127D01*
X173159046Y-38583009D01*
X173143120Y-38568948D01*
X173125829Y-38552888D01*
X173107067Y-38534773D01*
X173086726Y-38514548D01*
X173057705Y-38484724D01*
X173031634Y-38456267D01*
X173008317Y-38428626D01*
X172987562Y-38401251D01*
X172969177Y-38373591D01*
X172952967Y-38345095D01*
X172938739Y-38315212D01*
X172926300Y-38283391D01*
X172915458Y-38249081D01*
X172906017Y-38211731D01*
X172897786Y-38170791D01*
X172890571Y-38125710D01*
X172884178Y-38075936D01*
X172878415Y-38020920D01*
X172868004Y-37892954D01*
X172862705Y-37822541D01*
X172857365Y-37759339D01*
X172851943Y-37703148D01*
X172846396Y-37653770D01*
X172840684Y-37611007D01*
X172834766Y-37574660D01*
X172831716Y-37558830D01*
X172828599Y-37544530D01*
X172825410Y-37531735D01*
X172822143Y-37520420D01*
X172819035Y-37511157D01*
X172815505Y-37501847D01*
X172811509Y-37492425D01*
X172807006Y-37482827D01*
X172801954Y-37472990D01*
X172796309Y-37462848D01*
X172790029Y-37452339D01*
X172783073Y-37441398D01*
X172775397Y-37429961D01*
X172766959Y-37417963D01*
X172747630Y-37392031D01*
X172724745Y-37363090D01*
X172697965Y-37330626D01*
X172671111Y-37298140D01*
X172648367Y-37269970D01*
X172629144Y-37245273D01*
X172620671Y-37233963D01*
X172612857Y-37223205D01*
X172605631Y-37212893D01*
X172598919Y-37202923D01*
X172592646Y-37193188D01*
X172586741Y-37183584D01*
X172581129Y-37174004D01*
X172575737Y-37164344D01*
X172570492Y-37154497D01*
X172565321Y-37144359D01*
X172553944Y-37119940D01*
X172544157Y-37095581D01*
X172535961Y-37071212D01*
X172529359Y-37046761D01*
X172524353Y-37022157D01*
X172520945Y-36997330D01*
X172519137Y-36972206D01*
X172518930Y-36946715D01*
X172520328Y-36920787D01*
X172523332Y-36894349D01*
X172527944Y-36867330D01*
X172534166Y-36839658D01*
X172542000Y-36811264D01*
X172551449Y-36782074D01*
X172562515Y-36752019D01*
X172575198Y-36721026D01*
X172586789Y-36693019D01*
X172591949Y-36679817D01*
X172596685Y-36667131D01*
X172600994Y-36654946D01*
X172604877Y-36643248D01*
X172608332Y-36632023D01*
X172611358Y-36621256D01*
X172613954Y-36610934D01*
X172616119Y-36601042D01*
X172617852Y-36591566D01*
X172619152Y-36582492D01*
X172620018Y-36573805D01*
X172620449Y-36565492D01*
X172620444Y-36557538D01*
X172620001Y-36549929D01*
X172619120Y-36542650D01*
X172617800Y-36535688D01*
X172616040Y-36529029D01*
X172613839Y-36522657D01*
X172611195Y-36516560D01*
X172608107Y-36510722D01*
X172604576Y-36505129D01*
X172600598Y-36499768D01*
X172596175Y-36494624D01*
X172591304Y-36489682D01*
X172585984Y-36484930D01*
X172580214Y-36480351D01*
X172573994Y-36475933D01*
X172567323Y-36471661D01*
X172560199Y-36467521D01*
X172552621Y-36463498D01*
X172546009Y-36459920D01*
X172539185Y-36455840D01*
X172532216Y-36451320D01*
X172525170Y-36446421D01*
X172518116Y-36441204D01*
X172511122Y-36435729D01*
X172504257Y-36430058D01*
X172497587Y-36424251D01*
X172491183Y-36418371D01*
X172485111Y-36412476D01*
X172479440Y-36406629D01*
X172474238Y-36400891D01*
X172469574Y-36395322D01*
X172465515Y-36389984D01*
X172462130Y-36384937D01*
X172459487Y-36380242D01*
X172458546Y-36378034D01*
X172457580Y-36375146D01*
X172455607Y-36367520D01*
X172453633Y-36357745D01*
X172451726Y-36346199D01*
X172449951Y-36333265D01*
X172448375Y-36319322D01*
X172447063Y-36304751D01*
X172446082Y-36289931D01*
X172444761Y-36270276D01*
X172443091Y-36252445D01*
X172440938Y-36236228D01*
X172438166Y-36221415D01*
X172436507Y-36214470D01*
X172434642Y-36207798D01*
X172432556Y-36201371D01*
X172430231Y-36195165D01*
X172427652Y-36189152D01*
X172424800Y-36183307D01*
X172421659Y-36177604D01*
X172418212Y-36172015D01*
X172414443Y-36166516D01*
X172410335Y-36161079D01*
X172405871Y-36155678D01*
X172401034Y-36150288D01*
X172390174Y-36139433D01*
X172377621Y-36128304D01*
X172363241Y-36116691D01*
X172346899Y-36104385D01*
X172328461Y-36091176D01*
X172307793Y-36076854D01*
X172290176Y-36064579D01*
X172272559Y-36051817D01*
X172255405Y-36038940D01*
X172239178Y-36026318D01*
X172224339Y-36014325D01*
X172211352Y-36003333D01*
X172205698Y-35998328D01*
X172200681Y-35993713D01*
X172196358Y-35989533D01*
X172192787Y-35985837D01*
X172183509Y-35975648D01*
X172174455Y-35964917D01*
X172165618Y-35953630D01*
X172156991Y-35941773D01*
X172148567Y-35929333D01*
X172140338Y-35916297D01*
X172132297Y-35902651D01*
X172124437Y-35888382D01*
X172116750Y-35873476D01*
X172109230Y-35857921D01*
X172101869Y-35841701D01*
X172094660Y-35824805D01*
X172087596Y-35807218D01*
X172080669Y-35788928D01*
X172067198Y-35750181D01*
X172062623Y-35736557D01*
X172058413Y-35724236D01*
X172054553Y-35713179D01*
X172051026Y-35703350D01*
X172047817Y-35694712D01*
X172044911Y-35687227D01*
X172043567Y-35683906D01*
X172042293Y-35680858D01*
X172041087Y-35678081D01*
X172039946Y-35675569D01*
X172038870Y-35673317D01*
X172037856Y-35671321D01*
X172036902Y-35669576D01*
X172036006Y-35668078D01*
X172035167Y-35666821D01*
X172034382Y-35665802D01*
X172033650Y-35665015D01*
X172032968Y-35664456D01*
X172032645Y-35664261D01*
X172032335Y-35664121D01*
X172032035Y-35664035D01*
X172031748Y-35664004D01*
X172031471Y-35664026D01*
X172031206Y-35664100D01*
X172030951Y-35664228D01*
X172030707Y-35664407D01*
X172030472Y-35664637D01*
X172030248Y-35664917D01*
X172029829Y-35665628D01*
X172029446Y-35666534D01*
X172029098Y-35667631D01*
X171997496Y-35790910D01*
X171970945Y-35914314D01*
X171949438Y-36037689D01*
X171932966Y-36160881D01*
X171921522Y-36283733D01*
X171915096Y-36406092D01*
X171913681Y-36527801D01*
X171694052Y-36527801D01*
X171695326Y-36398025D01*
X171701874Y-36267847D01*
X171713694Y-36138046D01*
X171730792Y-36008966D01*
X171753168Y-35880953D01*
X171780827Y-35754351D01*
X171813771Y-35629507D01*
X171852004Y-35506765D01*
X171886420Y-35410567D01*
X171924526Y-35315460D01*
X171966243Y-35221561D01*
X172011493Y-35128984D01*
X172060194Y-35037846D01*
X172112267Y-34948263D01*
X172167633Y-34860349D01*
X172226213Y-34774222D01*
X172287926Y-34689996D01*
X172352693Y-34607788D01*
X172420435Y-34527713D01*
X172491072Y-34449887D01*
X172564524Y-34374425D01*
X172640712Y-34301444D01*
X172719556Y-34231059D01*
X172800976Y-34163387D01*
X172890348Y-34094281D01*
X172981456Y-34029045D01*
X173074304Y-33967678D01*
X173168890Y-33910181D01*
X173265217Y-33856553D01*
X173363286Y-33806795D01*
X173463097Y-33760906D01*
X173564652Y-33718887D01*
X173667951Y-33680737D01*
X173772996Y-33646457D01*
X173879788Y-33616047D01*
X173988327Y-33589506D01*
X174098615Y-33566834D01*
X174210653Y-33548032D01*
X174324441Y-33533100D01*
X174439982Y-33522037D01*
X174495097Y-33519307D01*
X174567632Y-33517925D01*
X174651727Y-33517783D01*
X174741519Y-33518774D01*
G37*
D10*
X151500000Y-102000000D02*
X200500000Y-102000000D01*
X200500000Y-105000000D01*
X151500000Y-105000000D01*
X151500000Y-102000000D01*
X153184836Y-80372419D02*
X153184836Y-79610514D01*
X152994360Y-79800990D02*
X153184836Y-79610514D01*
X153184836Y-79610514D02*
X153375312Y-79800990D01*
X165322931Y-66336579D02*
X165437217Y-66336579D01*
X165437217Y-66336579D02*
X165494360Y-66365150D01*
X165494360Y-66365150D02*
X165551503Y-66422293D01*
X165551503Y-66422293D02*
X165580074Y-66536579D01*
X165580074Y-66536579D02*
X165580074Y-66736579D01*
X165580074Y-66736579D02*
X165551503Y-66850865D01*
X165551503Y-66850865D02*
X165494360Y-66908008D01*
X165494360Y-66908008D02*
X165437217Y-66936579D01*
X165437217Y-66936579D02*
X165322931Y-66936579D01*
X165322931Y-66936579D02*
X165265789Y-66908008D01*
X165265789Y-66908008D02*
X165208646Y-66850865D01*
X165208646Y-66850865D02*
X165180074Y-66736579D01*
X165180074Y-66736579D02*
X165180074Y-66536579D01*
X165180074Y-66536579D02*
X165208646Y-66422293D01*
X165208646Y-66422293D02*
X165265789Y-66365150D01*
X165265789Y-66365150D02*
X165322931Y-66336579D01*
X165837217Y-66336579D02*
X165837217Y-66822293D01*
X165837217Y-66822293D02*
X165865788Y-66879436D01*
X165865788Y-66879436D02*
X165894360Y-66908008D01*
X165894360Y-66908008D02*
X165951502Y-66936579D01*
X165951502Y-66936579D02*
X166065788Y-66936579D01*
X166065788Y-66936579D02*
X166122931Y-66908008D01*
X166122931Y-66908008D02*
X166151502Y-66879436D01*
X166151502Y-66879436D02*
X166180074Y-66822293D01*
X166180074Y-66822293D02*
X166180074Y-66336579D01*
X166380073Y-66336579D02*
X166722931Y-66336579D01*
X166551502Y-66936579D02*
X166551502Y-66336579D01*
X166780074Y-66993722D02*
X167237216Y-66993722D01*
X167694359Y-66365150D02*
X167637217Y-66336579D01*
X167637217Y-66336579D02*
X167551502Y-66336579D01*
X167551502Y-66336579D02*
X167465788Y-66365150D01*
X167465788Y-66365150D02*
X167408645Y-66422293D01*
X167408645Y-66422293D02*
X167380074Y-66479436D01*
X167380074Y-66479436D02*
X167351502Y-66593722D01*
X167351502Y-66593722D02*
X167351502Y-66679436D01*
X167351502Y-66679436D02*
X167380074Y-66793722D01*
X167380074Y-66793722D02*
X167408645Y-66850865D01*
X167408645Y-66850865D02*
X167465788Y-66908008D01*
X167465788Y-66908008D02*
X167551502Y-66936579D01*
X167551502Y-66936579D02*
X167608645Y-66936579D01*
X167608645Y-66936579D02*
X167694359Y-66908008D01*
X167694359Y-66908008D02*
X167722931Y-66879436D01*
X167722931Y-66879436D02*
X167722931Y-66679436D01*
X167722931Y-66679436D02*
X167608645Y-66679436D01*
X167980074Y-66936579D02*
X167980074Y-66336579D01*
X167980074Y-66336579D02*
X168322931Y-66936579D01*
X168322931Y-66936579D02*
X168322931Y-66336579D01*
X168608645Y-66936579D02*
X168608645Y-66336579D01*
X168608645Y-66336579D02*
X168751502Y-66336579D01*
X168751502Y-66336579D02*
X168837216Y-66365150D01*
X168837216Y-66365150D02*
X168894359Y-66422293D01*
X168894359Y-66422293D02*
X168922930Y-66479436D01*
X168922930Y-66479436D02*
X168951502Y-66593722D01*
X168951502Y-66593722D02*
X168951502Y-66679436D01*
X168951502Y-66679436D02*
X168922930Y-66793722D01*
X168922930Y-66793722D02*
X168894359Y-66850865D01*
X168894359Y-66850865D02*
X168837216Y-66908008D01*
X168837216Y-66908008D02*
X168751502Y-66936579D01*
X168751502Y-66936579D02*
X168608645Y-66936579D01*
X179684836Y-68110514D02*
X179684836Y-68872419D01*
X179875312Y-68681942D02*
X179684836Y-68872419D01*
X179684836Y-68872419D02*
X179494360Y-68681942D01*
X172303884Y-90348609D02*
X172637217Y-90348609D01*
X172780074Y-90872419D02*
X172303884Y-90872419D01*
X172303884Y-90872419D02*
X172303884Y-89872419D01*
X172303884Y-89872419D02*
X172780074Y-89872419D01*
X173161027Y-90824800D02*
X173303884Y-90872419D01*
X173303884Y-90872419D02*
X173541979Y-90872419D01*
X173541979Y-90872419D02*
X173637217Y-90824800D01*
X173637217Y-90824800D02*
X173684836Y-90777180D01*
X173684836Y-90777180D02*
X173732455Y-90681942D01*
X173732455Y-90681942D02*
X173732455Y-90586704D01*
X173732455Y-90586704D02*
X173684836Y-90491466D01*
X173684836Y-90491466D02*
X173637217Y-90443847D01*
X173637217Y-90443847D02*
X173541979Y-90396228D01*
X173541979Y-90396228D02*
X173351503Y-90348609D01*
X173351503Y-90348609D02*
X173256265Y-90300990D01*
X173256265Y-90300990D02*
X173208646Y-90253371D01*
X173208646Y-90253371D02*
X173161027Y-90158133D01*
X173161027Y-90158133D02*
X173161027Y-90062895D01*
X173161027Y-90062895D02*
X173208646Y-89967657D01*
X173208646Y-89967657D02*
X173256265Y-89920038D01*
X173256265Y-89920038D02*
X173351503Y-89872419D01*
X173351503Y-89872419D02*
X173589598Y-89872419D01*
X173589598Y-89872419D02*
X173732455Y-89920038D01*
X174161027Y-90872419D02*
X174161027Y-89872419D01*
X174161027Y-89872419D02*
X174541979Y-89872419D01*
X174541979Y-89872419D02*
X174637217Y-89920038D01*
X174637217Y-89920038D02*
X174684836Y-89967657D01*
X174684836Y-89967657D02*
X174732455Y-90062895D01*
X174732455Y-90062895D02*
X174732455Y-90205752D01*
X174732455Y-90205752D02*
X174684836Y-90300990D01*
X174684836Y-90300990D02*
X174637217Y-90348609D01*
X174637217Y-90348609D02*
X174541979Y-90396228D01*
X174541979Y-90396228D02*
X174161027Y-90396228D01*
X175065789Y-89872419D02*
X175684836Y-89872419D01*
X175684836Y-89872419D02*
X175351503Y-90253371D01*
X175351503Y-90253371D02*
X175494360Y-90253371D01*
X175494360Y-90253371D02*
X175589598Y-90300990D01*
X175589598Y-90300990D02*
X175637217Y-90348609D01*
X175637217Y-90348609D02*
X175684836Y-90443847D01*
X175684836Y-90443847D02*
X175684836Y-90681942D01*
X175684836Y-90681942D02*
X175637217Y-90777180D01*
X175637217Y-90777180D02*
X175589598Y-90824800D01*
X175589598Y-90824800D02*
X175494360Y-90872419D01*
X175494360Y-90872419D02*
X175208646Y-90872419D01*
X175208646Y-90872419D02*
X175113408Y-90824800D01*
X175113408Y-90824800D02*
X175065789Y-90777180D01*
X176065789Y-89967657D02*
X176113408Y-89920038D01*
X176113408Y-89920038D02*
X176208646Y-89872419D01*
X176208646Y-89872419D02*
X176446741Y-89872419D01*
X176446741Y-89872419D02*
X176541979Y-89920038D01*
X176541979Y-89920038D02*
X176589598Y-89967657D01*
X176589598Y-89967657D02*
X176637217Y-90062895D01*
X176637217Y-90062895D02*
X176637217Y-90158133D01*
X176637217Y-90158133D02*
X176589598Y-90300990D01*
X176589598Y-90300990D02*
X176018170Y-90872419D01*
X176018170Y-90872419D02*
X176637217Y-90872419D01*
D15*
G36*
X179886880Y-38126000D02*
G01*
X179886880Y-37740865D01*
X180660642Y-37740865D01*
X180660642Y-38126000D01*
X179886880Y-38126000D01*
G37*
G36*
X179500000Y-37739119D02*
G01*
X179500000Y-37353984D01*
X179885000Y-37353984D01*
X179885000Y-37739119D01*
X179500000Y-37739119D01*
G37*
G36*
X180660642Y-37739119D02*
G01*
X180660642Y-35811566D01*
X180273761Y-35811566D01*
X180273761Y-35426432D01*
X181425806Y-35426432D01*
X181425806Y-35811566D01*
X181038925Y-35811566D01*
X181038925Y-37739119D01*
X180660642Y-37739119D01*
G37*
G36*
X182195268Y-38126000D02*
G01*
X182195268Y-37740865D01*
X183347313Y-37740865D01*
X183347313Y-38126000D01*
X182195268Y-38126000D01*
G37*
G36*
X181808387Y-37739119D02*
G01*
X181808387Y-36587074D01*
X182193387Y-36587074D01*
X182193387Y-37739119D01*
X181808387Y-37739119D01*
G37*
G36*
X183349193Y-37739119D02*
G01*
X183349193Y-36587074D01*
X183734193Y-36587074D01*
X183734193Y-37739119D01*
X183349193Y-37739119D01*
G37*
G36*
X182195268Y-36585328D02*
G01*
X182195268Y-36200193D01*
X183347313Y-36200193D01*
X183347313Y-36585328D01*
X182195268Y-36585328D01*
G37*
G36*
X185657581Y-36972209D02*
G01*
X185657581Y-36587074D01*
X186042581Y-36587074D01*
X186042581Y-36972209D01*
X185657581Y-36972209D01*
G37*
G36*
X184116775Y-38126000D02*
G01*
X184116775Y-36200193D01*
X184501775Y-36200193D01*
X184501775Y-36587074D01*
X184886775Y-36587074D01*
X184886775Y-36972209D01*
X184501775Y-36972209D01*
X184501775Y-38126000D01*
X184116775Y-38126000D01*
G37*
G36*
X184886775Y-36585328D02*
G01*
X184886775Y-36200193D01*
X185655701Y-36200193D01*
X185655701Y-36585328D01*
X184886775Y-36585328D01*
G37*
G36*
X186812044Y-38126000D02*
G01*
X186812044Y-37740865D01*
X187964089Y-37740865D01*
X187964089Y-38126000D01*
X186812044Y-38126000D01*
G37*
G36*
X186425163Y-36973955D02*
G01*
X186425163Y-36200193D01*
X186810163Y-36200193D01*
X186810163Y-36973955D01*
X186425163Y-36973955D01*
G37*
G36*
X187965969Y-37740865D02*
G01*
X187965969Y-37352238D01*
X186812044Y-37352238D01*
X186812044Y-36967104D01*
X187965969Y-36967104D01*
X187965969Y-36200193D01*
X186812044Y-36200193D01*
X186812044Y-35815059D01*
X188350969Y-35815059D01*
X188350969Y-37740865D01*
X187965969Y-37740865D01*
G37*
G36*
X189120432Y-38126000D02*
G01*
X189120432Y-37740865D01*
X190272477Y-37740865D01*
X190272477Y-38126000D01*
X189120432Y-38126000D01*
G37*
G36*
X188733551Y-37739119D02*
G01*
X188733551Y-36587074D01*
X189118551Y-36587074D01*
X189118551Y-36967104D01*
X190274357Y-36967104D01*
X190274357Y-36587074D01*
X190659357Y-36587074D01*
X190659357Y-37352238D01*
X189118551Y-37352238D01*
X189118551Y-37739119D01*
X188733551Y-37739119D01*
G37*
G36*
X189120432Y-36585328D02*
G01*
X189120432Y-36200193D01*
X190272477Y-36200193D01*
X190272477Y-36585328D01*
X189120432Y-36585328D01*
G37*
G36*
X193737477Y-38126000D02*
G01*
X193737477Y-37740865D01*
X194117641Y-37740865D01*
X194117641Y-38126000D01*
X193737477Y-38126000D01*
G37*
G36*
X193352477Y-37739119D02*
G01*
X193352477Y-37353984D01*
X193737477Y-37353984D01*
X193737477Y-37739119D01*
X193352477Y-37739119D01*
G37*
G36*
X194119521Y-37739119D02*
G01*
X194119521Y-37353984D01*
X194504521Y-37353984D01*
X194504521Y-37739119D01*
X194119521Y-37739119D01*
G37*
G36*
X192965596Y-37352238D02*
G01*
X192965596Y-36200193D01*
X193350596Y-36200193D01*
X193350596Y-37352238D01*
X192965596Y-37352238D01*
G37*
G36*
X194506402Y-37352238D02*
G01*
X194506402Y-36200193D01*
X194891402Y-36200193D01*
X194891402Y-37352238D01*
X194506402Y-37352238D01*
G37*
G36*
X195660865Y-38126000D02*
G01*
X195660865Y-37740865D01*
X196812909Y-37740865D01*
X196812909Y-38126000D01*
X195660865Y-38126000D01*
G37*
G36*
X196043984Y-36967104D02*
G01*
X196043984Y-36587074D01*
X196426029Y-36587074D01*
X196426029Y-36967104D01*
X196043984Y-36967104D01*
G37*
G36*
X195273984Y-37739119D02*
G01*
X195273984Y-35813313D01*
X195658984Y-35813313D01*
X195658984Y-36967104D01*
X196043984Y-36967104D01*
X196043984Y-37352238D01*
X195658984Y-37352238D01*
X195658984Y-37739119D01*
X195273984Y-37739119D01*
G37*
G36*
X196814790Y-37739119D02*
G01*
X196814790Y-36585328D01*
X196426029Y-36585328D01*
X196426029Y-36200193D01*
X196814790Y-36200193D01*
X196814790Y-35813313D01*
X197199790Y-35813313D01*
X197199790Y-37739119D01*
X196814790Y-37739119D01*
G37*
G36*
X195660865Y-35811566D02*
G01*
X195660865Y-35426432D01*
X196812909Y-35426432D01*
X196812909Y-35811566D01*
X195660865Y-35811566D01*
G37*
G36*
X197582372Y-38126000D02*
G01*
X197582372Y-37352238D01*
X198356133Y-37352238D01*
X198356133Y-38126000D01*
X197582372Y-38126000D01*
G37*
G36*
X198736566Y-38126000D02*
G01*
X198736566Y-37740865D01*
X199123447Y-37740865D01*
X199123447Y-36200193D01*
X198736566Y-36200193D01*
X198736566Y-35815059D01*
X199123447Y-35815059D01*
X199123447Y-35426432D01*
X199508447Y-35426432D01*
X199508447Y-37740865D01*
X199888611Y-37740865D01*
X199888611Y-38126000D01*
X198736566Y-38126000D01*
G37*
D10*
X181396225Y-49550415D02*
X181396225Y-50312320D01*
X181586701Y-50121843D02*
X181396225Y-50312320D01*
X181396225Y-50312320D02*
X181205749Y-50121843D01*
X178917960Y-67042554D02*
X179117960Y-67642554D01*
X179117960Y-67642554D02*
X179317960Y-67042554D01*
X179860818Y-67585411D02*
X179832246Y-67613983D01*
X179832246Y-67613983D02*
X179746532Y-67642554D01*
X179746532Y-67642554D02*
X179689389Y-67642554D01*
X179689389Y-67642554D02*
X179603675Y-67613983D01*
X179603675Y-67613983D02*
X179546532Y-67556840D01*
X179546532Y-67556840D02*
X179517961Y-67499697D01*
X179517961Y-67499697D02*
X179489389Y-67385411D01*
X179489389Y-67385411D02*
X179489389Y-67299697D01*
X179489389Y-67299697D02*
X179517961Y-67185411D01*
X179517961Y-67185411D02*
X179546532Y-67128268D01*
X179546532Y-67128268D02*
X179603675Y-67071125D01*
X179603675Y-67071125D02*
X179689389Y-67042554D01*
X179689389Y-67042554D02*
X179746532Y-67042554D01*
X179746532Y-67042554D02*
X179832246Y-67071125D01*
X179832246Y-67071125D02*
X179860818Y-67099697D01*
X180460818Y-67585411D02*
X180432246Y-67613983D01*
X180432246Y-67613983D02*
X180346532Y-67642554D01*
X180346532Y-67642554D02*
X180289389Y-67642554D01*
X180289389Y-67642554D02*
X180203675Y-67613983D01*
X180203675Y-67613983D02*
X180146532Y-67556840D01*
X180146532Y-67556840D02*
X180117961Y-67499697D01*
X180117961Y-67499697D02*
X180089389Y-67385411D01*
X180089389Y-67385411D02*
X180089389Y-67299697D01*
X180089389Y-67299697D02*
X180117961Y-67185411D01*
X180117961Y-67185411D02*
X180146532Y-67128268D01*
X180146532Y-67128268D02*
X180203675Y-67071125D01*
X180203675Y-67071125D02*
X180289389Y-67042554D01*
X180289389Y-67042554D02*
X180346532Y-67042554D01*
X180346532Y-67042554D02*
X180432246Y-67071125D01*
X180432246Y-67071125D02*
X180460818Y-67099697D01*
X152762489Y-80865150D02*
X152705347Y-80836579D01*
X152705347Y-80836579D02*
X152619632Y-80836579D01*
X152619632Y-80836579D02*
X152533918Y-80865150D01*
X152533918Y-80865150D02*
X152476775Y-80922293D01*
X152476775Y-80922293D02*
X152448204Y-80979436D01*
X152448204Y-80979436D02*
X152419632Y-81093722D01*
X152419632Y-81093722D02*
X152419632Y-81179436D01*
X152419632Y-81179436D02*
X152448204Y-81293722D01*
X152448204Y-81293722D02*
X152476775Y-81350865D01*
X152476775Y-81350865D02*
X152533918Y-81408008D01*
X152533918Y-81408008D02*
X152619632Y-81436579D01*
X152619632Y-81436579D02*
X152676775Y-81436579D01*
X152676775Y-81436579D02*
X152762489Y-81408008D01*
X152762489Y-81408008D02*
X152791061Y-81379436D01*
X152791061Y-81379436D02*
X152791061Y-81179436D01*
X152791061Y-81179436D02*
X152676775Y-81179436D01*
X153048204Y-81436579D02*
X153048204Y-80836579D01*
X153048204Y-80836579D02*
X153391061Y-81436579D01*
X153391061Y-81436579D02*
X153391061Y-80836579D01*
X153676775Y-81436579D02*
X153676775Y-80836579D01*
X153676775Y-80836579D02*
X153819632Y-80836579D01*
X153819632Y-80836579D02*
X153905346Y-80865150D01*
X153905346Y-80865150D02*
X153962489Y-80922293D01*
X153962489Y-80922293D02*
X153991060Y-80979436D01*
X153991060Y-80979436D02*
X154019632Y-81093722D01*
X154019632Y-81093722D02*
X154019632Y-81179436D01*
X154019632Y-81179436D02*
X153991060Y-81293722D01*
X153991060Y-81293722D02*
X153962489Y-81350865D01*
X153962489Y-81350865D02*
X153905346Y-81408008D01*
X153905346Y-81408008D02*
X153819632Y-81436579D01*
X153819632Y-81436579D02*
X153676775Y-81436579D01*
X167536908Y-112200067D02*
X167536908Y-111438162D01*
X167346432Y-111628638D02*
X167536908Y-111438162D01*
X167536908Y-111438162D02*
X167727384Y-111628638D01*
X186165789Y-109692800D02*
X185708646Y-109692800D01*
X185822931Y-109807085D02*
X185708646Y-109692800D01*
X185708646Y-109692800D02*
X185822931Y-109578514D01*
X186365788Y-109321371D02*
X186565788Y-109921371D01*
X186565788Y-109921371D02*
X186765788Y-109321371D01*
X186965789Y-109921371D02*
X186965789Y-109321371D01*
X186965789Y-109321371D02*
X187165789Y-109749942D01*
X187165789Y-109749942D02*
X187365789Y-109321371D01*
X187365789Y-109321371D02*
X187365789Y-109921371D01*
X185637217Y-46848609D02*
X185780074Y-46896228D01*
X185780074Y-46896228D02*
X185827693Y-46943847D01*
X185827693Y-46943847D02*
X185875312Y-47039085D01*
X185875312Y-47039085D02*
X185875312Y-47181942D01*
X185875312Y-47181942D02*
X185827693Y-47277180D01*
X185827693Y-47277180D02*
X185780074Y-47324800D01*
X185780074Y-47324800D02*
X185684836Y-47372419D01*
X185684836Y-47372419D02*
X185303884Y-47372419D01*
X185303884Y-47372419D02*
X185303884Y-46372419D01*
X185303884Y-46372419D02*
X185637217Y-46372419D01*
X185637217Y-46372419D02*
X185732455Y-46420038D01*
X185732455Y-46420038D02*
X185780074Y-46467657D01*
X185780074Y-46467657D02*
X185827693Y-46562895D01*
X185827693Y-46562895D02*
X185827693Y-46658133D01*
X185827693Y-46658133D02*
X185780074Y-46753371D01*
X185780074Y-46753371D02*
X185732455Y-46800990D01*
X185732455Y-46800990D02*
X185637217Y-46848609D01*
X185637217Y-46848609D02*
X185303884Y-46848609D01*
X186303884Y-47372419D02*
X186303884Y-46372419D01*
X186303884Y-46372419D02*
X186637217Y-47086704D01*
X186637217Y-47086704D02*
X186970550Y-46372419D01*
X186970550Y-46372419D02*
X186970550Y-47372419D01*
X187446741Y-46848609D02*
X187780074Y-46848609D01*
X187922931Y-47372419D02*
X187446741Y-47372419D01*
X187446741Y-47372419D02*
X187446741Y-46372419D01*
X187446741Y-46372419D02*
X187922931Y-46372419D01*
X188303884Y-46467657D02*
X188351503Y-46420038D01*
X188351503Y-46420038D02*
X188446741Y-46372419D01*
X188446741Y-46372419D02*
X188684836Y-46372419D01*
X188684836Y-46372419D02*
X188780074Y-46420038D01*
X188780074Y-46420038D02*
X188827693Y-46467657D01*
X188827693Y-46467657D02*
X188875312Y-46562895D01*
X188875312Y-46562895D02*
X188875312Y-46658133D01*
X188875312Y-46658133D02*
X188827693Y-46800990D01*
X188827693Y-46800990D02*
X188256265Y-47372419D01*
X188256265Y-47372419D02*
X188875312Y-47372419D01*
X189446741Y-46800990D02*
X189351503Y-46753371D01*
X189351503Y-46753371D02*
X189303884Y-46705752D01*
X189303884Y-46705752D02*
X189256265Y-46610514D01*
X189256265Y-46610514D02*
X189256265Y-46562895D01*
X189256265Y-46562895D02*
X189303884Y-46467657D01*
X189303884Y-46467657D02*
X189351503Y-46420038D01*
X189351503Y-46420038D02*
X189446741Y-46372419D01*
X189446741Y-46372419D02*
X189637217Y-46372419D01*
X189637217Y-46372419D02*
X189732455Y-46420038D01*
X189732455Y-46420038D02*
X189780074Y-46467657D01*
X189780074Y-46467657D02*
X189827693Y-46562895D01*
X189827693Y-46562895D02*
X189827693Y-46610514D01*
X189827693Y-46610514D02*
X189780074Y-46705752D01*
X189780074Y-46705752D02*
X189732455Y-46753371D01*
X189732455Y-46753371D02*
X189637217Y-46800990D01*
X189637217Y-46800990D02*
X189446741Y-46800990D01*
X189446741Y-46800990D02*
X189351503Y-46848609D01*
X189351503Y-46848609D02*
X189303884Y-46896228D01*
X189303884Y-46896228D02*
X189256265Y-46991466D01*
X189256265Y-46991466D02*
X189256265Y-47181942D01*
X189256265Y-47181942D02*
X189303884Y-47277180D01*
X189303884Y-47277180D02*
X189351503Y-47324800D01*
X189351503Y-47324800D02*
X189446741Y-47372419D01*
X189446741Y-47372419D02*
X189637217Y-47372419D01*
X189637217Y-47372419D02*
X189732455Y-47324800D01*
X189732455Y-47324800D02*
X189780074Y-47277180D01*
X189780074Y-47277180D02*
X189827693Y-47181942D01*
X189827693Y-47181942D02*
X189827693Y-46991466D01*
X189827693Y-46991466D02*
X189780074Y-46896228D01*
X189780074Y-46896228D02*
X189732455Y-46848609D01*
X189732455Y-46848609D02*
X189637217Y-46800990D01*
X190446741Y-46372419D02*
X190541979Y-46372419D01*
X190541979Y-46372419D02*
X190637217Y-46420038D01*
X190637217Y-46420038D02*
X190684836Y-46467657D01*
X190684836Y-46467657D02*
X190732455Y-46562895D01*
X190732455Y-46562895D02*
X190780074Y-46753371D01*
X190780074Y-46753371D02*
X190780074Y-46991466D01*
X190780074Y-46991466D02*
X190732455Y-47181942D01*
X190732455Y-47181942D02*
X190684836Y-47277180D01*
X190684836Y-47277180D02*
X190637217Y-47324800D01*
X190637217Y-47324800D02*
X190541979Y-47372419D01*
X190541979Y-47372419D02*
X190446741Y-47372419D01*
X190446741Y-47372419D02*
X190351503Y-47324800D01*
X190351503Y-47324800D02*
X190303884Y-47277180D01*
X190303884Y-47277180D02*
X190256265Y-47181942D01*
X190256265Y-47181942D02*
X190208646Y-46991466D01*
X190208646Y-46991466D02*
X190208646Y-46753371D01*
X190208646Y-46753371D02*
X190256265Y-46562895D01*
X190256265Y-46562895D02*
X190303884Y-46467657D01*
X190303884Y-46467657D02*
X190351503Y-46420038D01*
X190351503Y-46420038D02*
X190446741Y-46372419D01*
X187161027Y-118372419D02*
X187732455Y-118372419D01*
X187446741Y-119372419D02*
X187446741Y-118372419D01*
X188399122Y-118848609D02*
X188541979Y-118896228D01*
X188541979Y-118896228D02*
X188589598Y-118943847D01*
X188589598Y-118943847D02*
X188637217Y-119039085D01*
X188637217Y-119039085D02*
X188637217Y-119181942D01*
X188637217Y-119181942D02*
X188589598Y-119277180D01*
X188589598Y-119277180D02*
X188541979Y-119324800D01*
X188541979Y-119324800D02*
X188446741Y-119372419D01*
X188446741Y-119372419D02*
X188065789Y-119372419D01*
X188065789Y-119372419D02*
X188065789Y-118372419D01*
X188065789Y-118372419D02*
X188399122Y-118372419D01*
X188399122Y-118372419D02*
X188494360Y-118420038D01*
X188494360Y-118420038D02*
X188541979Y-118467657D01*
X188541979Y-118467657D02*
X188589598Y-118562895D01*
X188589598Y-118562895D02*
X188589598Y-118658133D01*
X188589598Y-118658133D02*
X188541979Y-118753371D01*
X188541979Y-118753371D02*
X188494360Y-118800990D01*
X188494360Y-118800990D02*
X188399122Y-118848609D01*
X188399122Y-118848609D02*
X188065789Y-118848609D01*
X189494360Y-118372419D02*
X189303884Y-118372419D01*
X189303884Y-118372419D02*
X189208646Y-118420038D01*
X189208646Y-118420038D02*
X189161027Y-118467657D01*
X189161027Y-118467657D02*
X189065789Y-118610514D01*
X189065789Y-118610514D02*
X189018170Y-118800990D01*
X189018170Y-118800990D02*
X189018170Y-119181942D01*
X189018170Y-119181942D02*
X189065789Y-119277180D01*
X189065789Y-119277180D02*
X189113408Y-119324800D01*
X189113408Y-119324800D02*
X189208646Y-119372419D01*
X189208646Y-119372419D02*
X189399122Y-119372419D01*
X189399122Y-119372419D02*
X189494360Y-119324800D01*
X189494360Y-119324800D02*
X189541979Y-119277180D01*
X189541979Y-119277180D02*
X189589598Y-119181942D01*
X189589598Y-119181942D02*
X189589598Y-118943847D01*
X189589598Y-118943847D02*
X189541979Y-118848609D01*
X189541979Y-118848609D02*
X189494360Y-118800990D01*
X189494360Y-118800990D02*
X189399122Y-118753371D01*
X189399122Y-118753371D02*
X189208646Y-118753371D01*
X189208646Y-118753371D02*
X189113408Y-118800990D01*
X189113408Y-118800990D02*
X189065789Y-118848609D01*
X189065789Y-118848609D02*
X189018170Y-118943847D01*
X190446741Y-118372419D02*
X190256265Y-118372419D01*
X190256265Y-118372419D02*
X190161027Y-118420038D01*
X190161027Y-118420038D02*
X190113408Y-118467657D01*
X190113408Y-118467657D02*
X190018170Y-118610514D01*
X190018170Y-118610514D02*
X189970551Y-118800990D01*
X189970551Y-118800990D02*
X189970551Y-119181942D01*
X189970551Y-119181942D02*
X190018170Y-119277180D01*
X190018170Y-119277180D02*
X190065789Y-119324800D01*
X190065789Y-119324800D02*
X190161027Y-119372419D01*
X190161027Y-119372419D02*
X190351503Y-119372419D01*
X190351503Y-119372419D02*
X190446741Y-119324800D01*
X190446741Y-119324800D02*
X190494360Y-119277180D01*
X190494360Y-119277180D02*
X190541979Y-119181942D01*
X190541979Y-119181942D02*
X190541979Y-118943847D01*
X190541979Y-118943847D02*
X190494360Y-118848609D01*
X190494360Y-118848609D02*
X190446741Y-118800990D01*
X190446741Y-118800990D02*
X190351503Y-118753371D01*
X190351503Y-118753371D02*
X190161027Y-118753371D01*
X190161027Y-118753371D02*
X190065789Y-118800990D01*
X190065789Y-118800990D02*
X190018170Y-118848609D01*
X190018170Y-118848609D02*
X189970551Y-118943847D01*
X191494360Y-119372419D02*
X190922932Y-119372419D01*
X191208646Y-119372419D02*
X191208646Y-118372419D01*
X191208646Y-118372419D02*
X191113408Y-118515276D01*
X191113408Y-118515276D02*
X191018170Y-118610514D01*
X191018170Y-118610514D02*
X190922932Y-118658133D01*
X191875313Y-118467657D02*
X191922932Y-118420038D01*
X191922932Y-118420038D02*
X192018170Y-118372419D01*
X192018170Y-118372419D02*
X192256265Y-118372419D01*
X192256265Y-118372419D02*
X192351503Y-118420038D01*
X192351503Y-118420038D02*
X192399122Y-118467657D01*
X192399122Y-118467657D02*
X192446741Y-118562895D01*
X192446741Y-118562895D02*
X192446741Y-118658133D01*
X192446741Y-118658133D02*
X192399122Y-118800990D01*
X192399122Y-118800990D02*
X191827694Y-119372419D01*
X191827694Y-119372419D02*
X192446741Y-119372419D01*
X193208646Y-118848609D02*
X192875313Y-118848609D01*
X192875313Y-119372419D02*
X192875313Y-118372419D01*
X192875313Y-118372419D02*
X193351503Y-118372419D01*
X193732456Y-119372419D02*
X193732456Y-118372419D01*
X193732456Y-118372419D02*
X194303884Y-119372419D01*
X194303884Y-119372419D02*
X194303884Y-118372419D01*
X195303884Y-118420038D02*
X195208646Y-118372419D01*
X195208646Y-118372419D02*
X195065789Y-118372419D01*
X195065789Y-118372419D02*
X194922932Y-118420038D01*
X194922932Y-118420038D02*
X194827694Y-118515276D01*
X194827694Y-118515276D02*
X194780075Y-118610514D01*
X194780075Y-118610514D02*
X194732456Y-118800990D01*
X194732456Y-118800990D02*
X194732456Y-118943847D01*
X194732456Y-118943847D02*
X194780075Y-119134323D01*
X194780075Y-119134323D02*
X194827694Y-119229561D01*
X194827694Y-119229561D02*
X194922932Y-119324800D01*
X194922932Y-119324800D02*
X195065789Y-119372419D01*
X195065789Y-119372419D02*
X195161027Y-119372419D01*
X195161027Y-119372419D02*
X195303884Y-119324800D01*
X195303884Y-119324800D02*
X195351503Y-119277180D01*
X195351503Y-119277180D02*
X195351503Y-118943847D01*
X195351503Y-118943847D02*
X195161027Y-118943847D01*
X166957494Y-67946254D02*
X166957494Y-68708159D01*
X167147970Y-68517682D02*
X166957494Y-68708159D01*
X166957494Y-68708159D02*
X166767018Y-68517682D01*
X157803884Y-62372419D02*
X157803884Y-61372419D01*
X157803884Y-61372419D02*
X158137217Y-62086704D01*
X158137217Y-62086704D02*
X158470550Y-61372419D01*
X158470550Y-61372419D02*
X158470550Y-62372419D01*
X158946741Y-62372419D02*
X158946741Y-61372419D01*
X158946741Y-61372419D02*
X159327693Y-61372419D01*
X159327693Y-61372419D02*
X159422931Y-61420038D01*
X159422931Y-61420038D02*
X159470550Y-61467657D01*
X159470550Y-61467657D02*
X159518169Y-61562895D01*
X159518169Y-61562895D02*
X159518169Y-61705752D01*
X159518169Y-61705752D02*
X159470550Y-61800990D01*
X159470550Y-61800990D02*
X159422931Y-61848609D01*
X159422931Y-61848609D02*
X159327693Y-61896228D01*
X159327693Y-61896228D02*
X158946741Y-61896228D01*
X160470550Y-62372419D02*
X159899122Y-62372419D01*
X160184836Y-62372419D02*
X160184836Y-61372419D01*
X160184836Y-61372419D02*
X160089598Y-61515276D01*
X160089598Y-61515276D02*
X159994360Y-61610514D01*
X159994360Y-61610514D02*
X159899122Y-61658133D01*
X161375312Y-61372419D02*
X160899122Y-61372419D01*
X160899122Y-61372419D02*
X160851503Y-61848609D01*
X160851503Y-61848609D02*
X160899122Y-61800990D01*
X160899122Y-61800990D02*
X160994360Y-61753371D01*
X160994360Y-61753371D02*
X161232455Y-61753371D01*
X161232455Y-61753371D02*
X161327693Y-61800990D01*
X161327693Y-61800990D02*
X161375312Y-61848609D01*
X161375312Y-61848609D02*
X161422931Y-61943847D01*
X161422931Y-61943847D02*
X161422931Y-62181942D01*
X161422931Y-62181942D02*
X161375312Y-62277180D01*
X161375312Y-62277180D02*
X161327693Y-62324800D01*
X161327693Y-62324800D02*
X161232455Y-62372419D01*
X161232455Y-62372419D02*
X160994360Y-62372419D01*
X160994360Y-62372419D02*
X160899122Y-62324800D01*
X160899122Y-62324800D02*
X160851503Y-62277180D01*
X161994360Y-61800990D02*
X161899122Y-61753371D01*
X161899122Y-61753371D02*
X161851503Y-61705752D01*
X161851503Y-61705752D02*
X161803884Y-61610514D01*
X161803884Y-61610514D02*
X161803884Y-61562895D01*
X161803884Y-61562895D02*
X161851503Y-61467657D01*
X161851503Y-61467657D02*
X161899122Y-61420038D01*
X161899122Y-61420038D02*
X161994360Y-61372419D01*
X161994360Y-61372419D02*
X162184836Y-61372419D01*
X162184836Y-61372419D02*
X162280074Y-61420038D01*
X162280074Y-61420038D02*
X162327693Y-61467657D01*
X162327693Y-61467657D02*
X162375312Y-61562895D01*
X162375312Y-61562895D02*
X162375312Y-61610514D01*
X162375312Y-61610514D02*
X162327693Y-61705752D01*
X162327693Y-61705752D02*
X162280074Y-61753371D01*
X162280074Y-61753371D02*
X162184836Y-61800990D01*
X162184836Y-61800990D02*
X161994360Y-61800990D01*
X161994360Y-61800990D02*
X161899122Y-61848609D01*
X161899122Y-61848609D02*
X161851503Y-61896228D01*
X161851503Y-61896228D02*
X161803884Y-61991466D01*
X161803884Y-61991466D02*
X161803884Y-62181942D01*
X161803884Y-62181942D02*
X161851503Y-62277180D01*
X161851503Y-62277180D02*
X161899122Y-62324800D01*
X161899122Y-62324800D02*
X161994360Y-62372419D01*
X161994360Y-62372419D02*
X162184836Y-62372419D01*
X162184836Y-62372419D02*
X162280074Y-62324800D01*
X162280074Y-62324800D02*
X162327693Y-62277180D01*
X162327693Y-62277180D02*
X162375312Y-62181942D01*
X162375312Y-62181942D02*
X162375312Y-61991466D01*
X162375312Y-61991466D02*
X162327693Y-61896228D01*
X162327693Y-61896228D02*
X162280074Y-61848609D01*
X162280074Y-61848609D02*
X162184836Y-61800990D01*
X163232455Y-61705752D02*
X163232455Y-62372419D01*
X162994360Y-61324800D02*
X162756265Y-62039085D01*
X162756265Y-62039085D02*
X163375312Y-62039085D01*
X163756265Y-61848609D02*
X164089598Y-61848609D01*
X164232455Y-62372419D02*
X163756265Y-62372419D01*
X163756265Y-62372419D02*
X163756265Y-61372419D01*
X163756265Y-61372419D02*
X164232455Y-61372419D01*
X164661027Y-62372419D02*
X164661027Y-61372419D01*
X164661027Y-61372419D02*
X165232455Y-62372419D01*
X165232455Y-62372419D02*
X165232455Y-61372419D01*
X156803884Y-124372419D02*
X156803884Y-123372419D01*
X156803884Y-123372419D02*
X157375312Y-124372419D01*
X157375312Y-124372419D02*
X157375312Y-123372419D01*
X157851503Y-123848609D02*
X158184836Y-123848609D01*
X158327693Y-124372419D02*
X157851503Y-124372419D01*
X157851503Y-124372419D02*
X157851503Y-123372419D01*
X157851503Y-123372419D02*
X158327693Y-123372419D01*
X158946741Y-123372419D02*
X159137217Y-123372419D01*
X159137217Y-123372419D02*
X159232455Y-123420038D01*
X159232455Y-123420038D02*
X159327693Y-123515276D01*
X159327693Y-123515276D02*
X159375312Y-123705752D01*
X159375312Y-123705752D02*
X159375312Y-124039085D01*
X159375312Y-124039085D02*
X159327693Y-124229561D01*
X159327693Y-124229561D02*
X159232455Y-124324800D01*
X159232455Y-124324800D02*
X159137217Y-124372419D01*
X159137217Y-124372419D02*
X158946741Y-124372419D01*
X158946741Y-124372419D02*
X158851503Y-124324800D01*
X158851503Y-124324800D02*
X158756265Y-124229561D01*
X158756265Y-124229561D02*
X158708646Y-124039085D01*
X158708646Y-124039085D02*
X158708646Y-123705752D01*
X158708646Y-123705752D02*
X158756265Y-123515276D01*
X158756265Y-123515276D02*
X158851503Y-123420038D01*
X158851503Y-123420038D02*
X158946741Y-123372419D01*
X159803884Y-123991466D02*
X160565789Y-123991466D01*
X161470550Y-123372419D02*
X161280074Y-123372419D01*
X161280074Y-123372419D02*
X161184836Y-123420038D01*
X161184836Y-123420038D02*
X161137217Y-123467657D01*
X161137217Y-123467657D02*
X161041979Y-123610514D01*
X161041979Y-123610514D02*
X160994360Y-123800990D01*
X160994360Y-123800990D02*
X160994360Y-124181942D01*
X160994360Y-124181942D02*
X161041979Y-124277180D01*
X161041979Y-124277180D02*
X161089598Y-124324800D01*
X161089598Y-124324800D02*
X161184836Y-124372419D01*
X161184836Y-124372419D02*
X161375312Y-124372419D01*
X161375312Y-124372419D02*
X161470550Y-124324800D01*
X161470550Y-124324800D02*
X161518169Y-124277180D01*
X161518169Y-124277180D02*
X161565788Y-124181942D01*
X161565788Y-124181942D02*
X161565788Y-123943847D01*
X161565788Y-123943847D02*
X161518169Y-123848609D01*
X161518169Y-123848609D02*
X161470550Y-123800990D01*
X161470550Y-123800990D02*
X161375312Y-123753371D01*
X161375312Y-123753371D02*
X161184836Y-123753371D01*
X161184836Y-123753371D02*
X161089598Y-123800990D01*
X161089598Y-123800990D02*
X161041979Y-123848609D01*
X161041979Y-123848609D02*
X160994360Y-123943847D01*
X161994360Y-124372419D02*
X161994360Y-123372419D01*
X161994360Y-123372419D02*
X162327693Y-124086704D01*
X162327693Y-124086704D02*
X162661026Y-123372419D01*
X162661026Y-123372419D02*
X162661026Y-124372419D01*
X163137217Y-123991466D02*
X163899122Y-123991466D01*
X164565788Y-123372419D02*
X164661026Y-123372419D01*
X164661026Y-123372419D02*
X164756264Y-123420038D01*
X164756264Y-123420038D02*
X164803883Y-123467657D01*
X164803883Y-123467657D02*
X164851502Y-123562895D01*
X164851502Y-123562895D02*
X164899121Y-123753371D01*
X164899121Y-123753371D02*
X164899121Y-123991466D01*
X164899121Y-123991466D02*
X164851502Y-124181942D01*
X164851502Y-124181942D02*
X164803883Y-124277180D01*
X164803883Y-124277180D02*
X164756264Y-124324800D01*
X164756264Y-124324800D02*
X164661026Y-124372419D01*
X164661026Y-124372419D02*
X164565788Y-124372419D01*
X164565788Y-124372419D02*
X164470550Y-124324800D01*
X164470550Y-124324800D02*
X164422931Y-124277180D01*
X164422931Y-124277180D02*
X164375312Y-124181942D01*
X164375312Y-124181942D02*
X164327693Y-123991466D01*
X164327693Y-123991466D02*
X164327693Y-123753371D01*
X164327693Y-123753371D02*
X164375312Y-123562895D01*
X164375312Y-123562895D02*
X164422931Y-123467657D01*
X164422931Y-123467657D02*
X164470550Y-123420038D01*
X164470550Y-123420038D02*
X164565788Y-123372419D01*
X165327693Y-123991466D02*
X166089598Y-123991466D01*
X166756264Y-123372419D02*
X166851502Y-123372419D01*
X166851502Y-123372419D02*
X166946740Y-123420038D01*
X166946740Y-123420038D02*
X166994359Y-123467657D01*
X166994359Y-123467657D02*
X167041978Y-123562895D01*
X167041978Y-123562895D02*
X167089597Y-123753371D01*
X167089597Y-123753371D02*
X167089597Y-123991466D01*
X167089597Y-123991466D02*
X167041978Y-124181942D01*
X167041978Y-124181942D02*
X166994359Y-124277180D01*
X166994359Y-124277180D02*
X166946740Y-124324800D01*
X166946740Y-124324800D02*
X166851502Y-124372419D01*
X166851502Y-124372419D02*
X166756264Y-124372419D01*
X166756264Y-124372419D02*
X166661026Y-124324800D01*
X166661026Y-124324800D02*
X166613407Y-124277180D01*
X166613407Y-124277180D02*
X166565788Y-124181942D01*
X166565788Y-124181942D02*
X166518169Y-123991466D01*
X166518169Y-123991466D02*
X166518169Y-123753371D01*
X166518169Y-123753371D02*
X166565788Y-123562895D01*
X166565788Y-123562895D02*
X166613407Y-123467657D01*
X166613407Y-123467657D02*
X166661026Y-123420038D01*
X166661026Y-123420038D02*
X166756264Y-123372419D01*
X167708645Y-123372419D02*
X167803883Y-123372419D01*
X167803883Y-123372419D02*
X167899121Y-123420038D01*
X167899121Y-123420038D02*
X167946740Y-123467657D01*
X167946740Y-123467657D02*
X167994359Y-123562895D01*
X167994359Y-123562895D02*
X168041978Y-123753371D01*
X168041978Y-123753371D02*
X168041978Y-123991466D01*
X168041978Y-123991466D02*
X167994359Y-124181942D01*
X167994359Y-124181942D02*
X167946740Y-124277180D01*
X167946740Y-124277180D02*
X167899121Y-124324800D01*
X167899121Y-124324800D02*
X167803883Y-124372419D01*
X167803883Y-124372419D02*
X167708645Y-124372419D01*
X167708645Y-124372419D02*
X167613407Y-124324800D01*
X167613407Y-124324800D02*
X167565788Y-124277180D01*
X167565788Y-124277180D02*
X167518169Y-124181942D01*
X167518169Y-124181942D02*
X167470550Y-123991466D01*
X167470550Y-123991466D02*
X167470550Y-123753371D01*
X167470550Y-123753371D02*
X167518169Y-123562895D01*
X167518169Y-123562895D02*
X167565788Y-123467657D01*
X167565788Y-123467657D02*
X167613407Y-123420038D01*
X167613407Y-123420038D02*
X167708645Y-123372419D01*
X168994359Y-124372419D02*
X168422931Y-124372419D01*
X168708645Y-124372419D02*
X168708645Y-123372419D01*
X168708645Y-123372419D02*
X168613407Y-123515276D01*
X168613407Y-123515276D02*
X168518169Y-123610514D01*
X168518169Y-123610514D02*
X168422931Y-123658133D01*
X184803884Y-63872419D02*
X184803884Y-62872419D01*
X184803884Y-62872419D02*
X185137217Y-63586704D01*
X185137217Y-63586704D02*
X185470550Y-62872419D01*
X185470550Y-62872419D02*
X185470550Y-63872419D01*
X185946741Y-63872419D02*
X185946741Y-62872419D01*
X185946741Y-62872419D02*
X186327693Y-62872419D01*
X186327693Y-62872419D02*
X186422931Y-62920038D01*
X186422931Y-62920038D02*
X186470550Y-62967657D01*
X186470550Y-62967657D02*
X186518169Y-63062895D01*
X186518169Y-63062895D02*
X186518169Y-63205752D01*
X186518169Y-63205752D02*
X186470550Y-63300990D01*
X186470550Y-63300990D02*
X186422931Y-63348609D01*
X186422931Y-63348609D02*
X186327693Y-63396228D01*
X186327693Y-63396228D02*
X185946741Y-63396228D01*
X186946741Y-62872419D02*
X186946741Y-63681942D01*
X186946741Y-63681942D02*
X186994360Y-63777180D01*
X186994360Y-63777180D02*
X187041979Y-63824800D01*
X187041979Y-63824800D02*
X187137217Y-63872419D01*
X187137217Y-63872419D02*
X187327693Y-63872419D01*
X187327693Y-63872419D02*
X187422931Y-63824800D01*
X187422931Y-63824800D02*
X187470550Y-63777180D01*
X187470550Y-63777180D02*
X187518169Y-63681942D01*
X187518169Y-63681942D02*
X187518169Y-62872419D01*
X187994360Y-63491466D02*
X188756265Y-63491466D01*
X189661026Y-62872419D02*
X189470550Y-62872419D01*
X189470550Y-62872419D02*
X189375312Y-62920038D01*
X189375312Y-62920038D02*
X189327693Y-62967657D01*
X189327693Y-62967657D02*
X189232455Y-63110514D01*
X189232455Y-63110514D02*
X189184836Y-63300990D01*
X189184836Y-63300990D02*
X189184836Y-63681942D01*
X189184836Y-63681942D02*
X189232455Y-63777180D01*
X189232455Y-63777180D02*
X189280074Y-63824800D01*
X189280074Y-63824800D02*
X189375312Y-63872419D01*
X189375312Y-63872419D02*
X189565788Y-63872419D01*
X189565788Y-63872419D02*
X189661026Y-63824800D01*
X189661026Y-63824800D02*
X189708645Y-63777180D01*
X189708645Y-63777180D02*
X189756264Y-63681942D01*
X189756264Y-63681942D02*
X189756264Y-63443847D01*
X189756264Y-63443847D02*
X189708645Y-63348609D01*
X189708645Y-63348609D02*
X189661026Y-63300990D01*
X189661026Y-63300990D02*
X189565788Y-63253371D01*
X189565788Y-63253371D02*
X189375312Y-63253371D01*
X189375312Y-63253371D02*
X189280074Y-63300990D01*
X189280074Y-63300990D02*
X189232455Y-63348609D01*
X189232455Y-63348609D02*
X189184836Y-63443847D01*
X190375312Y-62872419D02*
X190470550Y-62872419D01*
X190470550Y-62872419D02*
X190565788Y-62920038D01*
X190565788Y-62920038D02*
X190613407Y-62967657D01*
X190613407Y-62967657D02*
X190661026Y-63062895D01*
X190661026Y-63062895D02*
X190708645Y-63253371D01*
X190708645Y-63253371D02*
X190708645Y-63491466D01*
X190708645Y-63491466D02*
X190661026Y-63681942D01*
X190661026Y-63681942D02*
X190613407Y-63777180D01*
X190613407Y-63777180D02*
X190565788Y-63824800D01*
X190565788Y-63824800D02*
X190470550Y-63872419D01*
X190470550Y-63872419D02*
X190375312Y-63872419D01*
X190375312Y-63872419D02*
X190280074Y-63824800D01*
X190280074Y-63824800D02*
X190232455Y-63777180D01*
X190232455Y-63777180D02*
X190184836Y-63681942D01*
X190184836Y-63681942D02*
X190137217Y-63491466D01*
X190137217Y-63491466D02*
X190137217Y-63253371D01*
X190137217Y-63253371D02*
X190184836Y-63062895D01*
X190184836Y-63062895D02*
X190232455Y-62967657D01*
X190232455Y-62967657D02*
X190280074Y-62920038D01*
X190280074Y-62920038D02*
X190375312Y-62872419D01*
X191613407Y-62872419D02*
X191137217Y-62872419D01*
X191137217Y-62872419D02*
X191089598Y-63348609D01*
X191089598Y-63348609D02*
X191137217Y-63300990D01*
X191137217Y-63300990D02*
X191232455Y-63253371D01*
X191232455Y-63253371D02*
X191470550Y-63253371D01*
X191470550Y-63253371D02*
X191565788Y-63300990D01*
X191565788Y-63300990D02*
X191613407Y-63348609D01*
X191613407Y-63348609D02*
X191661026Y-63443847D01*
X191661026Y-63443847D02*
X191661026Y-63681942D01*
X191661026Y-63681942D02*
X191613407Y-63777180D01*
X191613407Y-63777180D02*
X191565788Y-63824800D01*
X191565788Y-63824800D02*
X191470550Y-63872419D01*
X191470550Y-63872419D02*
X191232455Y-63872419D01*
X191232455Y-63872419D02*
X191137217Y-63824800D01*
X191137217Y-63824800D02*
X191089598Y-63777180D01*
X192280074Y-62872419D02*
X192375312Y-62872419D01*
X192375312Y-62872419D02*
X192470550Y-62920038D01*
X192470550Y-62920038D02*
X192518169Y-62967657D01*
X192518169Y-62967657D02*
X192565788Y-63062895D01*
X192565788Y-63062895D02*
X192613407Y-63253371D01*
X192613407Y-63253371D02*
X192613407Y-63491466D01*
X192613407Y-63491466D02*
X192565788Y-63681942D01*
X192565788Y-63681942D02*
X192518169Y-63777180D01*
X192518169Y-63777180D02*
X192470550Y-63824800D01*
X192470550Y-63824800D02*
X192375312Y-63872419D01*
X192375312Y-63872419D02*
X192280074Y-63872419D01*
X192280074Y-63872419D02*
X192184836Y-63824800D01*
X192184836Y-63824800D02*
X192137217Y-63777180D01*
X192137217Y-63777180D02*
X192089598Y-63681942D01*
X192089598Y-63681942D02*
X192041979Y-63491466D01*
X192041979Y-63491466D02*
X192041979Y-63253371D01*
X192041979Y-63253371D02*
X192089598Y-63062895D01*
X192089598Y-63062895D02*
X192137217Y-62967657D01*
X192137217Y-62967657D02*
X192184836Y-62920038D01*
X192184836Y-62920038D02*
X192280074Y-62872419D01*
X167114561Y-112692798D02*
X167057419Y-112664227D01*
X167057419Y-112664227D02*
X166971704Y-112664227D01*
X166971704Y-112664227D02*
X166885990Y-112692798D01*
X166885990Y-112692798D02*
X166828847Y-112749941D01*
X166828847Y-112749941D02*
X166800276Y-112807084D01*
X166800276Y-112807084D02*
X166771704Y-112921370D01*
X166771704Y-112921370D02*
X166771704Y-113007084D01*
X166771704Y-113007084D02*
X166800276Y-113121370D01*
X166800276Y-113121370D02*
X166828847Y-113178513D01*
X166828847Y-113178513D02*
X166885990Y-113235656D01*
X166885990Y-113235656D02*
X166971704Y-113264227D01*
X166971704Y-113264227D02*
X167028847Y-113264227D01*
X167028847Y-113264227D02*
X167114561Y-113235656D01*
X167114561Y-113235656D02*
X167143133Y-113207084D01*
X167143133Y-113207084D02*
X167143133Y-113007084D01*
X167143133Y-113007084D02*
X167028847Y-113007084D01*
X167400276Y-113264227D02*
X167400276Y-112664227D01*
X167400276Y-112664227D02*
X167743133Y-113264227D01*
X167743133Y-113264227D02*
X167743133Y-112664227D01*
X168028847Y-113264227D02*
X168028847Y-112664227D01*
X168028847Y-112664227D02*
X168171704Y-112664227D01*
X168171704Y-112664227D02*
X168257418Y-112692798D01*
X168257418Y-112692798D02*
X168314561Y-112749941D01*
X168314561Y-112749941D02*
X168343132Y-112807084D01*
X168343132Y-112807084D02*
X168371704Y-112921370D01*
X168371704Y-112921370D02*
X168371704Y-113007084D01*
X168371704Y-113007084D02*
X168343132Y-113121370D01*
X168343132Y-113121370D02*
X168314561Y-113178513D01*
X168314561Y-113178513D02*
X168257418Y-113235656D01*
X168257418Y-113235656D02*
X168171704Y-113264227D01*
X168171704Y-113264227D02*
X168028847Y-113264227D01*
X180622931Y-48321371D02*
X180822931Y-48921371D01*
X180822931Y-48921371D02*
X181022931Y-48321371D01*
X181565789Y-48864228D02*
X181537217Y-48892800D01*
X181537217Y-48892800D02*
X181451503Y-48921371D01*
X181451503Y-48921371D02*
X181394360Y-48921371D01*
X181394360Y-48921371D02*
X181308646Y-48892800D01*
X181308646Y-48892800D02*
X181251503Y-48835657D01*
X181251503Y-48835657D02*
X181222932Y-48778514D01*
X181222932Y-48778514D02*
X181194360Y-48664228D01*
X181194360Y-48664228D02*
X181194360Y-48578514D01*
X181194360Y-48578514D02*
X181222932Y-48464228D01*
X181222932Y-48464228D02*
X181251503Y-48407085D01*
X181251503Y-48407085D02*
X181308646Y-48349942D01*
X181308646Y-48349942D02*
X181394360Y-48321371D01*
X181394360Y-48321371D02*
X181451503Y-48321371D01*
X181451503Y-48321371D02*
X181537217Y-48349942D01*
X181537217Y-48349942D02*
X181565789Y-48378514D01*
X182165789Y-48864228D02*
X182137217Y-48892800D01*
X182137217Y-48892800D02*
X182051503Y-48921371D01*
X182051503Y-48921371D02*
X181994360Y-48921371D01*
X181994360Y-48921371D02*
X181908646Y-48892800D01*
X181908646Y-48892800D02*
X181851503Y-48835657D01*
X181851503Y-48835657D02*
X181822932Y-48778514D01*
X181822932Y-48778514D02*
X181794360Y-48664228D01*
X181794360Y-48664228D02*
X181794360Y-48578514D01*
X181794360Y-48578514D02*
X181822932Y-48464228D01*
X181822932Y-48464228D02*
X181851503Y-48407085D01*
X181851503Y-48407085D02*
X181908646Y-48349942D01*
X181908646Y-48349942D02*
X181994360Y-48321371D01*
X181994360Y-48321371D02*
X182051503Y-48321371D01*
X182051503Y-48321371D02*
X182137217Y-48349942D01*
X182137217Y-48349942D02*
X182165789Y-48378514D01*
D11*
X192233094Y-132307319D02*
X192233094Y-131307319D01*
X192233094Y-131307319D02*
X192566427Y-132021604D01*
X192566427Y-132021604D02*
X192899760Y-131307319D01*
X192899760Y-131307319D02*
X192899760Y-132307319D01*
X193518808Y-132307319D02*
X193423570Y-132259700D01*
X193423570Y-132259700D02*
X193375951Y-132212080D01*
X193375951Y-132212080D02*
X193328332Y-132116842D01*
X193328332Y-132116842D02*
X193328332Y-131831128D01*
X193328332Y-131831128D02*
X193375951Y-131735890D01*
X193375951Y-131735890D02*
X193423570Y-131688271D01*
X193423570Y-131688271D02*
X193518808Y-131640652D01*
X193518808Y-131640652D02*
X193661665Y-131640652D01*
X193661665Y-131640652D02*
X193756903Y-131688271D01*
X193756903Y-131688271D02*
X193804522Y-131735890D01*
X193804522Y-131735890D02*
X193852141Y-131831128D01*
X193852141Y-131831128D02*
X193852141Y-132116842D01*
X193852141Y-132116842D02*
X193804522Y-132212080D01*
X193804522Y-132212080D02*
X193756903Y-132259700D01*
X193756903Y-132259700D02*
X193661665Y-132307319D01*
X193661665Y-132307319D02*
X193518808Y-132307319D01*
X194137856Y-131640652D02*
X194518808Y-131640652D01*
X194280713Y-131307319D02*
X194280713Y-132164461D01*
X194280713Y-132164461D02*
X194328332Y-132259700D01*
X194328332Y-132259700D02*
X194423570Y-132307319D01*
X194423570Y-132307319D02*
X194518808Y-132307319D01*
X194994999Y-132307319D02*
X194899761Y-132259700D01*
X194899761Y-132259700D02*
X194852142Y-132212080D01*
X194852142Y-132212080D02*
X194804523Y-132116842D01*
X194804523Y-132116842D02*
X194804523Y-131831128D01*
X194804523Y-131831128D02*
X194852142Y-131735890D01*
X194852142Y-131735890D02*
X194899761Y-131688271D01*
X194899761Y-131688271D02*
X194994999Y-131640652D01*
X194994999Y-131640652D02*
X195137856Y-131640652D01*
X195137856Y-131640652D02*
X195233094Y-131688271D01*
X195233094Y-131688271D02*
X195280713Y-131735890D01*
X195280713Y-131735890D02*
X195328332Y-131831128D01*
X195328332Y-131831128D02*
X195328332Y-132116842D01*
X195328332Y-132116842D02*
X195280713Y-132212080D01*
X195280713Y-132212080D02*
X195233094Y-132259700D01*
X195233094Y-132259700D02*
X195137856Y-132307319D01*
X195137856Y-132307319D02*
X194994999Y-132307319D01*
X195756904Y-132307319D02*
X195756904Y-131640652D01*
X195756904Y-131831128D02*
X195804523Y-131735890D01*
X195804523Y-131735890D02*
X195852142Y-131688271D01*
X195852142Y-131688271D02*
X195947380Y-131640652D01*
X195947380Y-131640652D02*
X196042618Y-131640652D01*
X196566428Y-131307319D02*
X196756904Y-131307319D01*
X196756904Y-131307319D02*
X196852142Y-131354938D01*
X196852142Y-131354938D02*
X196947380Y-131450176D01*
X196947380Y-131450176D02*
X196994999Y-131640652D01*
X196994999Y-131640652D02*
X196994999Y-131973985D01*
X196994999Y-131973985D02*
X196947380Y-132164461D01*
X196947380Y-132164461D02*
X196852142Y-132259700D01*
X196852142Y-132259700D02*
X196756904Y-132307319D01*
X196756904Y-132307319D02*
X196566428Y-132307319D01*
X196566428Y-132307319D02*
X196471190Y-132259700D01*
X196471190Y-132259700D02*
X196375952Y-132164461D01*
X196375952Y-132164461D02*
X196328333Y-131973985D01*
X196328333Y-131973985D02*
X196328333Y-131640652D01*
X196328333Y-131640652D02*
X196375952Y-131450176D01*
X196375952Y-131450176D02*
X196471190Y-131354938D01*
X196471190Y-131354938D02*
X196566428Y-131307319D01*
X197852142Y-131640652D02*
X197852142Y-132307319D01*
X197423571Y-131640652D02*
X197423571Y-132164461D01*
X197423571Y-132164461D02*
X197471190Y-132259700D01*
X197471190Y-132259700D02*
X197566428Y-132307319D01*
X197566428Y-132307319D02*
X197709285Y-132307319D01*
X197709285Y-132307319D02*
X197804523Y-132259700D01*
X197804523Y-132259700D02*
X197852142Y-132212080D01*
X198185476Y-131640652D02*
X198566428Y-131640652D01*
X198328333Y-131307319D02*
X198328333Y-132164461D01*
X198328333Y-132164461D02*
X198375952Y-132259700D01*
X198375952Y-132259700D02*
X198471190Y-132307319D01*
X198471190Y-132307319D02*
X198566428Y-132307319D01*
X198899762Y-131640652D02*
X198899762Y-132640652D01*
X198899762Y-131688271D02*
X198995000Y-131640652D01*
X198995000Y-131640652D02*
X199185476Y-131640652D01*
X199185476Y-131640652D02*
X199280714Y-131688271D01*
X199280714Y-131688271D02*
X199328333Y-131735890D01*
X199328333Y-131735890D02*
X199375952Y-131831128D01*
X199375952Y-131831128D02*
X199375952Y-132116842D01*
X199375952Y-132116842D02*
X199328333Y-132212080D01*
X199328333Y-132212080D02*
X199280714Y-132259700D01*
X199280714Y-132259700D02*
X199185476Y-132307319D01*
X199185476Y-132307319D02*
X198995000Y-132307319D01*
X198995000Y-132307319D02*
X198899762Y-132259700D01*
X200233095Y-131640652D02*
X200233095Y-132307319D01*
X199804524Y-131640652D02*
X199804524Y-132164461D01*
X199804524Y-132164461D02*
X199852143Y-132259700D01*
X199852143Y-132259700D02*
X199947381Y-132307319D01*
X199947381Y-132307319D02*
X200090238Y-132307319D01*
X200090238Y-132307319D02*
X200185476Y-132259700D01*
X200185476Y-132259700D02*
X200233095Y-132212080D01*
X200566429Y-131640652D02*
X200947381Y-131640652D01*
X200709286Y-131307319D02*
X200709286Y-132164461D01*
X200709286Y-132164461D02*
X200756905Y-132259700D01*
X200756905Y-132259700D02*
X200852143Y-132307319D01*
X200852143Y-132307319D02*
X200947381Y-132307319D01*
X201804524Y-132307319D02*
X201233096Y-132307319D01*
X201518810Y-132307319D02*
X201518810Y-131307319D01*
X201518810Y-131307319D02*
X201423572Y-131450176D01*
X201423572Y-131450176D02*
X201328334Y-131545414D01*
X201328334Y-131545414D02*
X201233096Y-131593033D01*
X181738095Y-136954819D02*
X181738095Y-135954819D01*
X181738095Y-135954819D02*
X182071428Y-136669104D01*
X182071428Y-136669104D02*
X182404761Y-135954819D01*
X182404761Y-135954819D02*
X182404761Y-136954819D01*
X183404761Y-136002438D02*
X183309523Y-135954819D01*
X183309523Y-135954819D02*
X183166666Y-135954819D01*
X183166666Y-135954819D02*
X183023809Y-136002438D01*
X183023809Y-136002438D02*
X182928571Y-136097676D01*
X182928571Y-136097676D02*
X182880952Y-136192914D01*
X182880952Y-136192914D02*
X182833333Y-136383390D01*
X182833333Y-136383390D02*
X182833333Y-136526247D01*
X182833333Y-136526247D02*
X182880952Y-136716723D01*
X182880952Y-136716723D02*
X182928571Y-136811961D01*
X182928571Y-136811961D02*
X183023809Y-136907200D01*
X183023809Y-136907200D02*
X183166666Y-136954819D01*
X183166666Y-136954819D02*
X183261904Y-136954819D01*
X183261904Y-136954819D02*
X183404761Y-136907200D01*
X183404761Y-136907200D02*
X183452380Y-136859580D01*
X183452380Y-136859580D02*
X183452380Y-136526247D01*
X183452380Y-136526247D02*
X183261904Y-136526247D01*
X183928571Y-136954819D02*
X184119047Y-136954819D01*
X184119047Y-136954819D02*
X184214285Y-136907200D01*
X184214285Y-136907200D02*
X184261904Y-136859580D01*
X184261904Y-136859580D02*
X184357142Y-136716723D01*
X184357142Y-136716723D02*
X184404761Y-136526247D01*
X184404761Y-136526247D02*
X184404761Y-136145295D01*
X184404761Y-136145295D02*
X184357142Y-136050057D01*
X184357142Y-136050057D02*
X184309523Y-136002438D01*
X184309523Y-136002438D02*
X184214285Y-135954819D01*
X184214285Y-135954819D02*
X184023809Y-135954819D01*
X184023809Y-135954819D02*
X183928571Y-136002438D01*
X183928571Y-136002438D02*
X183880952Y-136050057D01*
X183880952Y-136050057D02*
X183833333Y-136145295D01*
X183833333Y-136145295D02*
X183833333Y-136383390D01*
X183833333Y-136383390D02*
X183880952Y-136478628D01*
X183880952Y-136478628D02*
X183928571Y-136526247D01*
X183928571Y-136526247D02*
X184023809Y-136573866D01*
X184023809Y-136573866D02*
X184214285Y-136573866D01*
X184214285Y-136573866D02*
X184309523Y-136526247D01*
X184309523Y-136526247D02*
X184357142Y-136478628D01*
X184357142Y-136478628D02*
X184404761Y-136383390D01*
X184880952Y-136954819D02*
X185071428Y-136954819D01*
X185071428Y-136954819D02*
X185166666Y-136907200D01*
X185166666Y-136907200D02*
X185214285Y-136859580D01*
X185214285Y-136859580D02*
X185309523Y-136716723D01*
X185309523Y-136716723D02*
X185357142Y-136526247D01*
X185357142Y-136526247D02*
X185357142Y-136145295D01*
X185357142Y-136145295D02*
X185309523Y-136050057D01*
X185309523Y-136050057D02*
X185261904Y-136002438D01*
X185261904Y-136002438D02*
X185166666Y-135954819D01*
X185166666Y-135954819D02*
X184976190Y-135954819D01*
X184976190Y-135954819D02*
X184880952Y-136002438D01*
X184880952Y-136002438D02*
X184833333Y-136050057D01*
X184833333Y-136050057D02*
X184785714Y-136145295D01*
X184785714Y-136145295D02*
X184785714Y-136383390D01*
X184785714Y-136383390D02*
X184833333Y-136478628D01*
X184833333Y-136478628D02*
X184880952Y-136526247D01*
X184880952Y-136526247D02*
X184976190Y-136573866D01*
X184976190Y-136573866D02*
X185166666Y-136573866D01*
X185166666Y-136573866D02*
X185261904Y-136526247D01*
X185261904Y-136526247D02*
X185309523Y-136478628D01*
X185309523Y-136478628D02*
X185357142Y-136383390D01*
X186214285Y-135954819D02*
X186023809Y-135954819D01*
X186023809Y-135954819D02*
X185928571Y-136002438D01*
X185928571Y-136002438D02*
X185880952Y-136050057D01*
X185880952Y-136050057D02*
X185785714Y-136192914D01*
X185785714Y-136192914D02*
X185738095Y-136383390D01*
X185738095Y-136383390D02*
X185738095Y-136764342D01*
X185738095Y-136764342D02*
X185785714Y-136859580D01*
X185785714Y-136859580D02*
X185833333Y-136907200D01*
X185833333Y-136907200D02*
X185928571Y-136954819D01*
X185928571Y-136954819D02*
X186119047Y-136954819D01*
X186119047Y-136954819D02*
X186214285Y-136907200D01*
X186214285Y-136907200D02*
X186261904Y-136859580D01*
X186261904Y-136859580D02*
X186309523Y-136764342D01*
X186309523Y-136764342D02*
X186309523Y-136526247D01*
X186309523Y-136526247D02*
X186261904Y-136431009D01*
X186261904Y-136431009D02*
X186214285Y-136383390D01*
X186214285Y-136383390D02*
X186119047Y-136335771D01*
X186119047Y-136335771D02*
X185928571Y-136335771D01*
X185928571Y-136335771D02*
X185833333Y-136383390D01*
X185833333Y-136383390D02*
X185785714Y-136431009D01*
X185785714Y-136431009D02*
X185738095Y-136526247D01*
X187309523Y-136954819D02*
X186976190Y-136478628D01*
X186738095Y-136954819D02*
X186738095Y-135954819D01*
X186738095Y-135954819D02*
X187119047Y-135954819D01*
X187119047Y-135954819D02*
X187214285Y-136002438D01*
X187214285Y-136002438D02*
X187261904Y-136050057D01*
X187261904Y-136050057D02*
X187309523Y-136145295D01*
X187309523Y-136145295D02*
X187309523Y-136288152D01*
X187309523Y-136288152D02*
X187261904Y-136383390D01*
X187261904Y-136383390D02*
X187214285Y-136431009D01*
X187214285Y-136431009D02*
X187119047Y-136478628D01*
X187119047Y-136478628D02*
X186738095Y-136478628D01*
X153954819Y-43499999D02*
X152954819Y-43499999D01*
X152954819Y-43499999D02*
X152954819Y-43261904D01*
X152954819Y-43261904D02*
X153002438Y-43119047D01*
X153002438Y-43119047D02*
X153097676Y-43023809D01*
X153097676Y-43023809D02*
X153192914Y-42976190D01*
X153192914Y-42976190D02*
X153383390Y-42928571D01*
X153383390Y-42928571D02*
X153526247Y-42928571D01*
X153526247Y-42928571D02*
X153716723Y-42976190D01*
X153716723Y-42976190D02*
X153811961Y-43023809D01*
X153811961Y-43023809D02*
X153907200Y-43119047D01*
X153907200Y-43119047D02*
X153954819Y-43261904D01*
X153954819Y-43261904D02*
X153954819Y-43499999D01*
X153859580Y-41928571D02*
X153907200Y-41976190D01*
X153907200Y-41976190D02*
X153954819Y-42119047D01*
X153954819Y-42119047D02*
X153954819Y-42214285D01*
X153954819Y-42214285D02*
X153907200Y-42357142D01*
X153907200Y-42357142D02*
X153811961Y-42452380D01*
X153811961Y-42452380D02*
X153716723Y-42499999D01*
X153716723Y-42499999D02*
X153526247Y-42547618D01*
X153526247Y-42547618D02*
X153383390Y-42547618D01*
X153383390Y-42547618D02*
X153192914Y-42499999D01*
X153192914Y-42499999D02*
X153097676Y-42452380D01*
X153097676Y-42452380D02*
X153002438Y-42357142D01*
X153002438Y-42357142D02*
X152954819Y-42214285D01*
X152954819Y-42214285D02*
X152954819Y-42119047D01*
X152954819Y-42119047D02*
X153002438Y-41976190D01*
X153002438Y-41976190D02*
X153050057Y-41928571D01*
X154050057Y-41738095D02*
X154050057Y-40976190D01*
X153954819Y-40738094D02*
X152954819Y-40738094D01*
X153288152Y-40261904D02*
X153954819Y-40261904D01*
X153383390Y-40261904D02*
X153335771Y-40214285D01*
X153335771Y-40214285D02*
X153288152Y-40119047D01*
X153288152Y-40119047D02*
X153288152Y-39976190D01*
X153288152Y-39976190D02*
X153335771Y-39880952D01*
X153335771Y-39880952D02*
X153431009Y-39833333D01*
X153431009Y-39833333D02*
X153954819Y-39833333D01*
X153288152Y-39357142D02*
X154288152Y-39357142D01*
X153335771Y-39357142D02*
X153288152Y-39261904D01*
X153288152Y-39261904D02*
X153288152Y-39071428D01*
X153288152Y-39071428D02*
X153335771Y-38976190D01*
X153335771Y-38976190D02*
X153383390Y-38928571D01*
X153383390Y-38928571D02*
X153478628Y-38880952D01*
X153478628Y-38880952D02*
X153764342Y-38880952D01*
X153764342Y-38880952D02*
X153859580Y-38928571D01*
X153859580Y-38928571D02*
X153907200Y-38976190D01*
X153907200Y-38976190D02*
X153954819Y-39071428D01*
X153954819Y-39071428D02*
X153954819Y-39261904D01*
X153954819Y-39261904D02*
X153907200Y-39357142D01*
X153288152Y-38023809D02*
X153954819Y-38023809D01*
X153288152Y-38452380D02*
X153811961Y-38452380D01*
X153811961Y-38452380D02*
X153907200Y-38404761D01*
X153907200Y-38404761D02*
X153954819Y-38309523D01*
X153954819Y-38309523D02*
X153954819Y-38166666D01*
X153954819Y-38166666D02*
X153907200Y-38071428D01*
X153907200Y-38071428D02*
X153859580Y-38023809D01*
X153288152Y-37690475D02*
X153288152Y-37309523D01*
X152954819Y-37547618D02*
X153811961Y-37547618D01*
X153811961Y-37547618D02*
X153907200Y-37499999D01*
X153907200Y-37499999D02*
X153954819Y-37404761D01*
X153954819Y-37404761D02*
X153954819Y-37309523D01*
X153954819Y-36452380D02*
X153954819Y-37023808D01*
X153954819Y-36738094D02*
X152954819Y-36738094D01*
X152954819Y-36738094D02*
X153097676Y-36833332D01*
X153097676Y-36833332D02*
X153192914Y-36928570D01*
X153192914Y-36928570D02*
X153240533Y-37023808D01*
D16*
%TO.C,MotorOutput1*%
X191795000Y-132852500D02*
X202195000Y-132852500D01*
X191795000Y-135872500D02*
X202195000Y-135872500D01*
X191795000Y-140772500D02*
X202195000Y-140772500D01*
X191795000Y-142272500D02*
X202195000Y-142272500D01*
X191795000Y-142892500D02*
X191795000Y-132852500D01*
X194155000Y-142892500D02*
X191795000Y-142892500D01*
X202195000Y-132852500D02*
X202195000Y-142892500D01*
X202195000Y-142892500D02*
X194755000Y-142892500D01*
X194895000Y-143502500D02*
X194015000Y-143502500D01*
X194455000Y-142892500D01*
X194895000Y-143502500D01*
G36*
X194895000Y-143502500D02*
G01*
X194015000Y-143502500D01*
X194455000Y-142892500D01*
X194895000Y-143502500D01*
G37*
%TO.C,MG996R*%
X180630000Y-138145000D02*
X181960000Y-138145000D01*
X180630000Y-139475000D02*
X180630000Y-138145000D01*
X183230000Y-138145000D02*
X188370000Y-138145000D01*
X183230000Y-140805000D02*
X183230000Y-138145000D01*
X183230000Y-140805000D02*
X188370000Y-140805000D01*
X188370000Y-140805000D02*
X188370000Y-138145000D01*
%TO.C,MPU-1*%
X178408171Y-69636568D02*
X179738171Y-69636568D01*
X178408171Y-70966568D02*
X178408171Y-69636568D01*
X181008171Y-69636568D02*
X198848171Y-69636568D01*
X181008171Y-72296568D02*
X181008171Y-69636568D01*
X181008171Y-72296568D02*
X198848171Y-72296568D01*
X198848171Y-72296568D02*
X198848171Y-69636568D01*
%TO.C,GY-GPS6MV1*%
X158549999Y-108169999D02*
X159879999Y-108169999D01*
X158549999Y-109499999D02*
X158549999Y-108169999D01*
X161149999Y-108169999D02*
X168829999Y-108169999D01*
X161149999Y-110829999D02*
X161149999Y-108169999D01*
X161149999Y-110829999D02*
X168829999Y-110829999D01*
X168829999Y-110829999D02*
X168829999Y-108169999D01*
%TO.C,BMP1*%
X180009969Y-50784562D02*
X181339969Y-50784562D01*
X180009969Y-52114562D02*
X180009969Y-50784562D01*
X182609969Y-50784562D02*
X195369969Y-50784562D01*
X182609969Y-53444562D02*
X182609969Y-50784562D01*
X182609969Y-53444562D02*
X195369969Y-53444562D01*
X195369969Y-53444562D02*
X195369969Y-50784562D01*
%TO.C,U1*%
X151801535Y-102138521D02*
X200181535Y-102138521D01*
X151801535Y-103468521D02*
X151801535Y-102138521D01*
X151801535Y-104798521D02*
X151801535Y-102138521D01*
X151801535Y-104798521D02*
X200181535Y-104798521D01*
X151830808Y-76120709D02*
X200210808Y-76120709D01*
X151830808Y-78780709D02*
X151830808Y-76120709D01*
X151830808Y-78780709D02*
X200210808Y-78780709D01*
X200180095Y-104765938D02*
X200180095Y-102105938D01*
X200209368Y-78748126D02*
X200209368Y-76088126D01*
%TO.C,TB1*%
X182511900Y-111048800D02*
X182511900Y-128888800D01*
X182511900Y-111048800D02*
X185171900Y-111048800D01*
X182511900Y-128888800D02*
X185171900Y-128888800D01*
X183841900Y-108448800D02*
X185171900Y-108448800D01*
X185171900Y-108448800D02*
X185171900Y-109778800D01*
X185171900Y-111048800D02*
X185171900Y-128888800D01*
X197497900Y-111048800D02*
X197497900Y-128888800D01*
X197497900Y-111048800D02*
X200157900Y-111048800D01*
X197497900Y-128888800D02*
X200157900Y-128888800D01*
X198827900Y-108448800D02*
X200157900Y-108448800D01*
X200157900Y-108448800D02*
X200157900Y-109778800D01*
X200157900Y-111048800D02*
X200157900Y-128888800D01*
%TO.C,MP1584EN1*%
X153550905Y-51280000D02*
X153550905Y-53940000D01*
X153552448Y-69725347D02*
X153552448Y-72385347D01*
X156150905Y-51280000D02*
X153550905Y-51280000D01*
X156150905Y-51280000D02*
X156150905Y-53940000D01*
X156150905Y-53940000D02*
X153550905Y-53940000D01*
X156152448Y-69725347D02*
X153552448Y-69725347D01*
X156152448Y-69725347D02*
X156152448Y-72385347D01*
X156152448Y-72385347D02*
X153552448Y-72385347D01*
X158750905Y-52610000D02*
X158750905Y-53940000D01*
X158750905Y-53940000D02*
X157420905Y-53940000D01*
X158752448Y-71055347D02*
X158752448Y-72385347D01*
X158752448Y-72385347D02*
X157422448Y-72385347D01*
X164219732Y-69727955D02*
X164219732Y-72387955D01*
X164220000Y-51280000D02*
X164220000Y-53940000D01*
X166819732Y-69727955D02*
X164219732Y-69727955D01*
X166819732Y-69727955D02*
X166819732Y-72387955D01*
X166819732Y-72387955D02*
X164219732Y-72387955D01*
X166820000Y-51280000D02*
X164220000Y-51280000D01*
X166820000Y-51280000D02*
X166820000Y-53940000D01*
X166820000Y-53940000D02*
X164220000Y-53940000D01*
X169419732Y-71057955D02*
X169419732Y-72387955D01*
X169419732Y-72387955D02*
X168089732Y-72387955D01*
X169420000Y-52610000D02*
X169420000Y-53940000D01*
X169420000Y-53940000D02*
X168090000Y-53940000D01*
%TO.C,DC_Input1*%
X156400000Y-33560000D02*
X165600000Y-33560000D01*
X156400000Y-42360000D02*
X156400000Y-33560000D01*
X156400000Y-48260000D02*
X156400000Y-46360000D01*
X159100000Y-48260000D02*
X156400000Y-48260000D01*
X164750000Y-48460000D02*
X165800000Y-48460000D01*
X165600000Y-33560000D02*
X165600000Y-48260000D01*
X165600000Y-48260000D02*
X163000000Y-48260000D01*
X165800000Y-47410000D02*
X165800000Y-48460000D01*
%TD*%
%LPC*%
D17*
%TO.C,MotorOutput1*%
X194455000Y-138172500D03*
D18*
X199535000Y-138172500D03*
%TD*%
D19*
%TO.C,MG996R*%
X181960000Y-139475000D03*
D20*
X184500000Y-139475000D03*
X187040000Y-139475000D03*
%TD*%
D19*
%TO.C,MPU-1*%
X179738171Y-70966568D03*
D20*
X182278171Y-70966568D03*
X184818171Y-70966568D03*
X187358171Y-70966568D03*
X189898171Y-70966568D03*
X192438171Y-70966568D03*
X194978171Y-70966568D03*
X197518171Y-70966568D03*
%TD*%
%TO.C,GY-GPS6MV1*%
X167499999Y-109499999D03*
X164959999Y-109499999D03*
X162419999Y-109499999D03*
D19*
X159879999Y-109499999D03*
%TD*%
%TO.C,BMP1*%
X181339969Y-52114562D03*
D20*
X183879969Y-52114562D03*
X186419969Y-52114562D03*
X188959969Y-52114562D03*
X191499969Y-52114562D03*
X194039969Y-52114562D03*
%TD*%
D21*
%TO.C,U1*%
X153046500Y-103420200D03*
D22*
X155586500Y-103420200D03*
X158126500Y-103420200D03*
X160666500Y-103420200D03*
X163206500Y-103420200D03*
X165746500Y-103420200D03*
X168286500Y-103420200D03*
X170826500Y-103420200D03*
X173366500Y-103420200D03*
X175906500Y-103420200D03*
X178446500Y-103420200D03*
X180986500Y-103420200D03*
X183526500Y-103420200D03*
X186066500Y-103420200D03*
X188606500Y-103420200D03*
X191146500Y-103420200D03*
X193686500Y-103420200D03*
X196226500Y-103420200D03*
D21*
X198766500Y-103420200D03*
X198806500Y-77420200D03*
D22*
X196266500Y-77420200D03*
X193726500Y-77420200D03*
X191186500Y-77420200D03*
X188646500Y-77420200D03*
X186106500Y-77420200D03*
X183566500Y-77420200D03*
X181026500Y-77420200D03*
X178486500Y-77420200D03*
X175946500Y-77420200D03*
X173406500Y-77420200D03*
X170866500Y-77420200D03*
X168326500Y-77420200D03*
X165786500Y-77420200D03*
X163246500Y-77420200D03*
X160706500Y-77420200D03*
X158166500Y-77420200D03*
X155626500Y-77420200D03*
D21*
X153086500Y-77420200D03*
%TD*%
D19*
%TO.C,TB1*%
X183841900Y-109778800D03*
D20*
X183841900Y-112318800D03*
X183841900Y-114858800D03*
X183841900Y-117398800D03*
X183841900Y-119938800D03*
X183841900Y-122478800D03*
X183841900Y-125018800D03*
X183841900Y-127558800D03*
D19*
X198827900Y-109778800D03*
D20*
X198827900Y-112318800D03*
X198827900Y-114858800D03*
X198827900Y-117398800D03*
X198827900Y-119938800D03*
X198827900Y-122478800D03*
X198827900Y-125018800D03*
X198827900Y-127558800D03*
%TD*%
D19*
%TO.C,MP1584EN1*%
X157420905Y-52610000D03*
D20*
X154880905Y-52610000D03*
D19*
X168090000Y-52610000D03*
D20*
X165550000Y-52610000D03*
D19*
X157422448Y-71055347D03*
D20*
X154882448Y-71055347D03*
D19*
X168089732Y-71057955D03*
D20*
X165549732Y-71057955D03*
%TD*%
D23*
%TO.C,DC_Input1*%
X156300000Y-44360000D03*
D24*
X161000000Y-47360000D03*
D25*
X161000000Y-41360000D03*
%TD*%
%LPD*%
M02*
